<svg width="465" height="160" viewBox="0 0 465 160" fill="none" xmlns="http://www.w3.org/2000/svg">
<g clip-path="url(#clip0_35_54)">
<path d="M242.553 51.1607C242.553 55.7737 238.848 59.4882 234.249 59.4882C229.65 59.4882 225.947 55.7737 225.947 51.1607C225.947 46.5477 229.524 42.8332 234.249 42.8332C238.978 42.9612 242.553 46.677 242.553 51.1607ZM208.319 67.9463V69.9968C208.319 69.9968 204.361 64.8692 195.93 64.8692C182.008 64.8692 171.149 75.5045 171.149 90.2383C171.149 104.845 181.881 115.607 195.93 115.607C204.489 115.607 208.319 110.354 208.319 110.354V112.532C208.319 113.557 209.088 114.324 210.108 114.324H220.453V66.1467H210.108C209.088 66.1505 208.319 67.0491 208.319 67.9463ZM208.319 98.8231C206.405 101.643 202.572 104.077 197.974 104.077C189.8 104.077 183.54 98.9524 183.54 90.2383C183.54 81.5255 189.8 76.4005 197.974 76.4005C202.446 76.4005 206.533 78.963 208.319 81.6535V98.8231ZM228.119 66.1505H240.38V114.327H228.119V66.1505ZM411.29 64.868C402.859 64.868 398.898 69.9955 398.898 69.9955V42.9612H386.637V114.327H396.984C398.006 114.327 398.771 113.43 398.771 112.533V110.356C398.771 110.356 402.731 115.609 411.16 115.609C425.084 115.609 435.941 104.849 435.941 90.2422C435.941 75.6351 425.084 64.868 411.29 64.868ZM409.246 103.948C404.518 103.948 400.815 101.516 398.898 98.6951V81.5255C400.815 78.963 404.902 76.2725 409.246 76.2725C417.42 76.2725 423.679 81.3975 423.679 90.1103C423.679 98.8231 417.421 103.948 409.246 103.948ZM380.251 85.7559V114.455H367.987V87.1638C367.987 79.2216 365.432 76.0165 358.539 76.0165C354.836 76.0165 351.003 77.939 348.572 80.7588V114.329H336.313V66.1518H346.017C347.039 66.1518 347.806 67.0491 347.806 67.9463V69.9968C351.383 66.2798 356.108 64.8692 360.833 64.8692C366.199 64.8692 370.671 66.409 374.247 69.4835C378.588 73.0713 380.251 77.6831 380.251 85.7559ZM306.546 64.868C298.118 64.868 294.157 69.9955 294.157 69.9955V42.9612H281.895V114.327H292.24C293.263 114.327 294.029 113.43 294.029 112.533V110.356C294.029 110.356 297.99 115.609 306.419 115.609C320.343 115.609 331.2 104.849 331.2 90.2422C331.327 75.6338 320.471 64.868 306.546 64.868ZM304.502 103.948C299.777 103.948 296.074 101.516 294.157 98.6951V81.5255C296.074 78.963 300.161 76.2725 304.502 76.2725C312.679 76.2725 318.937 81.3975 318.937 90.1103C318.937 98.8231 312.679 103.948 304.502 103.948ZM271.293 64.868C274.996 64.868 276.912 65.5105 276.912 65.5105V76.9125C276.912 76.9125 266.694 73.4527 260.308 80.7575V114.454H248.044V66.1505H258.392C259.414 66.1505 260.178 67.0478 260.178 67.945V69.9955C262.48 67.3037 267.462 64.868 271.293 64.868ZM143.944 109.97C143.306 108.433 142.666 106.768 142.028 105.357C141.005 103.052 139.983 100.872 139.091 98.8231L138.963 98.6951C130.148 79.475 120.698 60.0015 110.733 40.784L110.35 40.0134C109.302 38.0198 108.281 36.0122 107.287 33.9911C106.008 31.6833 104.732 29.2514 102.688 26.9436C98.6004 21.8186 92.7242 18.9988 86.4664 18.9988C80.0785 18.9988 74.3312 21.8186 70.1176 26.6863C68.201 28.9916 66.7948 31.4261 65.5187 33.7339C64.5218 35.7537 63.5005 37.7612 62.4549 39.7561L62.0708 40.5267C52.235 59.7442 42.6557 79.219 33.842 98.4379L33.7131 98.6926C32.8199 100.746 31.7964 102.923 30.7743 105.227C30.1363 106.637 29.4983 108.175 28.8602 109.84C27.1988 114.58 26.6871 119.065 27.3277 123.679C28.7326 133.289 35.118 141.358 43.933 144.948C47.2545 146.359 50.7037 146.999 54.2792 146.999C55.3013 146.999 56.5774 146.871 57.6008 146.742C61.8169 146.23 66.1593 144.822 70.3754 142.387C75.6123 139.439 80.594 135.213 86.2138 129.063C91.8335 135.213 96.9429 139.439 102.052 142.387C106.27 144.822 110.611 146.23 114.825 146.742C115.848 146.872 117.126 146.999 118.148 146.999C121.725 146.999 125.301 146.359 128.493 144.948C137.436 141.358 143.694 133.161 145.1 123.679C146.114 119.195 145.604 114.713 143.944 109.97ZM86.3376 116.633C79.4392 107.92 74.9679 99.7204 73.4366 92.8034C72.7986 89.8556 72.6697 87.2931 73.0538 84.9866C73.3078 82.9361 74.0759 81.1415 75.0981 79.6043C77.5251 76.1471 81.6123 73.9673 86.3389 73.9673C91.0666 73.9673 95.2814 76.0178 97.5809 79.6043C98.603 81.1415 99.3686 82.9374 99.6264 84.9866C100.008 87.2944 99.8803 89.9836 99.2423 92.8034C97.7047 99.5924 93.2334 107.793 86.3376 116.633ZM137.301 122.655C136.407 129.317 131.936 135.085 125.678 137.647C122.613 138.927 119.29 139.313 115.971 138.927C112.779 138.542 109.583 137.517 106.264 135.597C101.666 133.032 97.0679 129.062 91.7021 123.167C100.132 112.79 105.241 103.307 107.158 94.8526C108.052 90.8796 108.181 87.2931 107.796 83.9601C107.287 80.7576 106.136 77.8098 104.348 75.2473C100.386 69.4797 93.7425 66.1505 86.3363 66.1505C78.9301 66.1505 72.2869 69.6103 68.3273 75.2473C66.5396 77.8098 65.3886 80.7576 64.8781 83.9601C64.3677 87.2931 64.494 91.0076 65.5162 94.8526C67.4315 103.307 72.6685 112.917 80.9705 123.295C75.7336 129.189 71.007 133.162 66.4081 135.725C63.0866 137.647 59.8952 138.673 56.7025 139.055C53.2546 139.441 49.9317 138.927 46.9943 137.775C40.7365 135.213 36.2652 129.445 35.372 122.783C34.9891 119.58 35.2431 116.378 36.5217 112.79C36.9032 111.508 37.5438 110.228 38.1818 108.69C39.0763 106.64 40.0959 104.46 41.1193 102.283L41.2482 102.028C50.0606 82.9361 59.5124 63.4613 69.3482 44.4997L69.731 43.7292C70.7544 41.8092 71.7765 39.7587 72.7974 37.8362C73.8195 35.7857 74.9679 33.8631 76.3741 32.1966C79.0564 29.1247 82.6319 27.4569 86.5928 27.4569C90.5536 27.4569 94.1292 29.1247 96.8114 32.1966C98.2176 33.867 99.3661 35.7895 100.388 37.8362C101.412 39.7587 102.434 41.8092 103.453 43.7292L103.837 44.4997C113.523 63.54 122.849 82.7623 131.811 102.156V102.284C132.834 104.337 133.728 106.641 134.75 108.694C135.388 110.229 136.027 111.509 136.41 112.792C137.429 116.119 137.812 119.324 137.301 122.655Z" fill="#D3D3D3"/>
</g>
<defs>
<clipPath id="clip0_35_54">
<rect width="409" height="128" fill="white" transform="translate(27 19)"/>
</clipPath>
</defs>
</svg>
