<svg width="557" height="160" viewBox="0 0 557 160" fill="none" xmlns="http://www.w3.org/2000/svg">
<g clip-path="url(#clip0_35_59)">
<path d="M54.2503 52.417C55.7319 54.7047 56.3852 56.7441 57.2125 61.0484C63.0059 55.3934 70.15 52.417 77.9475 52.417C84.9894 52.417 90.7695 54.7047 95.2409 59.3719C96.4464 60.5421 97.6079 62.0513 98.61 63.5329C106.392 55.5616 113.362 52.417 122.699 52.417C129.349 52.417 135.652 54.4057 139.499 57.7165C144.305 61.8699 145.83 66.8638 145.83 78.4888V138.974H124.224V82.8217C124.224 72.6429 123.019 70.6751 117.225 70.6751C113.072 70.6751 107.236 73.5073 102.443 77.8269V138.972H81.3596V83.6203C81.3596 73.0078 79.8217 70.5146 73.6356 70.5146C69.5263 70.5146 63.8341 72.6448 59.0427 76.9853V138.973H37.2913V79.6418C37.2913 67.3576 36.4488 62.0513 34.1113 57.877L54.2503 52.417ZM185.34 77.3196C183.815 81.8207 183.003 87.7956 183.003 96.2761C183.003 106.055 184.004 113.403 185.819 117.707C187.822 122.361 192.833 124.684 197.115 124.684C206.758 124.684 210.881 116.053 210.881 95.9494C210.881 84.4771 209.385 76.9853 206.409 73.153C204.273 70.3503 200.804 68.6806 196.796 68.6806C191.467 68.6806 187.14 71.9914 185.34 77.3196ZM225.371 65.0355C232.167 73.0068 235.202 82.3069 235.202 96.0946C235.202 110.716 231.848 120.705 224.515 128.997C218.068 136.301 209.574 140.803 196.476 140.803C173.346 140.803 158.26 123.515 158.26 96.7766C158.26 70.0141 173.505 52.2278 196.476 52.2278C208.601 52.2278 218.067 56.3964 225.371 65.0355ZM306.815 53.8985V69.1869L269.238 123.515H308.283L302.952 138.973H240.344V125.186L280.347 69.5231H243.683V53.8985H306.816H306.815ZM341.855 51.8944V138.973H319.594V55.3934L341.855 51.8944ZM344.467 30.4764C344.467 38.1306 338.383 44.2421 330.688 44.2421C323.238 44.2421 317.112 38.1306 317.112 30.4774C317.112 22.8394 323.443 16.6744 331.064 16.6744C338.529 16.6744 344.467 22.8394 344.467 30.4774V30.4764ZM382.395 38.1306V104.415C382.395 119.058 382.569 121.026 383.905 123.349C384.747 124.858 386.547 125.673 388.407 125.673C389.204 125.673 389.684 125.673 390.888 125.367L394.693 138.645C390.888 140.133 386.228 140.963 381.409 140.963C371.911 140.963 364.274 136.489 361.63 129.359C359.96 125.033 359.597 122.361 359.597 110.238V46.7391C359.597 35.6165 359.308 28.821 358.479 21.1477L381.248 16C382.046 20.6472 382.395 26.1349 382.395 38.1306ZM428.568 38.1306V104.415C428.568 119.058 428.758 121.026 430.123 123.349C430.907 124.858 432.706 125.673 434.566 125.673C435.409 125.673 435.917 125.673 437.092 125.367L440.883 138.645C437.092 140.133 432.43 140.963 427.596 140.963C418.115 140.963 410.463 136.489 407.805 129.359C406.107 125.033 405.83 122.361 405.83 110.238V46.7391C405.83 35.6165 405.498 28.821 404.64 21.1477L427.377 16C428.293 20.6472 428.568 26.1349 428.568 38.1306ZM492.356 101.758C476.965 101.758 471.564 104.56 471.564 114.739C471.564 121.358 475.774 125.846 481.422 125.846C485.561 125.846 489.744 123.682 493.04 120.038L493.403 101.757L492.356 101.758ZM463.504 57.0632C471.782 53.5632 478.898 52.0826 486.737 52.0826C501.055 52.0826 510.842 57.3841 514.194 66.8638C515.299 70.3503 515.807 73.0068 515.706 82.1531L515.167 110.716V112.225C515.167 121.359 516.678 124.858 523.186 129.666L511.364 143.314C506.165 141.136 501.535 137.303 499.369 132.998C497.729 134.674 495.885 136.301 494.2 137.477C490.077 140.469 484.051 142.138 477.081 142.138C458.133 142.138 447.839 132.481 447.839 115.566C447.839 95.594 461.661 86.2787 488.726 86.2787C490.353 86.2787 491.892 86.2787 493.736 86.4669V82.9975C493.736 73.5083 491.892 70.3503 483.703 70.3503C476.646 70.3503 468.267 73.8197 459.148 79.9828L449.666 64.0267C454.182 61.1936 457.509 59.5467 463.504 57.0632Z" fill="#D3D3D3"/>
</g>
<defs>
<clipPath id="clip0_35_59">
<rect width="489.297" height="128" fill="white" transform="translate(34 16)"/>
</clipPath>
</defs>
</svg>
