<svg width="409" height="160" viewBox="0 0 409 160" fill="none" xmlns="http://www.w3.org/2000/svg">
<g clip-path="url(#clip0_35_56)">
<path d="M87.3467 95.1058H74.3727V61.4552H87.3467C97.0093 61.4552 104.881 69.0029 104.881 78.291C104.881 87.5581 97.0114 95.1058 87.3467 95.1058ZM130.57 66.7813C125.311 48.5962 107.952 35.1787 87.3488 35.1787H47V121.386H87.3467C97.5887 121.386 106.996 118.042 114.563 112.483C113.651 109.125 113.183 105.662 113.169 102.183V100.135C113.167 86.5017 120.025 74.4272 130.57 66.7813Z" fill="#D3D3D3"/>
<path d="M132.24 78.291C132.24 74.2975 131.629 70.4484 130.566 66.7812C120.029 74.4272 113.17 86.5038 113.17 100.131V102.181C113.17 105.741 113.685 109.182 114.559 112.485C125.29 104.603 132.24 92.2252 132.24 78.291Z" fill="#D3D3D3"/>
<path d="M172.916 102.185C172.916 110.749 165.647 117.715 156.725 117.715C147.801 117.715 140.542 110.749 140.542 102.185V100.137C140.542 91.5766 147.8 84.6063 156.727 84.6063C165.649 84.6063 172.916 91.5766 172.916 100.137V102.185ZM171.546 60.8485C171.28 60.7543 171.021 60.6539 170.74 60.566C170.665 60.5409 170.581 60.52 170.514 60.4907C170.318 60.428 170.123 60.361 169.929 60.3025C165.651 58.991 161.201 58.324 156.727 58.3235C147.335 58.3119 138.18 61.2724 130.574 66.7811C131.634 70.4482 132.241 74.3036 132.241 78.2908C132.241 92.2251 125.292 104.603 114.568 112.485C119.363 130.564 136.42 143.992 156.727 143.992C166.251 143.992 175.039 141.013 182.215 136.013C186.321 139.576 192.109 141.877 200.287 143.052V100.137C200.287 99.6032 200.22 99.0907 200.201 98.5678C200.201 98.5104 200.197 98.4531 200.19 98.3962V98.3293C200.19 98.2456 200.169 98.1619 200.169 98.0824C183.714 92.9844 171.732 78.2657 171.546 60.8485Z" fill="#D3D3D3"/>
<path d="M253.41 43.9835C253.42 43.9835 253.429 43.9689 253.439 43.9647C253.452 43.9521 253.466 43.9415 253.481 43.9333C253.663 43.8036 253.845 43.676 254.017 43.5421V16.0042H226.654V60.4406C226.654 67.7895 220.427 73.7493 212.781 73.7493C205.129 73.7493 198.911 67.7874 198.911 60.4406V16.0083H171.543V60.5619L171.547 60.838C187.634 66.4548 199.298 80.9079 200.175 98.0699L200.989 98.321C201.064 98.344 201.148 98.3628 201.231 98.3879C201.42 98.4444 201.608 98.5071 201.811 98.5552C205.304 99.4799 208.982 100.024 212.783 100.024C221.794 100.038 230.572 97.1583 237.823 91.8088C238.101 91.608 238.363 91.3925 238.639 91.1813V72.6197C238.637 60.9677 244.44 50.596 253.412 43.9814" fill="#D3D3D3"/>
<path d="M324.32 36.4799C315.6 36.4569 307.132 39.397 300.302 44.8182C293.475 39.3976 285.009 36.4575 276.291 36.4799C268.631 36.4674 261.141 38.7375 254.776 43.0004C254.521 43.1803 254.274 43.3664 254.013 43.5443V60.4365C254.013 72.6135 248.228 83.4914 239.193 90.7504C239.189 90.7588 239.183 90.7588 239.17 90.7629C238.997 90.9031 238.815 91.0453 238.633 91.1876V121.391H265.918V72.6281C265.918 67.1369 270.57 62.6874 276.291 62.6874C282.002 62.6874 286.661 67.1369 286.661 72.626V121.391H313.946V72.6281C313.946 67.1369 318.59 62.6874 324.32 62.6874C330.031 62.6874 334.689 67.1369 334.689 72.626V121.391H361.962V72.6281C361.962 52.7027 345.08 36.4799 324.32 36.4799Z" fill="#D3D3D3"/>
<path d="M239.195 90.7523C248.226 83.4934 254.017 72.6154 254.017 60.4405V43.5525C253.843 43.6822 253.655 43.8035 253.483 43.9353C253.464 43.9418 253.447 43.9552 253.437 43.973C253.425 43.973 253.416 43.9876 253.41 43.9939C244.44 50.6043 238.635 60.976 238.635 72.6364V91.1916C238.815 91.0515 238.995 90.9134 239.168 90.767C239.183 90.7607 239.187 90.7607 239.195 90.7523Z" fill="#D3D3D3"/>
<path d="M171.545 60.8486C171.733 78.2659 183.714 92.9846 200.162 98.0805C199.292 80.9185 187.638 66.4591 171.545 60.8486Z" fill="#D3D3D3"/>
</g>
<defs>
<clipPath id="clip0_35_56">
<rect width="314.961" height="128" fill="white" transform="translate(47 16)"/>
</clipPath>
</defs>
</svg>
