<svg width="460" height="160" viewBox="0 0 460 160" fill="none" xmlns="http://www.w3.org/2000/svg">
<g clip-path="url(#clip0_58_102)">
<path d="M100.74 78.1978H116.798V100.751C111.788 102.361 105.462 103.244 98.8855 103.244C72.234 103.244 56.5699 80.4213 56.5699 58.1319C56.5699 36.2708 70.7383 20.9365 90.5051 20.9365C103.013 20.9365 110.291 25.1739 116.803 31.0766V38.4349L129.012 26.2259C121.289 21.0012 110.107 16.0359 94.1244 16.0359C59.0377 16.0359 43 41.1375 43 61.7662C43 91.1293 64.387 108.818 91.2634 108.818C104.295 108.818 115.866 106.829 129.231 103.109V79.8081C129.231 78.6166 129.755 77.799 130.538 77.0811L134.755 72.8636H106.115L100.74 78.1978Z" fill="#D3D3D3"/>
<path d="M172.673 47.5481C152.478 47.5481 139.965 62.3051 139.965 77.969C139.965 91.4892 150.046 107.541 170.47 107.541C190.117 107.541 202.172 92.7556 202.172 76.8175C202.172 61.9712 190.391 47.5536 172.673 47.5536V47.5481ZM169.323 51.8505C183.561 51.8505 189.902 70.4009 189.902 83.6319C189.902 103.309 175.141 103.698 173.376 103.698C166.621 103.698 161.9 99.6153 158.365 94.2605C155.255 89.3256 152.214 80.1572 152.214 71.1986C152.214 62.2748 155.135 57.9176 159.732 54.7121C163.491 52.3091 167.01 51.8505 169.318 51.8505H169.323Z" fill="#D3D3D3"/>
<path d="M304.691 47.543C287.053 47.543 277.511 58.7102 277.511 71.1785C277.511 80.6705 284.311 91.379 298.339 91.379H301.889C301.889 91.379 300.922 93.7271 300.917 95.9954C300.917 99.341 302.118 101.22 304.67 104.111C280.531 105.582 270.83 115.318 270.83 125.783C270.83 134.946 279.605 143.965 298.045 143.965C319.876 143.965 331.182 131.845 331.182 119.95C331.182 111.565 327.005 106.969 316.426 99.0418C313.315 96.624 312.712 95.0841 312.712 93.2744C312.712 90.682 314.262 88.9665 314.83 88.3189C315.832 87.262 317.567 86.0556 318.215 85.4773C321.77 82.4662 326.79 78.0097 326.79 69.1154C326.79 63.0134 324.252 57.7639 318.47 52.8484H325.529L330.833 47.5441H304.691V47.543ZM299.826 51.5113C303.026 51.5113 305.698 52.643 308.52 54.9911C311.65 57.8128 316.651 65.3955 316.651 74.7778C316.651 84.903 308.784 87.6748 304.527 87.6748C302.443 87.6748 299.946 87.0916 297.832 85.6459C293.135 82.6003 288.474 74.4936 288.474 64.847C288.474 56.1426 293.658 51.5113 299.826 51.5113ZM306.81 107.955C308.156 107.955 309.123 108.065 309.123 108.065C309.123 108.065 312.299 110.334 314.517 112.028C319.682 116.111 322.902 119.232 322.902 124.791C322.902 132.434 315.813 138.426 304.332 138.426C291.729 138.426 282.097 132.558 282.097 122.977C282.097 115.04 288.698 108.209 306.81 107.955Z" fill="#D3D3D3"/>
<path d="M334.652 105.792H358.865L362.554 102.103L355.609 101.236C353.74 101.006 352.628 99.391 352.628 97.8256V24.686C352.628 23.2453 353.297 22.5074 353.785 22.0383L358.152 17.6711H337.503L332.129 23.0453H340.155V98.8072C340.155 99.8841 339.816 100.617 339.088 101.37L334.652 105.792Z" fill="#D3D3D3"/>
<path d="M391.674 47.5481C378.154 47.5481 363.791 57.8528 363.791 76.3533C363.791 91.6328 374.096 107.541 393.349 107.541C398.15 107.541 402.103 106.924 405.807 105.224C409.781 103.394 413.604 100.423 416.396 96.6889C411.127 99.3461 406.829 101.091 401.121 101.091C390.272 101.091 379.813 93.264 376.154 78.8764L414.476 63.387C412.263 55.4952 406.021 47.5481 391.679 47.5481H391.674ZM389.171 51.7806C396.425 51.7806 401.669 57.7481 401.669 62.4193C401.669 63.9299 400.722 64.7276 398.847 65.4654L375.292 74.9923C375.292 74.9923 374.654 72.0261 374.654 68.8205C374.654 55.3751 384.375 51.7806 389.171 51.7806Z" fill="#D3D3D3"/>
<path d="M241.201 47.5481C221.005 47.5481 208.492 62.3051 208.492 77.969C208.492 91.4892 218.573 107.541 238.997 107.541C258.644 107.541 270.699 92.7556 270.699 76.8175C270.699 61.9712 258.919 47.5536 241.201 47.5536V47.5481ZM237.85 51.8505C252.089 51.8505 258.43 70.4009 258.43 83.6319C258.43 103.309 243.668 103.698 241.903 103.698C235.148 103.698 230.427 99.6153 226.893 94.2605C223.782 89.3256 220.741 80.1572 220.741 71.1986C220.741 62.2748 223.662 57.9176 228.259 54.7121C232.018 52.3091 235.538 51.8505 237.845 51.8505H237.85Z" fill="#D3D3D3"/>
</g>
<defs>
<clipPath id="clip0_58_102">
<rect width="373.396" height="128" fill="white" transform="translate(43 16)"/>
</clipPath>
</defs>
</svg>
