<svg width="782" height="160" viewBox="0 0 782 160" fill="none" xmlns="http://www.w3.org/2000/svg">
<path d="M35.1992 16.4398H85.3776C85.3776 16.4398 130.958 85.3056 132.315 87.1563C133.675 89.003 133.843 87.1563 133.843 87.1563C131.742 76.4918 129.462 71.7059 129.462 54.6766V16.4398H179.449V144H129.463C129.463 144 84.8162 78.8083 83.464 77.0068C82.1214 75.2066 81.9452 77.0068 81.9452 77.0068C83.6621 85.8096 85.1863 87.282 85.1863 102.552V144H35.1992V16.4398ZM258.251 97.8085L265.06 71.919C266.536 66.6892 267.548 59.1429 267.548 59.1429C267.76 57.9901 269.357 57.9901 269.637 59.1989C269.959 60.984 270.765 66.401 272.284 71.807L279.24 97.8085H258.251ZM248.895 128.097H288.407L293.171 144H348.496L297.177 16.4398H239.364L189.371 144H244.702L248.895 128.097ZM480.185 16.4398L424.473 144H380.202L324.492 16.4398H379.064L398.143 74.469C400.232 80.7287 401.763 94.4732 401.763 94.4732C402.121 95.5576 403.407 95.477 403.609 94.4732C403.609 94.4732 405.138 80.7287 407.238 74.469L425.613 16.4398H480.185ZM491.058 16.4398H587.807V51.2934H543.723V63.4658H583.988V96.6298H543.723V109.146H589.337V144H491.062V16.4398H491.058ZM661.746 50.8536H665.767C674.727 50.8536 682.551 52.0337 682.551 61.85C682.551 71.318 673.956 72.5022 665.375 72.5022H661.746V50.8536ZM610.614 143.56H661.747V102.616C661.747 102.616 662.075 101.166 663.055 102.616L685.612 143.56H745.91L714.606 102.104C711.74 98.3904 706.906 95.2093 705.834 94.5018C704.763 93.7834 705.834 93.4775 705.834 93.4775C725.306 87.7286 733.7 79.6182 733.7 60.323C733.7 28.1806 706.201 16 673.769 16H610.614V143.56Z" fill="#D3D3D3"/>
</svg>
