<svg width="100" height="100" viewBox="0 0 100 100" fill="none" xmlns="http://www.w3.org/2000/svg">
<path d="M81.75 83.739C82.91 85.6857 84.15 87.5757 85.47 89.409C86.0167 90.1691 86.29 90.839 86.29 91.419C86.2967 92.5657 85.6167 93.0224 84.25 92.789C83.9358 92.7382 83.6458 92.5591 83.44 92.289L77.3 84.099C77.1979 83.9625 77.073 83.8514 76.9357 83.7749C76.7984 83.6985 76.6525 83.6587 76.51 83.659H61.12C60.9775 83.6587 60.8316 83.6985 60.6943 83.7749C60.557 83.8514 60.4322 83.9625 60.33 84.099L54.19 92.289C53.9842 92.5591 53.6942 92.7382 53.38 92.789C51.9733 93.029 51.2933 92.5424 51.34 91.329C51.36 90.7757 51.6 90.1457 52.06 89.439C53.1867 87.7124 54.3933 86.0224 55.68 84.369C56.14 83.7824 55.9867 83.4824 55.22 83.469L47.44 83.329C46.2667 83.3091 45.6733 82.6324 45.66 81.299L45.53 68.939C45.53 68.8038 45.4752 68.6741 45.3777 68.5784C45.2802 68.4828 45.1479 68.429 45.01 68.429L10.73 68.259C10.2703 68.2564 9.83032 68.0751 9.50617 67.7547C9.18202 67.4343 9.00005 67.0008 9 66.549V24.089C9 22.6957 9.7 21.999 11.1 21.999H27.19C27.5301 21.9992 27.846 21.8771 28.07 21.659L36.08 13.979C36.5429 13.5359 36.8251 12.9001 36.87 12.199C36.9833 10.6257 37.43 9.48238 38.21 8.76905C39.0633 7.98905 40.11 7.80238 41.35 8.20904C42.9833 8.74238 43.7533 10.289 43.66 12.849C43.654 12.9971 43.6811 13.1467 43.7397 13.288C43.7983 13.4293 43.887 13.5591 44 13.669L52.2 21.629C52.444 21.8663 52.7598 21.9991 53.08 21.999H69.58C70.9467 21.999 71.63 22.669 71.63 24.009L71.68 36.199C71.6826 36.3458 71.7417 36.4857 71.8446 36.5885C71.9474 36.6914 72.0858 36.749 72.23 36.749H89.76C91.2133 36.749 91.94 37.4757 91.94 38.929L91.88 81.379C91.88 82.799 91.2 83.499 89.84 83.479L82 83.349C81.68 83.3424 81.5967 83.4724 81.75 83.739ZM41.8087 11.018C41.772 10.8379 41.6962 10.6675 41.5855 10.5167C41.4748 10.3659 41.3315 10.2376 41.1636 10.1391C40.9957 10.0405 40.8067 9.97377 40.6072 9.94255C40.4077 9.91134 40.2017 9.9163 40.0009 9.95714C39.8002 9.99798 39.6086 10.0739 39.4371 10.1806C39.2657 10.2873 39.1177 10.4226 39.0017 10.5789C38.8857 10.7351 38.8038 10.9093 38.7609 11.0914C38.7179 11.2734 38.7146 11.4599 38.7513 11.64C38.788 11.8202 38.8638 11.9906 38.9745 12.1414C39.0852 12.2922 39.2285 12.4205 39.3964 12.519C39.5643 12.6176 39.7534 12.6843 39.9528 12.7155C40.1523 12.7467 40.3583 12.7418 40.5591 12.7009C40.7598 12.6601 40.9514 12.5842 41.1229 12.4775C41.2943 12.3708 41.4423 12.2355 41.5583 12.0792C41.6743 11.9229 41.7562 11.7488 41.7991 11.5667C41.8421 11.3846 41.8454 11.1982 41.8087 11.018ZM49.07 21.289L42.51 14.889C42.4157 14.7975 42.2889 14.7245 42.1374 14.6746C41.986 14.6247 41.8133 14.599 41.63 14.599L38.93 14.549C38.7558 14.546 38.5899 14.5692 38.4421 14.6173C38.2944 14.6654 38.1678 14.7374 38.07 14.829L31.15 21.409C30.73 21.8024 30.81 21.999 31.39 21.999L48.79 21.939C49.4233 21.939 49.5167 21.7224 49.07 21.289ZM16.75 60.189L16.69 30.119C16.69 29.8883 16.7827 29.667 16.9477 29.5039C17.1128 29.3407 17.3366 29.249 17.57 29.249H62.93C63.274 29.2493 63.6042 29.3942 63.8493 29.6524C64.0944 29.9107 64.2348 30.2614 64.24 30.629L64.32 36.059C64.3221 36.2156 64.3804 36.3651 64.4828 36.4768C64.5852 36.5885 64.7238 36.6538 64.87 36.659L67.38 36.749C67.4464 36.7504 67.5124 36.7369 67.5742 36.7093C67.6359 36.6818 67.6922 36.6408 67.7397 36.5886C67.7872 36.5365 67.8249 36.4743 67.8507 36.4057C67.8765 36.3371 67.8899 36.2634 67.89 36.189L67.94 25.999C67.94 25.8664 67.8873 25.7393 67.7936 25.6455C67.6998 25.5517 67.5726 25.499 67.44 25.499H13.13C12.9947 25.499 12.865 25.5528 12.7694 25.6484C12.6737 25.7441 12.62 25.8738 12.62 26.009L12.63 64.229C12.63 64.367 12.6837 64.4992 12.7794 64.5967C12.875 64.6943 13.0047 64.749 13.14 64.749L45.13 64.689C45.2104 64.6892 45.2904 64.676 45.3646 64.6504C45.4389 64.6247 45.5059 64.5872 45.5614 64.5402C45.6169 64.4932 45.6597 64.4377 45.687 64.3772C45.7143 64.3167 45.7255 64.2527 45.72 64.189L45.63 63.449C45.5767 62.9424 45.5633 62.6324 45.59 62.519C45.87 61.3057 45.1533 60.799 43.44 60.999C40.18 61.379 31.4533 61.2824 17.26 60.709C17.123 60.7039 16.9933 60.6468 16.8982 60.5499C16.8031 60.4529 16.75 60.3236 16.75 60.189ZM62.25 36.299L62.06 31.689C62.0548 31.5518 61.9936 31.4219 61.8891 31.3268C61.7846 31.2316 61.6451 31.1787 61.5 31.179L18.98 31.059C18.8385 31.0592 18.7026 31.119 18.6016 31.2256C18.5007 31.3322 18.4426 31.4771 18.44 31.629L18.39 58.199C18.39 58.4616 18.4901 58.7134 18.6682 58.8991C18.8464 59.0847 19.088 59.189 19.34 59.189L44.84 59.249C45.0654 59.249 45.2816 59.1595 45.441 59.0001C45.6004 58.8407 45.69 58.6245 45.69 58.399V38.659C45.69 37.3857 46.3267 36.749 47.6 36.749H61.79C61.8521 36.7489 61.9136 36.7371 61.9708 36.7141C62.028 36.6912 62.0796 36.6577 62.1226 36.6157C62.1656 36.5736 62.199 36.5239 62.2209 36.4695C62.2428 36.415 62.2527 36.3571 62.25 36.299ZM88.226 40.5949C88.2258 40.4942 88.1856 40.3976 88.1142 40.3265C88.0429 40.2554 87.9462 40.2155 87.8454 40.2156L49.5454 40.2825C49.4446 40.2827 49.3481 40.3229 49.2769 40.3943C49.2058 40.4657 49.1659 40.5624 49.1661 40.6631L49.234 79.5631C49.2342 79.6639 49.2744 79.7605 49.3458 79.8316C49.4171 79.9027 49.5138 79.9426 49.6146 79.9424L87.9146 79.8755C88.0154 79.8754 88.1119 79.8352 88.1831 79.7638C88.2542 79.6924 88.2941 79.5957 88.2939 79.4949L88.226 40.5949Z" fill="white"/>
<path d="M40.5591 12.7008C41.4033 12.5291 41.9628 11.7756 41.8086 11.0179C41.6545 10.2603 40.8451 9.78528 40.0009 9.95705C39.1566 10.1288 38.5971 10.8823 38.7513 11.64C38.9054 12.3976 39.7148 12.8726 40.5591 12.7008Z" fill="#646567"/>
<path d="M49.0699 21.2891C49.5165 21.7224 49.4232 21.9391 48.7899 21.9391L31.3899 21.9991C30.8099 21.9991 30.7299 21.8024 31.1499 21.4091L38.0699 14.8291C38.1677 14.7375 38.2942 14.6655 38.442 14.6174C38.5897 14.5693 38.7556 14.546 38.9299 14.5491L41.6299 14.5991C41.8131 14.599 41.9859 14.6247 42.1373 14.6746C42.2887 14.7245 42.4155 14.7975 42.5099 14.8891L49.0699 21.2891Z" fill="#3D4047"/>
<path d="M17.2601 60.709C31.4534 61.2824 40.1801 61.379 43.4401 60.999C45.1535 60.799 45.8701 61.3057 45.5901 62.519C45.5634 62.6324 45.5768 62.9424 45.6301 63.449L45.7201 64.189C45.7256 64.2527 45.7144 64.3167 45.6871 64.3772C45.6598 64.4376 45.617 64.4931 45.5615 64.5402C45.506 64.5872 45.439 64.6247 45.3647 64.6504C45.2905 64.676 45.2106 64.6891 45.1301 64.689L13.1401 64.749C13.0049 64.749 12.8751 64.6942 12.7795 64.5967C12.6838 64.4992 12.6301 64.3669 12.6301 64.229L12.6201 26.009C12.6201 25.8738 12.6738 25.744 12.7695 25.6484C12.8651 25.5528 12.9949 25.499 13.1301 25.499H67.4401C67.5727 25.499 67.6999 25.5517 67.7937 25.6455C67.8874 25.7392 67.9401 25.8664 67.9401 25.999L67.8901 36.189C67.89 36.2634 67.8766 36.3371 67.8508 36.4057C67.825 36.4743 67.7873 36.5365 67.7398 36.5886C67.6923 36.6407 67.6361 36.6818 67.5743 36.7093C67.5125 36.7369 67.4465 36.7504 67.3801 36.749L64.8701 36.659C64.7239 36.6537 64.5853 36.5885 64.4829 36.4768C64.3806 36.3651 64.3223 36.2155 64.3201 36.059L64.2401 30.629C64.2349 30.2614 64.0946 29.9106 63.8494 29.6524C63.6043 29.3942 63.2741 29.2493 62.9301 29.249H17.5701C17.3367 29.249 17.1129 29.3407 16.9479 29.5038C16.7828 29.667 16.6901 29.8883 16.6901 30.119L16.7501 60.189C16.7501 60.3235 16.8032 60.4529 16.8983 60.5498C16.9934 60.6468 17.1231 60.7038 17.2601 60.709Z" fill="#3D4047"/>
<path d="M62.2501 36.2991C62.2528 36.3571 62.243 36.4151 62.2211 36.4695C62.1992 36.5239 62.1657 36.5736 62.1227 36.6157C62.0797 36.6577 62.0281 36.6913 61.9709 36.7142C61.9138 36.7371 61.8523 36.749 61.7901 36.7491H47.6001C46.3268 36.7491 45.6901 37.3857 45.6901 38.6591V58.3991C45.6901 58.5107 45.6682 58.6212 45.6254 58.7244C45.5827 58.8275 45.5201 58.9212 45.4412 59.0001C45.3622 59.079 45.2685 59.1417 45.1654 59.1844C45.0623 59.2271 44.9518 59.2491 44.8401 59.2491L19.3401 59.1891C19.0882 59.1891 18.8465 59.0848 18.6684 58.8991C18.4902 58.7135 18.3901 58.4616 18.3901 58.1991L18.4401 31.6291C18.4428 31.4771 18.5008 31.3323 18.6018 31.2257C18.7028 31.1191 18.8386 31.0592 18.9801 31.0591C35.5852 31.1059 44.895 31.1322 61.5001 31.1791C61.6453 31.1787 61.7848 31.2317 61.8892 31.3268C61.9937 31.4219 62.055 31.5518 62.0601 31.6891L62.2501 36.2991Z" fill="#3D4047"/>
<path d="M88.2938 79.4949C88.294 79.5956 88.2541 79.6923 88.183 79.7637C88.1118 79.8351 88.0153 79.8753 87.9145 79.8755L49.6145 79.9424C49.5137 79.9425 49.417 79.9027 49.3457 79.8315C49.2743 79.7604 49.2341 79.6638 49.2339 79.5631L49.166 40.6631C49.1659 40.5623 49.2057 40.4656 49.2769 40.3942C49.348 40.3229 49.4446 40.2827 49.5453 40.2825L87.8453 40.2156C87.9461 40.2154 88.0428 40.2553 88.1142 40.3264C88.1855 40.3975 88.2257 40.4941 88.2259 40.5949L88.2938 79.4949ZM82.4237 48.219C82.4234 48.1218 82.4039 48.0256 82.3664 47.936C82.3289 47.8463 82.2741 47.7649 82.2052 47.6964C82.1362 47.6279 82.0544 47.5737 81.9645 47.5368C81.8746 47.4999 81.7783 47.4811 81.6811 47.4815L71.6612 47.5165C71.564 47.5168 71.4679 47.5363 71.3782 47.5738C71.2885 47.6113 71.2071 47.6661 71.1387 47.735C71.0702 47.804 71.0159 47.8858 70.9791 47.9757C70.9422 48.0656 70.9234 48.1619 70.9237 48.2591L70.9561 57.539C70.9564 57.6362 70.9759 57.7323 71.0134 57.822C71.0509 57.9117 71.1057 57.9931 71.1747 58.0615C71.2436 58.13 71.3254 58.1843 71.4153 58.2211C71.5052 58.258 71.6015 58.2768 71.6987 58.2765L81.7186 58.2415C81.8158 58.2411 81.912 58.2217 82.0016 58.1842C82.0913 58.1467 82.1727 58.0919 82.2412 58.0229C82.3097 57.954 82.3639 57.8722 82.4008 57.7823C82.4377 57.6924 82.4565 57.5961 82.4561 57.4989L82.4237 48.219ZM66.2399 57.489C66.2399 55.9772 65.6394 54.5274 64.5704 53.4585C63.5015 52.3895 62.0516 51.789 60.5399 51.789C59.0282 51.789 57.5784 52.3895 56.5094 53.4585C55.4404 54.5274 54.8399 55.9772 54.8399 57.489C54.8399 59.0007 55.4404 60.4505 56.5094 61.5195C57.5784 62.5884 59.0282 63.189 60.5399 63.189C62.0516 63.189 63.5015 62.5884 64.5704 61.5195C65.6394 60.4505 66.2399 59.0007 66.2399 57.489ZM69.9499 62.489L63.9899 71.169C63.1499 72.389 63.4766 72.9956 64.9699 72.989L77.1999 72.939C78.3466 72.939 78.5966 72.4623 77.9499 71.509L71.8499 62.519C71.7442 62.3626 71.6023 62.2338 71.4366 62.1437C71.2708 62.0536 71.0864 62.005 70.8991 62.002C70.7119 61.9991 70.5275 62.0419 70.3621 62.1267C70.1967 62.2116 70.0552 62.336 69.9499 62.489Z" fill="#3D4047"/>
<path d="M82.4562 57.4989C82.4566 57.596 82.4378 57.6923 82.4009 57.7823C82.364 57.8722 82.3098 57.9539 82.2413 58.0229C82.1728 58.0919 82.0914 58.1467 82.0018 58.1842C81.9121 58.2217 81.8159 58.2411 81.7187 58.2415L71.6988 58.2764C71.6016 58.2768 71.5053 58.258 71.4154 58.2211C71.3255 58.1842 71.2437 58.13 71.1748 58.0615C71.1058 57.993 71.051 57.9116 71.0135 57.822C70.976 57.7323 70.9566 57.6361 70.9562 57.539L70.9238 48.2591C70.9235 48.1619 70.9423 48.0656 70.9792 47.9756C71.016 47.8857 71.0703 47.804 71.1388 47.735C71.2073 47.666 71.2886 47.6112 71.3783 47.5737C71.468 47.5362 71.5641 47.5168 71.6613 47.5165L81.6812 47.4814C81.7784 47.4811 81.8747 47.4999 81.9646 47.5368C82.0546 47.5737 82.1363 47.6279 82.2053 47.6964C82.2742 47.7649 82.329 47.8463 82.3665 47.9359C82.404 48.0256 82.4235 48.1218 82.4238 48.219L82.4562 57.4989ZM80.4341 49.5125C80.4341 49.477 80.427 49.4419 80.4134 49.4092C80.3998 49.3764 80.3799 49.3467 80.3548 49.3216C80.3297 49.2966 80.2999 49.2768 80.2671 49.2632C80.2343 49.2497 80.1992 49.2428 80.1637 49.2429L73.2037 49.2551C73.1683 49.2551 73.1332 49.2621 73.1004 49.2758C73.0677 49.2894 73.0379 49.3093 73.0129 49.3345C72.9879 49.3596 72.968 49.3894 72.9545 49.4222C72.941 49.455 72.9341 49.4901 72.9341 49.5256L72.9459 56.2455C72.946 56.2809 72.953 56.316 72.9666 56.3487C72.9803 56.3815 73.0002 56.4112 73.0253 56.4363C73.0504 56.4613 73.0802 56.4811 73.113 56.4947C73.1458 56.5082 73.1809 56.5151 73.2163 56.5151L80.1763 56.5029C80.2118 56.5028 80.2469 56.4958 80.2796 56.4821C80.3124 56.4685 80.3421 56.4486 80.3672 56.4235C80.3922 56.3983 80.412 56.3685 80.4256 56.3357C80.4391 56.3029 80.446 56.2678 80.4459 56.2324L80.4341 49.5125Z" fill="#EC5242"/>
<path d="M80.1636 49.243L73.2036 49.2551C73.0545 49.2554 72.9338 49.3765 72.9341 49.5256L72.9458 56.2456C72.9461 56.3947 73.0671 56.5154 73.2163 56.5151L80.1763 56.503C80.3254 56.5027 80.446 56.3816 80.4458 56.2325L80.4341 49.5125C80.4338 49.3634 80.3127 49.2427 80.1636 49.243Z" fill="#EC5242"/>
<path d="M66.2398 57.4891C66.2398 59.0008 65.6393 60.4506 64.5704 61.5196C63.5014 62.5885 62.0516 63.1891 60.5398 63.1891C59.0281 63.1891 57.5783 62.5885 56.5093 61.5196C55.4404 60.4506 54.8398 59.0008 54.8398 57.4891C54.8398 55.9773 55.4404 54.5275 56.5093 53.4586C57.5783 52.3896 59.0281 51.7891 60.5398 51.7891C62.0516 51.7891 63.5014 52.3896 64.5704 53.4586C65.6393 54.5275 66.2398 55.9773 66.2398 57.4891ZM64.3498 57.4791C64.3498 56.4686 63.9484 55.4995 63.2339 54.785C62.5194 54.0705 61.5503 53.6691 60.5398 53.6691C59.5294 53.6691 58.5603 54.0705 57.8458 54.785C57.1313 55.4995 56.7298 56.4686 56.7298 57.4791C56.7298 58.4895 57.1313 59.4586 57.8458 60.1731C58.5603 60.8877 59.5294 61.2891 60.5398 61.2891C61.0402 61.2891 61.5356 61.1905 61.9979 60.999C62.4601 60.8076 62.8801 60.5269 63.2339 60.1731C63.5877 59.8194 63.8684 59.3993 64.0598 58.9371C64.2513 58.4748 64.3498 57.9794 64.3498 57.4791Z" fill="white"/>
<path d="M60.54 61.2889C62.6442 61.2889 64.35 59.5832 64.35 57.479C64.35 55.3747 62.6442 53.6689 60.54 53.6689C58.4358 53.6689 56.73 55.3747 56.73 57.479C56.73 59.5832 58.4358 61.2889 60.54 61.2889Z" fill="#FAFAFA"/>
<path d="M69.9497 62.489C70.055 62.336 70.1965 62.2117 70.3619 62.1268C70.5273 62.042 70.7117 61.9991 70.8989 62.0021C71.0862 62.0051 71.2707 62.0537 71.4364 62.1438C71.6021 62.2339 71.744 62.3627 71.8497 62.519L77.9497 71.509C78.5964 72.4624 78.3464 72.939 77.1997 72.939L64.9697 72.989C63.4764 72.9957 63.1497 72.389 63.9897 71.169L69.9497 62.489ZM70.5197 64.839L66.5597 70.729C66.3264 71.0757 66.4164 71.249 66.8297 71.249H74.6497C75.1297 71.249 75.2397 71.0557 74.9797 70.669L71.1197 64.819C71.088 64.7706 71.0443 64.7315 70.9926 64.7051C70.9409 64.6787 70.8827 64.666 70.8233 64.668C70.7639 64.6699 70.7051 64.6866 70.6521 64.7164C70.5991 64.7463 70.5537 64.7884 70.5197 64.839Z" fill="#EC5242"/>
<path d="M70.5199 64.839C70.5538 64.7884 70.5993 64.7463 70.6523 64.7164C70.7052 64.6866 70.7641 64.6699 70.8235 64.6679C70.8829 64.6659 70.941 64.6787 70.9928 64.7051C71.0445 64.7314 71.0882 64.7706 71.1199 64.819L74.9799 70.669C75.2399 71.0557 75.1299 71.249 74.6499 71.249H66.8299C66.4165 71.249 66.3266 71.0757 66.5599 70.729L70.5199 64.839Z" fill="#EC5242"/>
</svg>
