<svg width="128" height="128" viewBox="0 0 128 128" fill="none" xmlns="http://www.w3.org/2000/svg">
<path d="M95.75 97.739C96.91 99.6857 98.15 101.576 99.47 103.409C100.017 104.169 100.29 104.839 100.29 105.419C100.297 106.566 99.6167 107.022 98.25 106.789C97.9358 106.738 97.6458 106.559 97.44 106.289L91.3 98.099C91.1979 97.9625 91.073 97.8514 90.9357 97.7749C90.7984 97.6985 90.6525 97.6587 90.51 97.659H75.12C74.9775 97.6587 74.8316 97.6985 74.6943 97.7749C74.557 97.8514 74.4322 97.9625 74.33 98.099L68.19 106.289C67.9842 106.559 67.6942 106.738 67.38 106.789C65.9733 107.029 65.2933 106.542 65.34 105.329C65.36 104.776 65.6 104.146 66.06 103.439C67.1867 101.712 68.3933 100.022 69.68 98.369C70.14 97.7824 69.9867 97.4824 69.22 97.469L61.44 97.329C60.2667 97.309 59.6733 96.6324 59.66 95.299L59.53 82.939C59.53 82.8038 59.4752 82.6741 59.3777 82.5784C59.2802 82.4828 59.1479 82.429 59.01 82.429L24.73 82.259C24.2703 82.2564 23.8303 82.0751 23.5062 81.7547C23.182 81.4343 23 81.0008 23 80.549V38.089C23 36.6957 23.7 35.999 25.1 35.999H41.19C41.5301 35.9992 41.846 35.8771 42.07 35.659L50.08 27.979C50.5429 27.5359 50.8251 26.9001 50.87 26.199C50.9833 24.6257 51.43 23.4824 52.21 22.769C53.0633 21.989 54.11 21.8024 55.35 22.209C56.9833 22.7424 57.7533 24.289 57.66 26.849C57.654 26.9971 57.6811 27.1467 57.7397 27.288C57.7983 27.4293 57.887 27.5591 58 27.669L66.2 35.629C66.444 35.8663 66.7598 35.9991 67.08 35.999H83.58C84.9467 35.999 85.63 36.669 85.63 38.009L85.68 50.199C85.6826 50.3458 85.7417 50.4857 85.8446 50.5885C85.9474 50.6914 86.0858 50.749 86.23 50.749H103.76C105.213 50.749 105.94 51.4757 105.94 52.929L105.88 95.379C105.88 96.799 105.2 97.499 103.84 97.479L96 97.349C95.68 97.3424 95.5967 97.4724 95.75 97.739ZM55.8087 25.018C55.772 24.8379 55.6962 24.6675 55.5855 24.5167C55.4748 24.3659 55.3315 24.2376 55.1636 24.1391C54.9957 24.0405 54.8066 23.9738 54.6072 23.9426C54.4077 23.9113 54.2017 23.9163 54.0009 23.9571C53.8002 23.998 53.6086 24.0739 53.4371 24.1806C53.2657 24.2873 53.1177 24.4226 53.0017 24.5789C52.8857 24.7351 52.8038 24.9093 52.7609 25.0914C52.7179 25.2734 52.7146 25.4599 52.7513 25.64C52.788 25.8202 52.8638 25.9906 52.9745 26.1414C53.0852 26.2922 53.2285 26.4205 53.3964 26.519C53.5643 26.6176 53.7534 26.6843 53.9528 26.7155C54.1523 26.7467 54.3583 26.7418 54.5591 26.7009C54.7599 26.6601 54.9514 26.5842 55.1229 26.4775C55.2943 26.3708 55.4423 26.2355 55.5583 26.0792C55.6743 25.9229 55.7562 25.7488 55.7991 25.5667C55.8421 25.3846 55.8454 25.1982 55.8087 25.018ZM63.07 35.289L56.51 28.889C56.4157 28.7975 56.2889 28.7245 56.1374 28.6746C55.986 28.6247 55.8133 28.599 55.63 28.599L52.93 28.549C52.7558 28.546 52.5899 28.5692 52.4421 28.6173C52.2944 28.6654 52.1678 28.7374 52.07 28.829L45.15 35.409C44.73 35.8024 44.81 35.999 45.39 35.999L62.79 35.939C63.4233 35.939 63.5167 35.7224 63.07 35.289ZM30.75 74.189L30.69 44.119C30.69 43.8883 30.7827 43.667 30.9477 43.5039C31.1128 43.3407 31.3366 43.249 31.57 43.249H76.93C77.274 43.2493 77.6042 43.3942 77.8493 43.6524C78.0944 43.9107 78.2348 44.2614 78.24 44.629L78.32 50.059C78.3221 50.2156 78.3804 50.3651 78.4828 50.4768C78.5852 50.5885 78.7238 50.6538 78.87 50.659L81.38 50.749C81.4464 50.7504 81.5124 50.7369 81.5742 50.7093C81.6359 50.6818 81.6922 50.6408 81.7397 50.5886C81.7872 50.5365 81.8249 50.4743 81.8507 50.4057C81.8765 50.3371 81.8899 50.2634 81.89 50.189L81.94 39.999C81.94 39.8664 81.8873 39.7393 81.7936 39.6455C81.6998 39.5517 81.5726 39.499 81.44 39.499H27.13C26.9947 39.499 26.865 39.5528 26.7694 39.6484C26.6737 39.7441 26.62 39.8738 26.62 40.009L26.63 78.229C26.63 78.367 26.6837 78.4992 26.7794 78.5967C26.875 78.6943 27.0047 78.749 27.14 78.749L59.13 78.689C59.2104 78.6892 59.2904 78.676 59.3646 78.6504C59.4389 78.6247 59.5059 78.5872 59.5614 78.5402C59.6169 78.4932 59.6597 78.4377 59.687 78.3772C59.7143 78.3168 59.7255 78.2527 59.72 78.189L59.63 77.449C59.5767 76.9424 59.5633 76.6324 59.59 76.519C59.87 75.3057 59.1533 74.799 57.44 74.999C54.18 75.379 45.4533 75.2824 31.26 74.709C31.123 74.7039 30.9933 74.6468 30.8982 74.5499C30.8031 74.4529 30.75 74.3236 30.75 74.189ZM76.25 50.299L76.06 45.689C76.0548 45.5518 75.9936 45.4219 75.8891 45.3268C75.7846 45.2316 75.6451 45.1787 75.5 45.179L32.98 45.059C32.8385 45.0592 32.7026 45.119 32.6016 45.2256C32.5007 45.3322 32.4426 45.4771 32.44 45.629L32.39 72.199C32.39 72.4616 32.4901 72.7134 32.6682 72.8991C32.8464 73.0847 33.088 73.189 33.34 73.189L58.84 73.249C59.0654 73.249 59.2816 73.1595 59.441 73.0001C59.6004 72.8407 59.69 72.6245 59.69 72.399V52.659C59.69 51.3857 60.3267 50.749 61.6 50.749H75.79C75.8521 50.7489 75.9136 50.7371 75.9708 50.7141C76.028 50.6912 76.0796 50.6577 76.1226 50.6157C76.1656 50.5736 76.199 50.5239 76.2209 50.4695C76.2428 50.415 76.2527 50.3571 76.25 50.299ZM102.226 54.5949C102.226 54.4942 102.186 54.3976 102.114 54.3265C102.043 54.2554 101.946 54.2155 101.845 54.2156L63.5454 54.2825C63.4446 54.2827 63.3481 54.3229 63.2769 54.3943C63.2058 54.4657 63.1659 54.5624 63.1661 54.6631L63.234 93.5631C63.2342 93.6639 63.2744 93.7605 63.3458 93.8316C63.4171 93.9027 63.5138 93.9426 63.6146 93.9424L101.915 93.8755C102.015 93.8754 102.112 93.8352 102.183 93.7638C102.254 93.6924 102.294 93.5957 102.294 93.4949L102.226 54.5949Z" fill="white"/>
<path d="M54.5591 26.7008C55.4033 26.5291 55.9628 25.7756 55.8086 25.0179C55.6545 24.2603 54.8451 23.7853 54.0009 23.9571C53.1566 24.1288 52.5971 24.8823 52.7513 25.64C52.9054 26.3976 53.7148 26.8726 54.5591 26.7008Z" fill="#646567"/>
<path d="M63.0699 35.2891C63.5165 35.7224 63.4232 35.9391 62.7899 35.9391L45.3899 35.9991C44.8099 35.9991 44.7299 35.8024 45.1499 35.4091L52.0699 28.8291C52.1677 28.7375 52.2942 28.6655 52.442 28.6174C52.5897 28.5693 52.7556 28.546 52.9299 28.5491L55.6299 28.5991C55.8131 28.599 55.9859 28.6247 56.1373 28.6746C56.2887 28.7245 56.4155 28.7975 56.5099 28.8891L63.0699 35.2891Z" fill="#3D4047"/>
<path d="M31.2601 74.709C45.4535 75.2824 54.1801 75.379 57.4401 74.999C59.1535 74.799 59.8701 75.3057 59.5901 76.519C59.5635 76.6324 59.5768 76.9424 59.6301 77.449L59.7201 78.189C59.7256 78.2527 59.7144 78.3167 59.6871 78.3772C59.6598 78.4376 59.617 78.4931 59.5615 78.5402C59.506 78.5872 59.439 78.6247 59.3647 78.6504C59.2905 78.676 59.2106 78.6891 59.1301 78.689L27.1401 78.749C27.0049 78.749 26.8751 78.6942 26.7795 78.5967C26.6838 78.4992 26.6301 78.3669 26.6301 78.229L26.6201 40.009C26.6201 39.8738 26.6738 39.744 26.7695 39.6484C26.8651 39.5528 26.9949 39.499 27.1301 39.499H81.4401C81.5727 39.499 81.6999 39.5517 81.7937 39.6455C81.8874 39.7392 81.9401 39.8664 81.9401 39.999L81.8901 50.189C81.89 50.2634 81.8766 50.3371 81.8508 50.4057C81.825 50.4743 81.7873 50.5365 81.7398 50.5886C81.6923 50.6407 81.6361 50.6818 81.5743 50.7093C81.5125 50.7369 81.4465 50.7504 81.3801 50.749L78.8701 50.659C78.7239 50.6537 78.5853 50.5885 78.4829 50.4768C78.3805 50.3651 78.3223 50.2155 78.3201 50.059L78.2401 44.629C78.2349 44.2614 78.0946 43.9106 77.8494 43.6524C77.6043 43.3942 77.2741 43.2493 76.9301 43.249H31.5701C31.3367 43.249 31.1129 43.3407 30.9479 43.5038C30.7828 43.667 30.6901 43.8883 30.6901 44.119L30.7501 74.189C30.7501 74.3235 30.8032 74.4529 30.8983 74.5498C30.9934 74.6468 31.1231 74.7038 31.2601 74.709Z" fill="#3D4047"/>
<path d="M76.2501 50.2991C76.2528 50.3571 76.243 50.4151 76.2211 50.4695C76.1992 50.5239 76.1657 50.5736 76.1227 50.6157C76.0797 50.6577 76.0281 50.6913 75.9709 50.7142C75.9138 50.7371 75.8523 50.749 75.7901 50.7491H61.6001C60.3268 50.7491 59.6901 51.3857 59.6901 52.6591V72.3991C59.6901 72.5107 59.6682 72.6212 59.6254 72.7244C59.5827 72.8275 59.5201 72.9212 59.4412 73.0001C59.3622 73.079 59.2685 73.1417 59.1654 73.1844C59.0623 73.2271 58.9518 73.2491 58.8401 73.2491L33.3401 73.1891C33.0882 73.1891 32.8465 73.0848 32.6684 72.8991C32.4902 72.7135 32.3901 72.4616 32.3901 72.1991L32.4401 45.6291C32.4428 45.4771 32.5008 45.3323 32.6018 45.2257C32.7028 45.1191 32.8386 45.0592 32.9801 45.0591C49.5852 45.1059 58.895 45.1322 75.5001 45.1791C75.6453 45.1787 75.7848 45.2317 75.8892 45.3268C75.9937 45.4219 76.055 45.5518 76.0601 45.6891L76.2501 50.2991Z" fill="#3D4047"/>
<path d="M102.294 93.4949C102.294 93.5956 102.254 93.6923 102.183 93.7637C102.112 93.8351 102.015 93.8753 101.915 93.8755L63.6145 93.9424C63.5137 93.9425 63.417 93.9027 63.3457 93.8315C63.2743 93.7604 63.2341 93.6638 63.2339 93.5631L63.166 54.6631C63.1659 54.5623 63.2057 54.4656 63.2769 54.3942C63.348 54.3229 63.4446 54.2827 63.5453 54.2825L101.845 54.2156C101.946 54.2154 102.043 54.2553 102.114 54.3264C102.186 54.3975 102.226 54.4941 102.226 54.5949L102.294 93.4949ZM96.4237 62.219C96.4234 62.1218 96.4039 62.0256 96.3664 61.936C96.3289 61.8463 96.2741 61.7649 96.2052 61.6964C96.1362 61.6279 96.0544 61.5737 95.9645 61.5368C95.8746 61.4999 95.7783 61.4811 95.6811 61.4815L85.6612 61.5165C85.564 61.5168 85.4679 61.5363 85.3782 61.5738C85.2885 61.6113 85.2071 61.6661 85.1387 61.735C85.0702 61.804 85.0159 61.8858 84.9791 61.9757C84.9422 62.0656 84.9234 62.1619 84.9237 62.2591L84.9561 71.539C84.9564 71.6362 84.9759 71.7323 85.0134 71.822C85.0509 71.9117 85.1057 71.9931 85.1747 72.0615C85.2436 72.13 85.3254 72.1843 85.4153 72.2211C85.5052 72.258 85.6015 72.2768 85.6987 72.2765L95.7186 72.2415C95.8158 72.2412 95.912 72.2217 96.0016 72.1842C96.0913 72.1467 96.1727 72.0919 96.2412 72.0229C96.3097 71.954 96.3639 71.8722 96.4008 71.7823C96.4377 71.6924 96.4565 71.5961 96.4561 71.4989L96.4237 62.219ZM80.2399 71.489C80.2399 69.9772 79.6394 68.5274 78.5704 67.4585C77.5015 66.3895 76.0516 65.789 74.5399 65.789C73.0282 65.789 71.5784 66.3895 70.5094 67.4585C69.4404 68.5274 68.8399 69.9772 68.8399 71.489C68.8399 73.0007 69.4404 74.4505 70.5094 75.5195C71.5784 76.5884 73.0282 77.189 74.5399 77.189C76.0516 77.189 77.5015 76.5884 78.5704 75.5195C79.6394 74.4505 80.2399 73.0007 80.2399 71.489ZM83.9499 76.489L77.9899 85.169C77.1499 86.389 77.4766 86.9956 78.9699 86.989L91.1999 86.939C92.3466 86.939 92.5966 86.4623 91.9499 85.509L85.8499 76.519C85.7442 76.3626 85.6023 76.2338 85.4366 76.1437C85.2708 76.0536 85.0864 76.005 84.8991 76.002C84.7119 75.9991 84.5275 76.0419 84.3621 76.1267C84.1967 76.2116 84.0552 76.336 83.9499 76.489Z" fill="#3D4047"/>
<path d="M96.4562 71.4989C96.4566 71.596 96.4378 71.6923 96.4009 71.7823C96.364 71.8722 96.3098 71.9539 96.2413 72.0229C96.1728 72.0919 96.0914 72.1467 96.0018 72.1842C95.9121 72.2217 95.8159 72.2411 95.7187 72.2415L85.6988 72.2764C85.6016 72.2768 85.5053 72.258 85.4154 72.2211C85.3255 72.1842 85.2437 72.13 85.1748 72.0615C85.1058 71.993 85.051 71.9116 85.0135 71.822C84.976 71.7323 84.9566 71.6361 84.9562 71.539L84.9238 62.2591C84.9235 62.1619 84.9423 62.0656 84.9792 61.9756C85.016 61.8857 85.0703 61.804 85.1388 61.735C85.2073 61.666 85.2886 61.6112 85.3783 61.5737C85.468 61.5362 85.5641 61.5168 85.6613 61.5165L95.6812 61.4814C95.7784 61.4811 95.8747 61.4999 95.9646 61.5368C96.0546 61.5737 96.1363 61.6279 96.2053 61.6964C96.2742 61.7649 96.329 61.8463 96.3665 61.9359C96.404 62.0256 96.4235 62.1218 96.4238 62.219L96.4562 71.4989ZM94.4341 63.5125C94.4341 63.477 94.427 63.4419 94.4134 63.4092C94.3998 63.3764 94.3799 63.3467 94.3548 63.3216C94.3297 63.2966 94.2999 63.2768 94.2671 63.2632C94.2343 63.2497 94.1992 63.2428 94.1637 63.2429L87.2037 63.2551C87.1683 63.2551 87.1332 63.2621 87.1004 63.2758C87.0677 63.2894 87.0379 63.3093 87.0129 63.3345C86.9879 63.3596 86.968 63.3894 86.9545 63.4222C86.941 63.455 86.9341 63.4901 86.9341 63.5256L86.9459 70.2455C86.946 70.2809 86.953 70.316 86.9666 70.3487C86.9803 70.3815 87.0002 70.4112 87.0253 70.4363C87.0504 70.4613 87.0802 70.4811 87.113 70.4947C87.1458 70.5082 87.1809 70.5151 87.2163 70.5151L94.1763 70.5029C94.2118 70.5028 94.2469 70.4958 94.2796 70.4821C94.3124 70.4685 94.3421 70.4486 94.3672 70.4235C94.3922 70.3983 94.412 70.3685 94.4256 70.3357C94.4391 70.3029 94.446 70.2678 94.4459 70.2324L94.4341 63.5125Z" fill="#EC5242"/>
<path d="M94.1636 63.243L87.2036 63.2551C87.0545 63.2554 86.9338 63.3765 86.9341 63.5256L86.9458 70.2456C86.9461 70.3947 87.0671 70.5154 87.2163 70.5151L94.1763 70.503C94.3254 70.5027 94.446 70.3816 94.4458 70.2325L94.4341 63.5125C94.4338 63.3634 94.3127 63.2427 94.1636 63.243Z" fill="#EC5242"/>
<path d="M80.2398 71.4891C80.2398 73.0008 79.6393 74.4506 78.5704 75.5196C77.5014 76.5885 76.0516 77.1891 74.5398 77.1891C73.0281 77.1891 71.5783 76.5885 70.5093 75.5196C69.4404 74.4506 68.8398 73.0008 68.8398 71.4891C68.8398 69.9773 69.4404 68.5275 70.5093 67.4586C71.5783 66.3896 73.0281 65.7891 74.5398 65.7891C76.0516 65.7891 77.5014 66.3896 78.5704 67.4586C79.6393 68.5275 80.2398 69.9773 80.2398 71.4891ZM78.3498 71.4791C78.3498 70.4686 77.9484 69.4995 77.2339 68.785C76.5194 68.0705 75.5503 67.6691 74.5398 67.6691C73.5294 67.6691 72.5603 68.0705 71.8458 68.785C71.1313 69.4995 70.7298 70.4686 70.7298 71.4791C70.7298 72.4895 71.1313 73.4586 71.8458 74.1731C72.5603 74.8877 73.5294 75.2891 74.5398 75.2891C75.0402 75.2891 75.5356 75.1905 75.9979 74.999C76.4601 74.8076 76.8801 74.5269 77.2339 74.1731C77.5877 73.8194 77.8684 73.3993 78.0598 72.9371C78.2513 72.4748 78.3498 71.9794 78.3498 71.4791Z" fill="white"/>
<path d="M74.54 75.2889C76.6442 75.2889 78.35 73.5832 78.35 71.479C78.35 69.3747 76.6442 67.6689 74.54 67.6689C72.4358 67.6689 70.73 69.3747 70.73 71.479C70.73 73.5832 72.4358 75.2889 74.54 75.2889Z" fill="#FAFAFA"/>
<path d="M83.9497 76.489C84.055 76.336 84.1965 76.2117 84.3619 76.1268C84.5273 76.042 84.7117 75.9991 84.8989 76.0021C85.0862 76.0051 85.2707 76.0537 85.4364 76.1438C85.6021 76.2339 85.744 76.3627 85.8497 76.519L91.9497 85.509C92.5964 86.4624 92.3464 86.939 91.1997 86.939L78.9697 86.989C77.4764 86.9957 77.1497 86.389 77.9897 85.169L83.9497 76.489ZM84.5197 78.839L80.5597 84.729C80.3264 85.0757 80.4164 85.249 80.8297 85.249H88.6497C89.1297 85.249 89.2397 85.0557 88.9797 84.669L85.1197 78.819C85.088 78.7706 85.0443 78.7315 84.9926 78.7051C84.9409 78.6787 84.8827 78.666 84.8233 78.668C84.7639 78.6699 84.7051 78.6866 84.6521 78.7164C84.5991 78.7463 84.5537 78.7884 84.5197 78.839Z" fill="#EC5242"/>
<path d="M84.5199 78.839C84.5538 78.7884 84.5993 78.7463 84.6523 78.7164C84.7052 78.6866 84.7641 78.6699 84.8235 78.6679C84.8829 78.6659 84.941 78.6787 84.9928 78.7051C85.0445 78.7314 85.0882 78.7706 85.1199 78.819L88.9799 84.669C89.2399 85.0557 89.1299 85.249 88.6499 85.249H80.8299C80.4165 85.249 80.3266 85.0757 80.5599 84.729L84.5199 78.839Z" fill="#EC5242"/>
</svg>
