<svg width="128" height="128" viewBox="0 0 128 128" fill="none" xmlns="http://www.w3.org/2000/svg">
<path d="M62.19 73.3548C50.1567 73.2881 38.1267 73.2648 26.1 73.2848C23.48 73.2915 21.65 72.9548 20.61 72.2748C18.87 71.1415 18 69.2315 18 66.5448C18 58.0448 18 49.5448 18 41.0448C18 38.3648 18.8167 36.4315 20.45 35.2448C21.4833 34.4915 23.3067 34.1081 25.92 34.0948C50.6467 33.9881 65.9233 33.9715 71.75 34.0448C73.71 34.0715 75.2467 34.7948 76.36 36.2148C77.1133 37.1881 77.5067 38.6781 77.54 40.6848C77.6133 45.9048 77.66 51.1281 77.68 56.3548C77.6825 56.4892 77.736 56.6175 77.8292 56.7125C77.9224 56.8076 78.0482 56.8622 78.18 56.8648C90.4667 57.1781 98.9067 57.2381 103.5 57.0448C107.88 56.8581 110.06 58.8581 110.04 63.0448C110.013 69.5448 109.987 76.0448 109.96 82.5448C109.953 85.6781 108.753 87.5415 106.36 88.1348C105.953 88.2348 104.037 88.2948 100.61 88.3148C90.97 88.3681 81.33 88.4215 71.69 88.4748C71.3659 88.4813 71.0495 88.5973 70.79 88.8048C69.5767 89.7848 68.38 90.7915 67.2 91.8248C66.3467 92.5781 65.5667 92.9848 64.86 93.0448C63.4467 93.1715 62.7433 92.3381 62.75 90.5448C62.7833 84.9848 62.7633 79.4248 62.69 73.8648C62.69 73.7296 62.6373 73.5998 62.5435 73.5042C62.4498 73.4085 62.3226 73.3548 62.19 73.3548ZM72.58 38.4848C71.4067 38.1448 70.2133 37.9781 69 37.9848C55.5 38.0248 42 37.9882 28.5 37.8748C26.6667 37.8615 25.1267 37.9715 23.88 38.2048C23.4253 38.2893 23.0148 38.527 22.7204 38.8762C22.426 39.2254 22.2666 39.6639 22.27 40.1148L22.47 67.4548C22.4833 68.6815 23.1167 69.2948 24.37 69.2948C37.8167 69.2948 51.07 69.2948 64.13 69.2948C66.8233 69.2948 68.2333 69.3081 68.36 69.3348C69.74 69.6148 70.9933 70.4115 72.12 71.7248C72.8733 72.6048 73.25 72.4648 73.25 71.3048V39.3848C73.2499 39.1827 73.1847 38.986 73.064 38.8239C72.9433 38.6618 72.7736 38.5429 72.58 38.4848ZM91.64 66.3048C92.0533 67.3648 91.59 67.9015 90.25 67.9148C86.27 67.9682 82.29 68.0282 78.31 68.0948C78.166 68.0975 78.0288 68.1523 77.9278 68.2477C77.8269 68.3431 77.7702 68.4713 77.77 68.6048L77.79 71.2048C77.79 71.3613 77.8553 71.5114 77.9716 71.622C78.0879 71.7327 78.2456 71.7948 78.41 71.7948L100.19 71.8548C100.345 71.8553 100.495 71.8999 100.619 71.9823C100.743 72.0647 100.834 72.1809 100.88 72.3148C101.3 73.5348 100.673 74.1115 99 74.0448C96.8467 73.9648 89.9533 73.9848 78.32 74.1048C78.1855 74.1048 78.0562 74.1579 77.9592 74.253C77.8622 74.3481 77.8052 74.4778 77.8 74.6148C77.6667 79.8348 75.7133 80.6648 71.94 77.1048C70.6133 75.8515 69.2067 74.6981 67.72 73.6448C67.4467 73.4515 67.31 73.5215 67.31 73.8548L67.18 85.4348C67.1733 86.2615 67.43 86.3548 67.95 85.7148C68.6033 84.9148 69.4533 84.5081 70.5 84.4948C81.8333 84.3615 93.34 84.2948 105.02 84.2948C105.198 84.2948 105.368 84.2253 105.494 84.1015C105.619 83.9777 105.69 83.8099 105.69 83.6348V62.1348C105.69 61.9917 105.661 61.8499 105.605 61.7177C105.55 61.5854 105.468 61.4653 105.365 61.3641C105.262 61.2629 105.139 61.1826 105.005 61.1278C104.87 61.073 104.726 61.0448 104.58 61.0448H78.12C78.0561 61.0447 77.9929 61.058 77.934 61.0837C77.8751 61.1094 77.8217 61.1471 77.777 61.1946C77.7323 61.2421 77.6972 61.2985 77.6736 61.3603C77.6501 61.4222 77.6387 61.4883 77.64 61.5548L77.74 65.2348C77.745 65.3859 77.8048 65.5292 77.9072 65.6353C78.0095 65.7414 78.1465 65.802 78.29 65.8048L90.94 65.8448C91.0956 65.8473 91.2455 65.8925 91.3703 65.9745C91.4951 66.0565 91.5891 66.1716 91.64 66.3048Z" fill="white"/>
<path d="M72.5801 38.4849C72.7737 38.5429 72.9434 38.6618 73.0641 38.8239C73.1848 38.986 73.25 39.1828 73.2501 39.3849V71.3049C73.2501 72.4649 72.8734 72.6049 72.1201 71.7249C70.9934 70.4115 69.7401 69.6149 68.3601 69.3349C68.2334 69.3082 66.8234 69.2949 64.1301 69.2949C51.0701 69.2949 37.8167 69.2949 24.3701 69.2949C23.1167 69.2949 22.4834 68.6815 22.4701 67.4549L22.2701 40.1149C22.2667 39.6639 22.4261 39.2255 22.7205 38.8762C23.0148 38.527 23.4254 38.2893 23.8801 38.2049C25.1267 37.9715 26.6667 37.8615 28.5001 37.8749C42.0001 37.9882 55.5001 38.0249 69.0001 37.9849C70.2134 37.9782 71.4067 38.1449 72.5801 38.4849ZM50.2401 43.8449C50.2401 43.7653 50.2085 43.689 50.1522 43.6327C50.0959 43.5765 50.0196 43.5449 49.9401 43.5449H29.5401C29.4605 43.5449 29.3842 43.5765 29.3279 43.6327C29.2717 43.689 29.2401 43.7653 29.2401 43.8449V45.2449C29.2401 45.3244 29.2717 45.4007 29.3279 45.457C29.3842 45.5133 29.4605 45.5449 29.5401 45.5449H49.9401C50.0196 45.5449 50.0959 45.5133 50.1522 45.457C50.2085 45.4007 50.2401 45.3244 50.2401 45.2449V43.8449ZM60.9301 49.9449C60.9301 49.8388 60.8879 49.737 60.8129 49.662C60.7379 49.587 60.6362 49.5449 60.5301 49.5449H29.6301C29.524 49.5449 29.4222 49.587 29.3472 49.662C29.2722 49.737 29.2301 49.8388 29.2301 49.9449V51.1449C29.2301 51.2509 29.2722 51.3527 29.3472 51.4277C29.4222 51.5027 29.524 51.5449 29.6301 51.5449H60.5301C60.6362 51.5449 60.7379 51.5027 60.8129 51.4277C60.8879 51.3527 60.9301 51.2509 60.9301 51.1449V49.9449ZM54.4714 55.8269C54.4714 55.7927 54.4648 55.7589 54.4518 55.7273C54.4387 55.6957 54.4196 55.667 54.3955 55.6428C54.3714 55.6186 54.3428 55.5994 54.3113 55.5863C54.2797 55.5732 54.2459 55.5664 54.2118 55.5664L29.5319 55.5234C29.4977 55.5233 29.4639 55.53 29.4323 55.543C29.4008 55.556 29.3721 55.5751 29.3479 55.5992C29.3237 55.6233 29.3045 55.6519 29.2913 55.6834C29.2782 55.7149 29.2714 55.7487 29.2714 55.7829L29.2688 57.2629C29.2687 57.297 29.2754 57.3308 29.2884 57.3624C29.3014 57.394 29.3205 57.4227 29.3446 57.4469C29.3687 57.4711 29.3973 57.4903 29.4289 57.5034C29.4604 57.5165 29.4942 57.5233 29.5284 57.5234L54.2083 57.5664C54.2424 57.5664 54.2762 57.5598 54.3078 57.5468C54.3394 57.5338 54.3681 57.5147 54.3923 57.4906C54.4165 57.4665 54.4357 57.4378 54.4488 57.4063C54.4619 57.3748 54.4687 57.341 54.4688 57.3069L54.4714 55.8269Z" fill="#3D4047"/>
<path d="M49.9402 43.5449H29.5402C29.3745 43.5449 29.2402 43.6792 29.2402 43.8449V45.2449C29.2402 45.4106 29.3745 45.5449 29.5402 45.5449H49.9402C50.1059 45.5449 50.2402 45.4106 50.2402 45.2449V43.8449C50.2402 43.6792 50.1059 43.5449 49.9402 43.5449Z" fill="white"/>
<path d="M60.53 49.5449H29.63C29.4091 49.5449 29.23 49.724 29.23 49.9449V51.1449C29.23 51.3658 29.4091 51.5449 29.63 51.5449H60.53C60.7509 51.5449 60.93 51.3658 60.93 51.1449V49.9449C60.93 49.724 60.7509 49.5449 60.53 49.5449Z" fill="white"/>
<path d="M54.2119 55.5665L29.532 55.5234C29.3884 55.5232 29.2718 55.6394 29.2715 55.7829L29.2689 57.2629C29.2687 57.4065 29.3849 57.5231 29.5285 57.5234L54.2084 57.5665C54.352 57.5667 54.4686 57.4505 54.4689 57.3069L54.4715 55.8269C54.4717 55.6833 54.3555 55.5667 54.2119 55.5665Z" fill="white"/>
<path d="M90.9398 65.8449L78.2898 65.8049C78.1464 65.8022 78.0093 65.7415 77.907 65.6354C77.8047 65.5294 77.7448 65.386 77.7398 65.2349L77.6398 61.5549C77.6385 61.4884 77.6499 61.4223 77.6735 61.3604C77.697 61.2986 77.7321 61.2422 77.7768 61.1947C77.8215 61.1472 77.8749 61.1095 77.9338 61.0838C77.9927 61.0581 78.0559 61.0449 78.1198 61.0449H104.58C104.726 61.0449 104.87 61.0731 105.005 61.1279C105.139 61.1827 105.262 61.263 105.365 61.3642C105.468 61.4654 105.55 61.5856 105.605 61.7178C105.661 61.85 105.69 61.9918 105.69 62.1349V83.6349C105.69 83.81 105.619 83.9778 105.494 84.1016C105.368 84.2254 105.198 84.2949 105.02 84.2949C93.3398 84.2949 81.8332 84.3616 70.4998 84.4949C69.4532 84.5083 68.6032 84.9149 67.9498 85.7149C67.4298 86.3549 67.1731 86.2616 67.1798 85.4349L67.3098 73.8549C67.3098 73.5216 67.4465 73.4516 67.7198 73.6449C69.2065 74.6983 70.6132 75.8516 71.9398 77.1049C75.7132 80.6649 77.6665 79.8349 77.7998 74.6149C77.805 74.4779 77.8621 74.3483 77.959 74.2532C78.056 74.1581 78.1853 74.1049 78.3198 74.1049C89.9532 73.9849 96.8465 73.9649 98.9998 74.0449C100.673 74.1116 101.3 73.5349 100.88 72.3149C100.834 72.1811 100.742 72.0648 100.619 71.9824C100.495 71.9 100.345 71.8554 100.19 71.8549L78.4098 71.7949C78.2454 71.7949 78.0877 71.7328 77.9714 71.6221C77.8551 71.5115 77.7898 71.3614 77.7898 71.2049L77.7698 68.6049C77.77 68.4714 77.8267 68.3432 77.9277 68.2478C78.0286 68.1525 78.1658 68.0976 78.3098 68.0949C82.2898 68.0283 86.2698 67.9683 90.2498 67.9149C91.5898 67.9016 92.0532 67.3649 91.6398 66.3049C91.5889 66.1717 91.4949 66.0566 91.3701 65.9746C91.2453 65.8926 91.0954 65.8474 90.9398 65.8449Z" fill="#EC5242"/>
</svg>
