<svg width="100" height="100" viewBox="0 0 100 100" fill="none" xmlns="http://www.w3.org/2000/svg">
<path d="M48.19 59.3548C36.1567 59.2881 24.1267 59.2648 12.1 59.2848C9.48001 59.2915 7.65 58.9548 6.61 58.2748C4.87 57.1415 4 55.2315 4 52.5448C4 44.0448 4 35.5448 4 27.0448C4 24.3648 4.81666 22.4315 6.45 21.2448C7.48333 20.4915 9.30666 20.1081 11.92 20.0948C36.6467 19.9881 51.9233 19.9715 57.75 20.0448C59.71 20.0715 61.2467 20.7948 62.36 22.2148C63.1133 23.1881 63.5067 24.6781 63.54 26.6848C63.6133 31.9048 63.66 37.1282 63.68 42.3548C63.6825 42.4892 63.736 42.6175 63.8292 42.7125C63.9224 42.8076 64.0482 42.8622 64.18 42.8648C76.4667 43.1781 84.9067 43.2381 89.5 43.0448C93.88 42.8581 96.06 44.8581 96.04 49.0448C96.0133 55.5448 95.9867 62.0448 95.96 68.5448C95.9533 71.6782 94.7533 73.5415 92.36 74.1348C91.9533 74.2348 90.0367 74.2948 86.61 74.3148C76.97 74.3681 67.33 74.4215 57.69 74.4748C57.3659 74.4813 57.0495 74.5973 56.79 74.8048C55.5767 75.7848 54.38 76.7915 53.2 77.8248C52.3467 78.5781 51.5667 78.9848 50.86 79.0448C49.4467 79.1715 48.7433 78.3382 48.75 76.5448C48.7833 70.9848 48.7633 65.4248 48.69 59.8648C48.69 59.7296 48.6373 59.5998 48.5435 59.5042C48.4498 59.4085 48.3226 59.3548 48.19 59.3548ZM58.58 24.4848C57.4067 24.1448 56.2133 23.9781 55 23.9848C41.5 24.0248 28 23.9882 14.5 23.8748C12.6667 23.8615 11.1267 23.9715 9.88 24.2048C9.42529 24.2893 9.01478 24.527 8.72041 24.8762C8.42605 25.2254 8.2666 25.6639 8.27 26.1148L8.47 53.4548C8.48333 54.6815 9.11666 55.2948 10.37 55.2948C23.8167 55.2948 37.07 55.2948 50.13 55.2948C52.8233 55.2948 54.2333 55.3081 54.36 55.3348C55.74 55.6148 56.9933 56.4115 58.12 57.7248C58.8733 58.6048 59.25 58.4648 59.25 57.3048V25.3848C59.2499 25.1827 59.1847 24.986 59.064 24.8239C58.9433 24.6618 58.7736 24.5429 58.58 24.4848ZM77.64 52.3048C78.0533 53.3648 77.59 53.9015 76.25 53.9148C72.27 53.9682 68.29 54.0282 64.31 54.0948C64.166 54.0975 64.0288 54.1523 63.9278 54.2477C63.8269 54.3431 63.7702 54.4713 63.77 54.6048L63.79 57.2048C63.79 57.3613 63.8553 57.5114 63.9716 57.622C64.0879 57.7327 64.2456 57.7948 64.41 57.7948L86.19 57.8548C86.3453 57.8553 86.4952 57.8999 86.6189 57.9823C86.7425 58.0647 86.8338 58.181 86.88 58.3148C87.3 59.5348 86.6733 60.1115 85 60.0448C82.8467 59.9648 75.9533 59.9848 64.32 60.1048C64.1855 60.1048 64.0562 60.1579 63.9592 60.253C63.8622 60.3481 63.8052 60.4778 63.8 60.6148C63.6667 65.8348 61.7133 66.6648 57.94 63.1048C56.6133 61.8515 55.2067 60.6981 53.72 59.6448C53.4467 59.4515 53.31 59.5215 53.31 59.8548L53.18 71.4348C53.1733 72.2615 53.43 72.3548 53.95 71.7148C54.6033 70.9148 55.4533 70.5081 56.5 70.4948C67.8333 70.3615 79.34 70.2948 91.02 70.2948C91.1977 70.2948 91.3681 70.2253 91.4938 70.1015C91.6194 69.9777 91.69 69.8099 91.69 69.6348V48.1348C91.69 47.9917 91.6613 47.8499 91.6055 47.7177C91.5497 47.5854 91.468 47.4653 91.3649 47.3641C91.2618 47.2629 91.1395 47.1826 91.0048 47.1278C90.8701 47.073 90.7258 47.0448 90.58 47.0448H64.12C64.0561 47.0447 63.9929 47.058 63.934 47.0837C63.8751 47.1094 63.8217 47.1471 63.777 47.1946C63.7323 47.2421 63.6972 47.2985 63.6736 47.3603C63.6501 47.4222 63.6387 47.4883 63.64 47.5548L63.74 51.2348C63.745 51.3859 63.8048 51.5292 63.9072 51.6353C64.0095 51.7414 64.1465 51.802 64.29 51.8048L76.94 51.8448C77.0956 51.8473 77.2455 51.8925 77.3703 51.9745C77.4951 52.0565 77.5891 52.1716 77.64 52.3048Z" fill="white"/>
<path d="M58.5801 24.4849C58.7737 24.5429 58.9434 24.6618 59.0641 24.8239C59.1848 24.986 59.25 25.1827 59.2501 25.3849V57.3049C59.2501 58.4649 58.8734 58.6049 58.1201 57.7249C56.9934 56.4115 55.7401 55.6149 54.3601 55.3349C54.2334 55.3082 52.8234 55.2949 50.1301 55.2949C37.0701 55.2949 23.8167 55.2949 10.3701 55.2949C9.11673 55.2949 8.4834 54.6815 8.47007 53.4549L8.27007 26.1149C8.26667 25.6639 8.42612 25.2255 8.72048 24.8762C9.01485 24.527 9.42536 24.2893 9.88007 24.2049C11.1267 23.9715 12.6667 23.8615 14.5001 23.8749C28.0001 23.9882 41.5001 24.0249 55.0001 23.9849C56.2134 23.9782 57.4067 24.1449 58.5801 24.4849ZM36.2401 29.8449C36.2401 29.7653 36.2085 29.689 36.1522 29.6327C36.0959 29.5765 36.0196 29.5449 35.9401 29.5449H15.5401C15.4605 29.5449 15.3842 29.5765 15.3279 29.6327C15.2717 29.689 15.2401 29.7653 15.2401 29.8449V31.2449C15.2401 31.3244 15.2717 31.4007 15.3279 31.457C15.3842 31.5133 15.4605 31.5449 15.5401 31.5449H35.9401C36.0196 31.5449 36.0959 31.5133 36.1522 31.457C36.2085 31.4007 36.2401 31.3244 36.2401 31.2449V29.8449ZM46.9301 35.9449C46.9301 35.8388 46.8879 35.737 46.8129 35.662C46.7379 35.587 46.6362 35.5449 46.5301 35.5449H15.6301C15.524 35.5449 15.4222 35.587 15.3472 35.662C15.2722 35.737 15.2301 35.8388 15.2301 35.9449V37.1449C15.2301 37.2509 15.2722 37.3527 15.3472 37.4277C15.4222 37.5027 15.524 37.5449 15.6301 37.5449H46.5301C46.6362 37.5449 46.7379 37.5027 46.8129 37.4277C46.8879 37.3527 46.9301 37.2509 46.9301 37.1449V35.9449ZM40.4714 41.8269C40.4714 41.7927 40.4648 41.7589 40.4518 41.7273C40.4387 41.6957 40.4196 41.667 40.3955 41.6428C40.3714 41.6186 40.3428 41.5994 40.3113 41.5863C40.2797 41.5732 40.2459 41.5664 40.2118 41.5664L15.5319 41.5234C15.4977 41.5233 15.4639 41.53 15.4323 41.543C15.4008 41.556 15.3721 41.5751 15.3479 41.5992C15.3237 41.6233 15.3045 41.6519 15.2913 41.6834C15.2782 41.7149 15.2714 41.7487 15.2714 41.7829L15.2688 43.2629C15.2687 43.297 15.2754 43.3308 15.2884 43.3624C15.3014 43.394 15.3205 43.4227 15.3446 43.4469C15.3687 43.4711 15.3973 43.4903 15.4289 43.5034C15.4604 43.5165 15.4942 43.5233 15.5284 43.5234L40.2083 43.5664C40.2424 43.5664 40.2762 43.5598 40.3078 43.5468C40.3394 43.5338 40.3681 43.5147 40.3923 43.4906C40.4165 43.4665 40.4357 43.4378 40.4488 43.4063C40.4619 43.3748 40.4687 43.341 40.4688 43.3069L40.4714 41.8269Z" fill="#3D4047"/>
<path d="M35.9402 29.5449H15.5402C15.3745 29.5449 15.2402 29.6792 15.2402 29.8449V31.2449C15.2402 31.4106 15.3745 31.5449 15.5402 31.5449H35.9402C36.1059 31.5449 36.2402 31.4106 36.2402 31.2449V29.8449C36.2402 29.6792 36.1059 29.5449 35.9402 29.5449Z" fill="white"/>
<path d="M46.53 35.5449H15.63C15.4091 35.5449 15.23 35.724 15.23 35.9449V37.1449C15.23 37.3658 15.4091 37.5449 15.63 37.5449H46.53C46.7509 37.5449 46.93 37.3658 46.93 37.1449V35.9449C46.93 35.724 46.7509 35.5449 46.53 35.5449Z" fill="white"/>
<path d="M40.2119 41.5665L15.532 41.5234C15.3884 41.5232 15.2718 41.6394 15.2715 41.7829L15.2689 43.2629C15.2687 43.4065 15.3849 43.5231 15.5285 43.5234L40.2084 43.5665C40.352 43.5667 40.4686 43.4505 40.4689 43.3069L40.4715 41.8269C40.4717 41.6833 40.3555 41.5667 40.2119 41.5665Z" fill="white"/>
<path d="M76.9398 51.8449L64.2898 51.8049C64.1464 51.8022 64.0093 51.7415 63.907 51.6354C63.8047 51.5294 63.7448 51.386 63.7398 51.2349L63.6398 47.5549C63.6385 47.4884 63.6499 47.4223 63.6735 47.3604C63.697 47.2986 63.7321 47.2422 63.7768 47.1947C63.8215 47.1472 63.8749 47.1095 63.9338 47.0838C63.9927 47.0581 64.0559 47.0449 64.1198 47.0449H90.5798C90.7256 47.0449 90.8699 47.0731 91.0046 47.1279C91.1393 47.1827 91.2616 47.263 91.3647 47.3642C91.4678 47.4654 91.5495 47.5856 91.6053 47.7178C91.6611 47.85 91.6898 47.9918 91.6898 48.1349V69.6349C91.6898 69.81 91.6192 69.9778 91.4936 70.1016C91.3679 70.2254 91.1975 70.2949 91.0198 70.2949C79.3398 70.2949 67.8332 70.3616 56.4998 70.4949C55.4532 70.5083 54.6032 70.9149 53.9498 71.7149C53.4298 72.3549 53.1731 72.2616 53.1798 71.4349L53.3098 59.8549C53.3098 59.5216 53.4465 59.4516 53.7198 59.6449C55.2065 60.6983 56.6132 61.8516 57.9398 63.1049C61.7132 66.6649 63.6665 65.8349 63.7998 60.6149C63.805 60.4779 63.8621 60.3483 63.959 60.2532C64.056 60.1581 64.1853 60.1049 64.3198 60.1049C75.9532 59.9849 82.8465 59.9649 84.9998 60.0449C86.6732 60.1116 87.2998 59.5349 86.8798 58.3149C86.8336 58.1811 86.7423 58.0648 86.6187 57.9824C86.4951 57.9 86.3452 57.8554 86.1898 57.8549L64.4098 57.7949C64.2454 57.7949 64.0877 57.7328 63.9714 57.6221C63.8551 57.5115 63.7898 57.3614 63.7898 57.2049L63.7698 54.6049C63.77 54.4714 63.8267 54.3432 63.9277 54.2478C64.0286 54.1525 64.1658 54.0976 64.3098 54.0949C68.2898 54.0283 72.2698 53.9683 76.2498 53.9149C77.5898 53.9016 78.0532 53.3649 77.6398 52.3049C77.5889 52.1717 77.4949 52.0566 77.3701 51.9746C77.2453 51.8926 77.0954 51.8474 76.9398 51.8449Z" fill="#EC5242"/>
</svg>
