<svg width="100" height="100" viewBox="0 0 100 100" fill="none" xmlns="http://www.w3.org/2000/svg">
<path d="M16.79 56.872C15.09 56.512 13.6999 55.7353 12.6199 54.542C11.6199 53.4353 11.0833 52.0487 11.01 50.382C10.8433 46.7353 12.77 44.4253 16.79 43.452C16.9384 43.4161 17.0747 43.3417 17.1853 43.2364C17.2959 43.1311 17.3768 42.9985 17.4199 42.852C18.3266 39.7253 19.7033 36.5253 21.5499 33.252C21.6423 33.0895 21.6925 32.9064 21.696 32.7195C21.6995 32.5326 21.6562 32.3478 21.57 32.182C20.0366 29.282 20.1133 26.7287 21.7999 24.522C22.9133 23.0753 24.3299 22.162 26.0499 21.782C27.8899 21.3753 29.6833 21.7153 31.4299 22.802C31.6055 22.9108 31.8065 22.9709 32.0122 22.9762C32.2179 22.9815 32.4208 22.9317 32.5999 22.832C35.9933 20.912 39.4033 19.5453 42.8299 18.732C43.0079 18.6894 43.1725 18.6031 43.3087 18.4809C43.4449 18.3586 43.5484 18.2043 43.6099 18.032C44.0499 16.812 44.6266 15.8153 45.3399 15.042C46.0199 14.3087 46.9866 13.762 48.2399 13.402C52.4999 12.1887 55.61 13.722 57.57 18.002C57.6393 18.1463 57.7376 18.2738 57.8584 18.3756C57.9792 18.4774 58.1196 18.5512 58.2699 18.592C61.9099 19.6053 65.3699 21.042 68.6499 22.902C68.7869 22.9769 68.9381 23.0202 69.0922 23.0289C69.2463 23.0376 69.3994 23.0113 69.54 22.952C74.5133 20.852 78.0099 22.1053 80.0299 26.712C80.7766 28.4187 80.5699 30.2753 79.4099 32.282C79.334 32.4148 79.2948 32.5648 79.2966 32.7162C79.2984 32.8676 79.341 33.0147 79.42 33.142C81.4 36.3687 82.8933 39.812 83.8999 43.472C83.9412 43.627 84.0128 43.7722 84.1106 43.8992C84.2085 44.0262 84.3306 44.1326 84.4699 44.212C86.0633 45.1053 86.9999 45.772 87.2799 46.212C89.9466 50.4653 89.0632 54.0087 84.6299 56.842C84.2475 57.0882 83.956 57.4534 83.8 57.882C82.3933 61.7753 80.83 65.1387 79.11 67.972C79.0298 68.105 78.9825 68.2537 78.972 68.4053C78.9616 68.5569 78.9883 68.7068 79.05 68.842C81.1366 73.3887 79.9633 76.6387 75.5299 78.592C73.4766 79.492 71.3099 79.342 69.0299 78.142C68.8897 78.0705 68.7365 78.0316 68.5821 78.0281C68.4278 78.0246 68.2764 78.0567 68.1399 78.122C64.9066 79.702 61.5533 80.962 58.0799 81.902C57.8897 81.9557 57.7122 82.0461 57.5577 82.1679C57.4033 82.2898 57.2749 82.4407 57.1799 82.612C54.3599 87.7387 50.5166 89.0653 45.6499 86.592C44.4699 85.992 43.5199 84.5653 42.7999 82.312C42.7533 82.1671 42.6715 82.0357 42.5617 81.9294C42.4519 81.823 42.3173 81.745 42.1699 81.702C38.7366 80.6887 35.4399 79.3353 32.2799 77.642C32.1471 77.5711 31.9977 77.5341 31.8445 77.5341C31.6913 77.5341 31.5387 77.5711 31.3999 77.642C29.5199 78.6087 27.63 78.8987 25.73 78.512C23.8366 78.132 22.3433 77.1687 21.2499 75.622C19.6833 73.3887 19.7333 70.8387 21.3999 67.972C21.4823 67.8254 21.5255 67.6601 21.5255 67.492C21.5255 67.3239 21.4823 67.1586 21.3999 67.012C19.5866 63.8587 18.2533 60.6687 17.3999 57.442C17.3643 57.3013 17.2882 57.1732 17.1803 57.0724C17.0724 56.9715 16.9371 56.9021 16.79 56.872ZM53.3299 19.622C53.3299 18.8661 53.0297 18.1412 52.4952 17.6067C51.9607 17.0723 51.2358 16.772 50.48 16.772C49.7241 16.772 48.9992 17.0723 48.4647 17.6067C47.9302 18.1412 47.6299 18.8661 47.6299 19.622C47.6299 20.3779 47.9302 21.1028 48.4647 21.6372C48.9992 22.1717 49.7241 22.472 50.48 22.472C51.2358 22.472 51.9607 22.1717 52.4952 21.6372C53.0297 21.1028 53.3299 20.3779 53.3299 19.622ZM34.5299 30.092C34.5166 30.452 34.2333 31.062 33.6799 31.922C33.5988 32.0461 33.5604 32.1918 33.5713 32.3341C33.5823 32.4764 33.6419 32.6064 33.7399 32.702L43.0299 41.762C43.1193 41.8504 43.2433 41.9063 43.386 41.9224C43.5286 41.9384 43.6833 41.9139 43.8299 41.852L48.82 39.752C48.9683 39.6892 49.0949 39.592 49.1839 39.4727C49.2729 39.3535 49.3203 39.2175 49.32 39.082L49.1799 26.852C49.1805 26.7108 49.131 26.5719 49.039 26.4565C48.947 26.3411 48.8175 26.2552 48.6699 26.212C46.8099 25.672 45.3866 24.602 44.3999 23.002C44.3077 22.8508 44.17 22.7326 44.0066 22.6644C43.8431 22.5961 43.6623 22.5813 43.4899 22.622C40.4633 23.3153 37.6599 24.4253 35.0799 25.952C34.9484 26.0313 34.8391 26.1425 34.7622 26.2754C34.6852 26.4083 34.6432 26.5585 34.6399 26.712C34.5999 27.8387 34.5633 28.9653 34.5299 30.092ZM56.6999 23.112C55.2333 24.6987 53.6966 25.7387 52.0899 26.232C51.9461 26.2749 51.8198 26.3622 51.7298 26.481C51.6397 26.5998 51.5907 26.7439 51.5899 26.892L51.6399 39.092C51.6427 39.2276 51.6918 39.3618 51.7808 39.4775C51.8698 39.5932 51.9948 39.6853 52.1399 39.742L57.1399 41.692C57.2884 41.7519 57.4456 41.7733 57.5928 41.7538C57.7399 41.7343 57.8709 41.6747 57.9699 41.582L66.99 33.022C67.0894 32.9242 67.1522 32.7935 67.1685 32.6506C67.1848 32.5076 67.1536 32.3604 67.0799 32.232C66.1066 30.5853 65.8566 28.8253 66.3299 26.952C66.3881 26.7181 66.3696 26.475 66.2777 26.2673C66.1859 26.0597 66.0268 25.9015 65.8299 25.822L58.1899 22.692C57.955 22.5957 57.6861 22.5844 57.4196 22.6595C57.1531 22.7346 56.9018 22.8926 56.6999 23.112ZM30.51 28.432C30.51 27.6523 30.2002 26.9045 29.6488 26.3531C29.0975 25.8017 28.3497 25.492 27.57 25.492C26.7902 25.492 26.0424 25.8017 25.491 26.3531C24.9397 26.9045 24.6299 27.6523 24.6299 28.432C24.6299 29.2117 24.9397 29.9595 25.491 30.5109C26.0424 31.0622 26.7902 31.372 27.57 31.372C28.3497 31.372 29.0975 31.0622 29.6488 30.5109C30.2002 29.9595 30.51 29.2117 30.51 28.432ZM76.17 28.772C76.17 28.0002 75.8633 27.26 75.3176 26.7143C74.7719 26.1686 74.0317 25.862 73.2599 25.862C72.4881 25.862 71.748 26.1686 71.2022 26.7143C70.6565 27.26 70.3499 28.0002 70.3499 28.772C70.3499 29.1541 70.4252 29.5325 70.5714 29.8856C70.7177 30.2387 70.932 30.5595 71.2022 30.8297C71.4725 31.0999 71.7933 31.3142 72.1463 31.4605C72.4994 31.6067 72.8778 31.682 73.2599 31.682C73.6421 31.682 74.0205 31.6067 74.3736 31.4605C74.7266 31.3142 75.0474 31.0999 75.3176 30.8297C75.5878 30.5595 75.8022 30.2387 75.9484 29.8856C76.0946 29.5325 76.17 29.1541 76.17 28.772ZM24.98 35.512C23.3866 38.0987 22.2733 40.752 21.6399 43.472C21.604 43.6167 21.6092 43.7695 21.655 43.9139C21.7008 44.0584 21.7855 44.1891 21.8999 44.292C23.3333 45.592 24.4199 47.1387 25.1599 48.932C25.2158 49.0709 25.3114 49.1899 25.4344 49.2737C25.5573 49.3574 25.7021 49.4021 25.8499 49.402H38.8999C39.0737 49.4027 39.2425 49.3423 39.3775 49.231C39.5124 49.1198 39.6052 48.9646 39.6399 48.792C39.9399 47.2053 40.6133 45.6387 41.6599 44.092C41.7461 43.9627 41.7834 43.8066 41.7651 43.6511C41.7468 43.4956 41.6741 43.3507 41.5599 43.242L32.1499 34.342C32.0363 34.2341 31.8927 34.1637 31.7387 34.1405C31.5848 34.1172 31.428 34.1422 31.29 34.212C29.4966 35.0987 27.6566 35.4087 25.7699 35.142C25.6147 35.1215 25.4574 35.1455 25.3171 35.2112C25.1769 35.2769 25.0598 35.3814 24.98 35.512ZM74.7099 48.892C75.6433 46.7587 77.1533 45.1987 79.24 44.212C79.3803 44.1485 79.4935 44.0372 79.5594 43.8981C79.6254 43.7589 79.6397 43.6008 79.5999 43.452C78.8799 40.6053 77.7032 37.9953 76.0699 35.622C75.9865 35.5021 75.8677 35.4092 75.7277 35.3543C75.5876 35.2993 75.4322 35.2846 75.2799 35.312C73.4866 35.5987 71.5299 35.3487 69.4099 34.562C69.2273 34.496 69.0275 34.4844 68.8332 34.5285C68.6388 34.5727 68.4576 34.6709 68.3099 34.812L59.5599 43.062C59.4341 43.179 59.3529 43.3351 59.3308 43.502C59.3088 43.6689 59.3475 43.8356 59.4399 43.972C60.5666 45.6253 61.2066 47.1353 61.36 48.502C61.3893 48.7495 61.5082 48.9777 61.6942 49.1435C61.8803 49.3093 62.1207 49.4013 62.37 49.402H73.9399C74.1041 49.4015 74.2645 49.3529 74.4013 49.2623C74.5382 49.1717 74.6455 49.0429 74.7099 48.892ZM57.3792 50.3591C57.3925 49.5069 57.2294 48.6603 56.8991 47.8676C56.5687 47.0749 56.0777 46.3517 55.4539 45.7391C54.8301 45.1266 54.0859 44.6368 53.2637 44.2977C52.4415 43.9586 51.5573 43.7768 50.6618 43.7628C49.7663 43.7487 48.877 43.9026 48.0445 44.2158C47.212 44.5289 46.4528 44.9951 45.8101 45.5877C45.1674 46.1803 44.6539 46.8878 44.2988 47.6697C43.9438 48.4517 43.7541 49.2927 43.7407 50.1449C43.7273 50.9971 43.8905 51.8437 44.2208 52.6364C44.5512 53.4291 45.0422 54.1523 45.666 54.7648C46.2897 55.3774 47.034 55.8672 47.8562 56.2063C48.6784 56.5454 49.5625 56.7271 50.458 56.7412C51.3535 56.7553 52.2429 56.6013 53.0754 56.2882C53.9078 55.9751 54.6671 55.5089 55.3098 54.9163C55.9525 54.3237 56.466 53.6162 56.821 52.8343C57.1761 52.0523 57.3658 51.2113 57.3792 50.3591ZM20.82 50.152C20.82 49.3776 20.5123 48.6348 19.9647 48.0872C19.4171 47.5396 18.6744 47.232 17.8999 47.232C17.1255 47.232 16.3828 47.5396 15.8352 48.0872C15.2876 48.6348 14.98 49.3776 14.98 50.152C14.98 50.9264 15.2876 51.6691 15.8352 52.2167C16.3828 52.7643 17.1255 53.072 17.8999 53.072C18.6744 53.072 19.4171 52.7643 19.9647 52.2167C20.5123 51.6691 20.82 50.9264 20.82 50.152ZM84.68 50.552C84.68 49.7696 84.3691 49.0193 83.8159 48.466C83.2627 47.9128 82.5123 47.602 81.7299 47.602C80.9476 47.602 80.1972 47.9128 79.644 48.466C79.0907 49.0193 78.7799 49.7696 78.7799 50.552C78.7799 51.3344 79.0907 52.0847 79.644 52.638C80.1972 53.1912 80.9476 53.502 81.7299 53.502C82.5123 53.502 83.2627 53.1912 83.8159 52.638C84.3691 52.0847 84.68 51.3344 84.68 50.552ZM24.8999 51.792C24.1933 53.5387 23.1633 54.9153 21.8099 55.922C21.6871 56.0144 21.5927 56.1378 21.5378 56.2777C21.4829 56.4177 21.4698 56.5683 21.4999 56.712C22.0999 59.652 23.28 62.332 25.04 64.752C25.1266 64.872 25.2441 64.9686 25.382 65.0332C25.5199 65.0978 25.6738 65.1283 25.8299 65.122C27.6766 65.042 29.56 65.482 31.48 66.442C31.6114 66.5065 31.7602 66.5287 31.9067 66.5055C32.0532 66.4822 32.1904 66.4148 32.2999 66.312L41.48 57.492C41.5714 57.4024 41.6317 57.2804 41.653 57.1415C41.6744 57.0027 41.6559 56.8531 41.5999 56.712L39.6599 51.952C39.6015 51.805 39.5091 51.6786 39.3949 51.5893C39.2807 51.5001 39.15 51.4523 39.0199 51.452L25.3799 51.462C25.2769 51.4615 25.1759 51.4927 25.0902 51.5516C25.0046 51.6105 24.9382 51.6943 24.8999 51.792ZM61.5899 51.892L59.5699 56.342C59.4595 56.5809 59.4117 56.8351 59.4332 57.0685C59.4547 57.3018 59.5446 57.5025 59.6899 57.642L68.3299 66.012C68.4877 66.167 68.686 66.2732 68.9009 66.3176C69.1158 66.362 69.3378 66.3427 69.54 66.262C71.3733 65.5353 73.2066 65.3553 75.0399 65.722C75.1881 65.7544 75.3408 65.7452 75.4793 65.6955C75.6179 65.6457 75.7363 65.5576 75.8199 65.442C77.4866 63.082 78.6833 60.502 79.4099 57.702C79.4436 57.5678 79.4293 57.4254 79.3693 57.2982C79.3093 57.171 79.2073 57.0666 79.0799 57.002C77.0733 55.9887 75.6266 54.2853 74.74 51.892C74.6867 51.7477 74.5909 51.6233 74.4657 51.5356C74.3404 51.448 74.1918 51.4013 74.04 51.402H62.2599C62.1264 51.4015 61.9919 51.4476 61.8729 51.5346C61.7539 51.6216 61.6556 51.7458 61.5899 51.892ZM43.0499 59.102L34.01 67.612C33.9079 67.7081 33.83 67.8455 33.783 68.0126C33.736 68.1797 33.7212 68.3715 33.7399 68.572L34.23 73.592C34.2448 73.7675 34.2841 73.9291 34.3437 74.0607C34.4034 74.1924 34.4814 74.2894 34.57 74.342C37.17 75.882 39.9299 77.0287 42.8499 77.782C42.9963 77.8185 43.1501 77.8155 43.2957 77.7734C43.4414 77.7313 43.5739 77.6515 43.6799 77.542C45.1933 75.9953 46.9833 74.892 49.0499 74.232C49.1852 74.189 49.3031 74.1035 49.386 73.9882C49.4688 73.8729 49.5123 73.734 49.51 73.592L49.2799 61.452C49.2773 61.3104 49.2302 61.1719 49.1447 61.0543C49.0591 60.9367 48.9391 60.8454 48.7999 60.792L43.9099 58.952C43.7592 58.8952 43.5985 58.8791 43.4463 58.9056C43.2942 58.9322 43.1568 59.0002 43.0499 59.102ZM65.9999 70.982C66.1466 70.0287 66.4466 69.252 66.8999 68.652C67.0486 68.4557 67.1196 68.2114 67.0993 67.966C67.079 67.7205 66.9688 67.4912 66.79 67.322L57.9599 58.902C57.8108 58.7582 57.6159 58.6707 57.4082 58.6543C57.2005 58.6379 56.9927 58.6936 56.82 58.812C55.5 59.712 53.9233 60.332 52.0899 60.672C51.9496 60.6977 51.8227 60.7718 51.7313 60.8815C51.64 60.9911 51.5899 61.1293 51.5899 61.272V73.882C51.5902 74.0372 51.6345 74.1891 51.7177 74.3201C51.8009 74.4511 51.9196 74.5558 52.0599 74.622C53.7599 75.382 55.1833 76.412 56.3299 77.712C56.4332 77.8279 56.5621 77.9156 56.7041 77.9664C56.8461 78.0172 56.9963 78.0295 57.1399 78.002C60.1466 77.4353 62.97 76.382 65.61 74.842C65.7315 74.7705 65.8286 74.6611 65.8891 74.5276C65.9497 74.3941 65.9708 74.2425 65.9499 74.092C65.8166 73.0587 65.8332 72.022 65.9999 70.982ZM30.1099 71.982C30.1099 71.2129 29.8044 70.4752 29.2606 69.9314C28.7167 69.3875 27.9791 69.082 27.2099 69.082C26.4408 69.082 25.7032 69.3875 25.1593 69.9314C24.6155 70.4752 24.3099 71.2129 24.3099 71.982C24.3099 72.7511 24.6155 73.4887 25.1593 74.0326C25.7032 74.5765 26.4408 74.882 27.2099 74.882C27.9791 74.882 28.7167 74.5765 29.2606 74.0326C29.8044 73.4887 30.1099 72.7511 30.1099 71.982ZM75.8499 72.322C75.8499 71.5369 75.5381 70.7841 74.983 70.229C74.4279 69.6738 73.675 69.362 72.8899 69.362C72.1049 69.362 71.352 69.6738 70.7969 70.229C70.2418 70.7841 69.93 71.5369 69.93 72.322C69.93 73.107 70.2418 73.8599 70.7969 74.415C71.352 74.9701 72.1049 75.282 72.8899 75.282C73.675 75.282 74.4279 74.9701 74.983 74.415C75.5381 73.8599 75.8499 73.107 75.8499 72.322ZM52.8899 81.152C52.8899 80.3855 52.5855 79.6504 52.0435 79.1085C51.5015 78.5665 50.7664 78.262 49.9999 78.262C49.2335 78.262 48.4984 78.5665 47.9564 79.1085C47.4144 79.6504 47.1099 80.3855 47.1099 81.152C47.1099 81.9185 47.4144 82.6536 47.9564 83.1955C48.4984 83.7375 49.2335 84.042 49.9999 84.042C50.7664 84.042 51.5015 83.7375 52.0435 83.1955C52.5855 82.6536 52.8899 81.9185 52.8899 81.152Z" fill="white"/>
<path d="M50.4799 22.4722C52.0539 22.4722 53.3299 21.1962 53.3299 19.6222C53.3299 18.0482 52.0539 16.7722 50.4799 16.7722C48.9059 16.7722 47.6299 18.0482 47.6299 19.6222C47.6299 21.1962 48.9059 22.4722 50.4799 22.4722Z" fill="#EC5242"/>
<path d="M34.5298 30.0921C34.5631 28.9654 34.5998 27.8387 34.6398 26.7121C34.643 26.5586 34.6851 26.4084 34.762 26.2755C34.839 26.1426 34.9483 26.0313 35.0798 25.9521C37.6598 24.4254 40.4631 23.3154 43.4898 22.6221C43.6622 22.5814 43.843 22.5962 44.0064 22.6645C44.1698 22.7327 44.3075 22.8509 44.3998 23.0021C45.3864 24.6021 46.8098 25.6721 48.6698 26.2121C48.8173 26.2553 48.9469 26.3411 49.0388 26.4566C49.1308 26.572 49.1803 26.7108 49.1798 26.8521L49.3198 39.0821C49.3201 39.2176 49.2728 39.3536 49.1838 39.4728C49.0948 39.5921 48.9681 39.6893 48.8198 39.7521L43.8298 41.8521C43.6831 41.914 43.5284 41.9385 43.3858 41.9224C43.2432 41.9064 43.1191 41.8505 43.0298 41.7621L33.7398 32.7021C33.6417 32.6065 33.5821 32.4764 33.5712 32.3342C33.5602 32.1919 33.5986 32.0462 33.6798 31.9221C34.2331 31.0621 34.5165 30.4521 34.5298 30.0921Z" fill="#3D4047"/>
<path d="M56.6998 23.1122C56.9017 22.8928 57.153 22.7348 57.4195 22.6597C57.686 22.5845 57.9549 22.5959 58.1898 22.6922L65.8298 25.8222C66.0267 25.9017 66.1858 26.0599 66.2776 26.2675C66.3695 26.4752 66.388 26.7183 66.3298 26.9522C65.8565 28.8255 66.1065 30.5855 67.0798 32.2322C67.1535 32.3606 67.1847 32.5078 67.1684 32.6508C67.1521 32.7937 67.0893 32.9243 66.9899 33.0222L57.9698 41.5822C57.8708 41.6749 57.7398 41.7345 57.5927 41.754C57.4455 41.7735 57.2883 41.7521 57.1398 41.6922L52.1398 39.7422C51.9947 39.6855 51.8697 39.5934 51.7807 39.4777C51.6917 39.362 51.6426 39.2278 51.6398 39.0922L51.5898 26.8922C51.5906 26.7441 51.6396 26.6 51.7297 26.4812C51.8197 26.3623 51.946 26.275 52.0898 26.2322C53.6965 25.7389 55.2332 24.6988 56.6998 23.1122Z" fill="#3D4047"/>
<path d="M27.5699 31.3722C29.1936 31.3722 30.5099 30.0559 30.5099 28.4322C30.5099 26.8085 29.1936 25.4922 27.5699 25.4922C25.9462 25.4922 24.6299 26.8085 24.6299 28.4322C24.6299 30.0559 25.9462 31.3722 27.5699 31.3722Z" fill="#05265B"/>
<path d="M73.2596 31.6821C74.8667 31.6821 76.1696 30.3792 76.1696 28.7721C76.1696 27.1649 74.8667 25.8621 73.2596 25.8621C71.6524 25.8621 70.3496 27.1649 70.3496 28.7721C70.3496 30.3792 71.6524 31.6821 73.2596 31.6821Z" fill="#05265B"/>
<path d="M24.9798 35.5121C25.0597 35.3815 25.1768 35.277 25.317 35.2113C25.4572 35.1456 25.6145 35.1216 25.7698 35.1421C27.6565 35.4087 29.4965 35.0987 31.2898 34.2121C31.4279 34.1423 31.5847 34.1173 31.7386 34.1405C31.8926 34.1638 32.0362 34.2342 32.1498 34.3421L41.5598 43.2421C41.674 43.3508 41.7467 43.4957 41.765 43.6512C41.7832 43.8067 41.746 43.9628 41.6598 44.0921C40.6132 45.6387 39.9398 47.2054 39.6398 48.7921C39.6051 48.9647 39.5123 49.1198 39.3773 49.2311C39.2424 49.3424 39.0736 49.4028 38.8998 49.4021H25.8498C25.702 49.4022 25.5572 49.3575 25.4342 49.2737C25.3113 49.19 25.2157 49.071 25.1598 48.9321C24.4198 47.1387 23.3331 45.5921 21.8998 44.2921C21.7853 44.1891 21.7007 44.0585 21.6549 43.914C21.6091 43.7696 21.6039 43.6168 21.6398 43.4721C22.2731 40.7521 23.3865 38.0987 24.9798 35.5121Z" fill="#3D4047"/>
<path d="M74.7098 48.892C74.6453 49.0429 74.5381 49.1717 74.4012 49.2623C74.2644 49.3529 74.1039 49.4015 73.9398 49.402H62.3699C62.1206 49.4013 61.8802 49.3093 61.6941 49.1435C61.5081 48.9777 61.3892 48.7495 61.3599 48.502C61.2065 47.1353 60.5665 45.6253 59.4398 43.972C59.3474 43.8356 59.3087 43.6689 59.3307 43.502C59.3527 43.3351 59.434 43.179 59.5598 43.062L68.3098 34.812C68.4575 34.6709 68.6387 34.5727 68.8331 34.5285C69.0274 34.4844 69.2272 34.4959 69.4098 34.562C71.5298 35.3486 73.4865 35.5986 75.2798 35.312C75.4321 35.2846 75.5875 35.2993 75.7276 35.3542C75.8676 35.4092 75.9864 35.5021 76.0698 35.622C77.7031 37.9953 78.8798 40.6053 79.5998 43.452C79.6396 43.6008 79.6252 43.7589 79.5593 43.898C79.4934 44.0372 79.3802 44.1485 79.2399 44.212C77.1532 45.1986 75.6432 46.7586 74.7098 48.892Z" fill="#3D4047"/>
<path d="M50.4581 56.7413C54.2242 56.8004 57.3229 53.9431 57.3792 50.3592C57.4355 46.7753 54.428 43.822 50.6619 43.7629C46.8958 43.7037 43.7971 46.5611 43.7408 50.145C43.6845 53.7288 46.6919 56.6821 50.4581 56.7413Z" fill="#FAFAFA"/>
<path d="M17.9 53.0722C19.5126 53.0722 20.82 51.7648 20.82 50.1522C20.82 48.5395 19.5126 47.2322 17.9 47.2322C16.2873 47.2322 14.98 48.5395 14.98 50.1522C14.98 51.7648 16.2873 53.0722 17.9 53.0722Z" fill="#EC5242"/>
<path d="M81.7298 53.502C83.359 53.502 84.6798 52.1813 84.6798 50.5521C84.6798 48.9228 83.359 47.6021 81.7298 47.6021C80.1006 47.6021 78.7798 48.9228 78.7798 50.5521C78.7798 52.1813 80.1006 53.502 81.7298 53.502Z" fill="#EC5242"/>
<path d="M24.8997 51.7921C24.938 51.6945 25.0044 51.6107 25.09 51.5518C25.1757 51.4929 25.2767 51.4616 25.3797 51.4621L39.0197 51.4521C39.1498 51.4524 39.2805 51.5003 39.3947 51.5895C39.5089 51.6787 39.6013 51.8051 39.6597 51.9521L41.5997 56.7121C41.6557 56.8533 41.6742 57.0028 41.6528 57.1417C41.6314 57.2806 41.5712 57.4026 41.4797 57.4921L32.2997 66.3121C32.1901 66.4149 32.053 66.4824 31.9065 66.5056C31.76 66.5288 31.6112 66.5067 31.4797 66.4421C29.5597 65.4821 27.6764 65.0421 25.8297 65.1221C25.6735 65.1284 25.5197 65.0979 25.3818 65.0333C25.2439 64.9688 25.1264 64.8722 25.0397 64.7521C23.2797 62.3321 22.0997 59.6521 21.4997 56.7121C21.4695 56.5685 21.4827 56.4178 21.5376 56.2779C21.5925 56.138 21.6869 56.0146 21.8097 55.9221C23.1631 54.9155 24.1931 53.5388 24.8997 51.7921Z" fill="#3D4047"/>
<path d="M61.59 51.8921C61.6557 51.7459 61.754 51.6217 61.873 51.5347C61.992 51.4477 62.1265 51.4016 62.26 51.4021H74.04C74.1919 51.4014 74.3405 51.4481 74.4657 51.5357C74.591 51.6234 74.6868 51.7478 74.74 51.8921C75.6267 54.2854 77.0733 55.9888 79.08 57.0021C79.2073 57.0667 79.3094 57.1711 79.3694 57.2983C79.4293 57.4255 79.4436 57.5679 79.41 57.7021C78.6833 60.5021 77.4866 63.0821 75.82 65.4421C75.7364 65.5577 75.618 65.6458 75.4794 65.6956C75.3408 65.7453 75.1881 65.7545 75.04 65.7221C73.2067 65.3554 71.3733 65.5354 69.54 66.2621C69.3379 66.3428 69.1158 66.3622 68.901 66.3178C68.6861 66.2734 68.4877 66.1672 68.33 66.0121L59.69 57.6421C59.5446 57.5026 59.4548 57.3019 59.4333 57.0686C59.4117 56.8352 59.4596 56.5811 59.57 56.3421L61.59 51.8921Z" fill="#3D4047"/>
<path d="M43.0498 59.1021C43.1566 59.0004 43.294 58.9323 43.4462 58.9058C43.5983 58.8792 43.759 58.8953 43.9098 58.9521L48.7998 60.7921C48.9389 60.8455 49.059 60.9368 49.1445 61.0544C49.23 61.172 49.2771 61.3105 49.2798 61.4521L49.5098 73.5921C49.5122 73.7341 49.4687 73.873 49.3858 73.9883C49.3029 74.1036 49.1851 74.1891 49.0498 74.2321C46.9831 74.8921 45.1931 75.9954 43.6798 77.5421C43.5738 77.6516 43.4413 77.7314 43.2956 77.7735C43.1499 77.8156 42.9962 77.8186 42.8498 77.7821C39.9298 77.0288 37.1698 75.8821 34.5698 74.3421C34.4813 74.2895 34.4032 74.1925 34.3436 74.0609C34.2839 73.9292 34.2447 73.7676 34.2298 73.5921L33.7398 68.5721C33.7211 68.3716 33.7359 68.1798 33.7829 68.0127C33.8299 67.8456 33.9077 67.7082 34.0098 67.6121L43.0498 59.1021Z" fill="#3D4047"/>
<path d="M65.9998 70.9821C65.8331 72.0221 65.8165 73.0588 65.9498 74.0921C65.9707 74.2426 65.9496 74.3942 65.889 74.5277C65.8285 74.6612 65.7314 74.7706 65.6099 74.8421C62.9699 76.3821 60.1465 77.4354 57.1398 78.0021C56.9962 78.0296 56.846 78.0173 56.704 77.9665C56.562 77.9157 56.4331 77.828 56.3298 77.7121C55.1832 76.4121 53.7598 75.3821 52.0598 74.6221C51.9195 74.5559 51.8008 74.4512 51.7177 74.3202C51.6345 74.1892 51.5901 74.0373 51.5898 73.8821V61.2721C51.5898 61.1294 51.6399 60.9912 51.7312 60.8816C51.8226 60.772 51.9495 60.6978 52.0898 60.6721C53.9232 60.3321 55.4999 59.7121 56.8199 58.8121C56.9926 58.6937 57.2004 58.638 57.4081 58.6544C57.6158 58.6708 57.8107 58.7583 57.9598 58.9021L66.7899 67.3221C66.9687 67.4914 67.0789 67.7207 67.0992 67.9661C67.1195 68.2115 67.0485 68.4558 66.8998 68.6521C66.4465 69.2521 66.1465 70.0288 65.9998 70.9821Z" fill="#3D4047"/>
<path d="M27.2101 74.882C28.8117 74.882 30.11 73.5837 30.11 71.982C30.11 70.3804 28.8117 69.082 27.2101 69.082C25.6084 69.082 24.3101 70.3804 24.3101 71.982C24.3101 73.5837 25.6084 74.882 27.2101 74.882Z" fill="#05265B"/>
<path d="M72.8896 75.2821C74.5244 75.2821 75.8497 73.9568 75.8497 72.3221C75.8497 70.6873 74.5244 69.3621 72.8896 69.3621C71.2549 69.3621 69.9297 70.6873 69.9297 72.3221C69.9297 73.9568 71.2549 75.2821 72.8896 75.2821Z" fill="#05265B"/>
<path d="M49.9999 84.0422C51.596 84.0422 52.8899 82.7483 52.8899 81.1522C52.8899 79.5561 51.596 78.2622 49.9999 78.2622C48.4038 78.2622 47.1099 79.5561 47.1099 81.1522C47.1099 82.7483 48.4038 84.0422 49.9999 84.0422Z" fill="#EC5242"/>
</svg>
