<svg width="128" height="128" viewBox="0 0 128 128" fill="none" xmlns="http://www.w3.org/2000/svg">
<path d="M30.79 70.872C29.09 70.512 27.6999 69.7353 26.6199 68.542C25.6199 67.4353 25.0833 66.0487 25.01 64.382C24.8433 60.7353 26.77 58.4253 30.79 57.452C30.9384 57.4161 31.0747 57.3417 31.1853 57.2364C31.2959 57.1311 31.3768 56.9985 31.4199 56.852C32.3266 53.7253 33.7033 50.5253 35.5499 47.252C35.6423 47.0895 35.6925 46.9064 35.696 46.7195C35.6995 46.5326 35.6562 46.3478 35.57 46.182C34.0366 43.282 34.1133 40.7287 35.7999 38.522C36.9133 37.0753 38.3299 36.162 40.0499 35.782C41.8899 35.3753 43.6833 35.7153 45.4299 36.802C45.6055 36.9108 45.8065 36.9709 46.0122 36.9762C46.2179 36.9815 46.4208 36.9317 46.5999 36.832C49.9933 34.912 53.4033 33.5453 56.8299 32.732C57.0079 32.6894 57.1725 32.6031 57.3087 32.4809C57.4449 32.3586 57.5484 32.2043 57.6099 32.032C58.0499 30.812 58.6266 29.8153 59.3399 29.042C60.0199 28.3087 60.9866 27.762 62.2399 27.402C66.4999 26.1887 69.61 27.722 71.57 32.002C71.6393 32.1463 71.7376 32.2738 71.8584 32.3756C71.9792 32.4774 72.1196 32.5512 72.2699 32.592C75.9099 33.6053 79.3699 35.042 82.6499 36.902C82.7869 36.9769 82.9381 37.0202 83.0922 37.0289C83.2463 37.0376 83.3994 37.0113 83.54 36.952C88.5133 34.852 92.0099 36.1053 94.0299 40.712C94.7766 42.4187 94.5699 44.2753 93.4099 46.282C93.334 46.4148 93.2948 46.5648 93.2966 46.7162C93.2984 46.8676 93.341 47.0147 93.42 47.142C95.4 50.3687 96.8933 53.812 97.8999 57.472C97.9412 57.627 98.0128 57.7722 98.1106 57.8992C98.2085 58.0262 98.3306 58.1326 98.4699 58.212C100.063 59.1053 101 59.772 101.28 60.212C103.947 64.4653 103.063 68.0087 98.6299 70.842C98.2475 71.0882 97.956 71.4534 97.8 71.882C96.3933 75.7753 94.83 79.1387 93.11 81.972C93.0298 82.105 92.9825 82.2537 92.972 82.4053C92.9616 82.5569 92.9883 82.7068 93.05 82.842C95.1366 87.3887 93.9633 90.6387 89.5299 92.592C87.4766 93.492 85.3099 93.342 83.0299 92.142C82.8897 92.0705 82.7365 92.0316 82.5821 92.0281C82.4278 92.0246 82.2764 92.0568 82.1399 92.122C78.9066 93.702 75.5533 94.962 72.0799 95.902C71.8897 95.9557 71.7122 96.0461 71.5577 96.1679C71.4033 96.2898 71.2749 96.4407 71.1799 96.612C68.3599 101.739 64.5166 103.065 59.6499 100.592C58.4699 99.992 57.5199 98.5653 56.7999 96.312C56.7533 96.1671 56.6715 96.0357 56.5617 95.9294C56.4519 95.823 56.3173 95.745 56.1699 95.702C52.7366 94.6887 49.4399 93.3353 46.2799 91.642C46.1471 91.5711 45.9977 91.5341 45.8445 91.5341C45.6913 91.5341 45.5387 91.5711 45.3999 91.642C43.5199 92.6087 41.63 92.8987 39.73 92.512C37.8366 92.132 36.3433 91.1687 35.2499 89.622C33.6833 87.3887 33.7333 84.8387 35.3999 81.972C35.4823 81.8254 35.5255 81.6601 35.5255 81.492C35.5255 81.3239 35.4823 81.1586 35.3999 81.012C33.5866 77.8587 32.2533 74.6687 31.3999 71.442C31.3643 71.3013 31.2882 71.1732 31.1803 71.0724C31.0724 70.9715 30.9371 70.9021 30.79 70.872ZM67.3299 33.622C67.3299 32.8661 67.0297 32.1412 66.4952 31.6067C65.9607 31.0723 65.2358 30.772 64.48 30.772C63.7241 30.772 62.9992 31.0723 62.4647 31.6067C61.9302 32.1412 61.6299 32.8661 61.6299 33.622C61.6299 34.3779 61.9302 35.1028 62.4647 35.6372C62.9992 36.1717 63.7241 36.472 64.48 36.472C65.2358 36.472 65.9607 36.1717 66.4952 35.6372C67.0297 35.1028 67.3299 34.3779 67.3299 33.622ZM48.5299 44.092C48.5166 44.452 48.2333 45.062 47.6799 45.922C47.5988 46.0461 47.5604 46.1918 47.5713 46.3341C47.5823 46.4764 47.6419 46.6064 47.7399 46.702L57.0299 55.762C57.1193 55.8504 57.2433 55.9063 57.386 55.9224C57.5286 55.9384 57.6833 55.9139 57.8299 55.852L62.82 53.752C62.9683 53.6892 63.0949 53.592 63.1839 53.4727C63.2729 53.3535 63.3203 53.2175 63.32 53.082L63.1799 40.852C63.1804 40.7108 63.131 40.5719 63.039 40.4565C62.947 40.3411 62.8175 40.2552 62.6699 40.212C60.8099 39.672 59.3866 38.602 58.3999 37.002C58.3077 36.8508 58.17 36.7326 58.0066 36.6644C57.8431 36.5961 57.6623 36.5813 57.4899 36.622C54.4633 37.3153 51.6599 38.4253 49.0799 39.952C48.9484 40.0313 48.8391 40.1425 48.7622 40.2754C48.6852 40.4083 48.6432 40.5585 48.6399 40.712C48.5999 41.8387 48.5633 42.9653 48.5299 44.092ZM70.6999 37.112C69.2333 38.6987 67.6966 39.7387 66.0899 40.232C65.9461 40.2749 65.8198 40.3622 65.7298 40.481C65.6397 40.5998 65.5907 40.7439 65.5899 40.892L65.6399 53.092C65.6427 53.2276 65.6918 53.3618 65.7808 53.4775C65.8698 53.5932 65.9948 53.6853 66.1399 53.742L71.1399 55.692C71.2884 55.7519 71.4456 55.7733 71.5928 55.7538C71.7399 55.7343 71.8709 55.6747 71.9699 55.582L80.99 47.022C81.0894 46.9242 81.1522 46.7935 81.1685 46.6506C81.1848 46.5076 81.1536 46.3604 81.0799 46.232C80.1066 44.5853 79.8566 42.8253 80.3299 40.952C80.3881 40.7181 80.3696 40.475 80.2777 40.2673C80.1859 40.0597 80.0268 39.9015 79.8299 39.822L72.1899 36.692C71.955 36.5957 71.6861 36.5844 71.4196 36.6595C71.1531 36.7346 70.9018 36.8926 70.6999 37.112ZM44.51 42.432C44.51 41.6523 44.2002 40.9045 43.6488 40.3531C43.0975 39.8017 42.3497 39.492 41.57 39.492C40.7902 39.492 40.0424 39.8017 39.491 40.3531C38.9397 40.9045 38.6299 41.6523 38.6299 42.432C38.6299 43.2117 38.9397 43.9595 39.491 44.5109C40.0424 45.0622 40.7902 45.372 41.57 45.372C42.3497 45.372 43.0975 45.0622 43.6488 44.5109C44.2002 43.9595 44.51 43.2117 44.51 42.432ZM90.17 42.772C90.17 42.0002 89.8633 41.26 89.3176 40.7143C88.7719 40.1686 88.0317 39.862 87.2599 39.862C86.4881 39.862 85.748 40.1686 85.2022 40.7143C84.6565 41.26 84.3499 42.0002 84.3499 42.772C84.3499 43.1541 84.4252 43.5325 84.5714 43.8856C84.7177 44.2387 84.932 44.5595 85.2022 44.8297C85.4725 45.0999 85.7933 45.3142 86.1463 45.4605C86.4994 45.6067 86.8778 45.682 87.2599 45.682C87.6421 45.682 88.0205 45.6067 88.3736 45.4605C88.7266 45.3142 89.0474 45.0999 89.3176 44.8297C89.5878 44.5595 89.8022 44.2387 89.9484 43.8856C90.0946 43.5325 90.17 43.1541 90.17 42.772ZM38.98 49.512C37.3866 52.0987 36.2733 54.752 35.6399 57.472C35.604 57.6167 35.6092 57.7695 35.655 57.9139C35.7008 58.0584 35.7855 58.1891 35.8999 58.292C37.3333 59.592 38.4199 61.1387 39.1599 62.932C39.2158 63.0709 39.3114 63.1899 39.4344 63.2737C39.5573 63.3574 39.7021 63.4021 39.8499 63.402H52.8999C53.0737 63.4027 53.2425 63.3423 53.3775 63.231C53.5124 63.1198 53.6052 62.9646 53.6399 62.792C53.9399 61.2053 54.6133 59.6387 55.6599 58.092C55.7461 57.9627 55.7834 57.8066 55.7651 57.6511C55.7468 57.4956 55.6741 57.3507 55.5599 57.242L46.1499 48.342C46.0363 48.2341 45.8927 48.1637 45.7387 48.1405C45.5848 48.1172 45.428 48.1422 45.29 48.212C43.4966 49.0987 41.6566 49.4087 39.7699 49.142C39.6147 49.1215 39.4574 49.1455 39.3171 49.2112C39.1769 49.2769 39.0598 49.3814 38.98 49.512ZM88.7099 62.892C89.6433 60.7587 91.1533 59.1987 93.24 58.212C93.3803 58.1485 93.4935 58.0372 93.5594 57.8981C93.6253 57.7589 93.6397 57.6008 93.5999 57.452C92.8799 54.6053 91.7032 51.9953 90.0699 49.622C89.9865 49.5021 89.8677 49.4092 89.7277 49.3543C89.5876 49.2993 89.4322 49.2846 89.2799 49.312C87.4866 49.5987 85.5299 49.3487 83.4099 48.562C83.2273 48.496 83.0275 48.4844 82.8332 48.5285C82.6388 48.5727 82.4576 48.6709 82.3099 48.812L73.5599 57.062C73.4341 57.179 73.3529 57.3351 73.3308 57.502C73.3088 57.6689 73.3475 57.8356 73.4399 57.972C74.5666 59.6253 75.2066 61.1353 75.36 62.502C75.3893 62.7495 75.5082 62.9777 75.6942 63.1435C75.8803 63.3093 76.1207 63.4013 76.37 63.402H87.9399C88.1041 63.4015 88.2645 63.3529 88.4013 63.2623C88.5382 63.1717 88.6455 63.0429 88.7099 62.892ZM71.3792 64.3591C71.3925 63.5069 71.2294 62.6603 70.8991 61.8676C70.5687 61.0749 70.0777 60.3517 69.4539 59.7391C68.8301 59.1266 68.0859 58.6368 67.2637 58.2977C66.4415 57.9586 65.5573 57.7769 64.6618 57.7628C63.7663 57.7487 62.877 57.9026 62.0445 58.2158C61.212 58.5289 60.4528 58.9951 59.8101 59.5877C59.1674 60.1803 58.6539 60.8878 58.2988 61.6697C57.9438 62.4517 57.7541 63.2927 57.7407 64.1449C57.7273 64.9971 57.8905 65.8437 58.2208 66.6364C58.5512 67.4291 59.0422 68.1523 59.666 68.7648C60.2897 69.3774 61.034 69.8672 61.8562 70.2063C62.6784 70.5454 63.5625 70.7271 64.458 70.7412C65.3535 70.7553 66.2429 70.6013 67.0754 70.2882C67.9078 69.9751 68.6671 69.5089 69.3098 68.9163C69.9525 68.3237 70.466 67.6162 70.821 66.8343C71.1761 66.0523 71.3658 65.2113 71.3792 64.3591ZM34.82 64.152C34.82 63.3776 34.5123 62.6348 33.9647 62.0872C33.4171 61.5396 32.6744 61.232 31.8999 61.232C31.1255 61.232 30.3828 61.5396 29.8352 62.0872C29.2876 62.6348 28.98 63.3776 28.98 64.152C28.98 64.9264 29.2876 65.6691 29.8352 66.2167C30.3828 66.7643 31.1255 67.072 31.8999 67.072C32.6744 67.072 33.4171 66.7643 33.9647 66.2167C34.5123 65.6691 34.82 64.9264 34.82 64.152ZM98.68 64.552C98.68 63.7696 98.3691 63.0193 97.8159 62.466C97.2627 61.9128 96.5123 61.602 95.7299 61.602C94.9476 61.602 94.1972 61.9128 93.644 62.466C93.0907 63.0193 92.7799 63.7696 92.7799 64.552C92.7799 65.3344 93.0907 66.0847 93.644 66.638C94.1972 67.1912 94.9476 67.502 95.7299 67.502C96.5123 67.502 97.2627 67.1912 97.8159 66.638C98.3691 66.0847 98.68 65.3344 98.68 64.552ZM38.8999 65.792C38.1933 67.5387 37.1633 68.9153 35.8099 69.922C35.6871 70.0144 35.5927 70.1378 35.5378 70.2777C35.4829 70.4177 35.4698 70.5683 35.4999 70.712C36.0999 73.652 37.28 76.332 39.04 78.752C39.1266 78.872 39.2441 78.9686 39.382 79.0332C39.5199 79.0978 39.6738 79.1283 39.8299 79.122C41.6766 79.042 43.56 79.482 45.48 80.442C45.6114 80.5065 45.7602 80.5287 45.9067 80.5055C46.0532 80.4822 46.1904 80.4148 46.2999 80.312L55.48 71.492C55.5714 71.4024 55.6317 71.2804 55.653 71.1415C55.6744 71.0027 55.6559 70.8531 55.5999 70.712L53.6599 65.952C53.6015 65.805 53.5091 65.6786 53.3949 65.5893C53.2807 65.5001 53.15 65.4523 53.0199 65.452L39.3799 65.462C39.2769 65.4615 39.1759 65.4927 39.0902 65.5516C39.0046 65.6105 38.9382 65.6943 38.8999 65.792ZM75.5899 65.892L73.5699 70.342C73.4595 70.5809 73.4117 70.8351 73.4332 71.0685C73.4547 71.3018 73.5446 71.5025 73.6899 71.642L82.3299 80.012C82.4877 80.167 82.686 80.2732 82.9009 80.3176C83.1158 80.362 83.3378 80.3427 83.54 80.262C85.3733 79.5353 87.2066 79.3553 89.0399 79.722C89.1881 79.7544 89.3408 79.7452 89.4793 79.6955C89.6179 79.6457 89.7363 79.5576 89.8199 79.442C91.4866 77.082 92.6833 74.502 93.4099 71.702C93.4436 71.5678 93.4293 71.4254 93.3693 71.2982C93.3093 71.171 93.2073 71.0666 93.0799 71.002C91.0733 69.9887 89.6266 68.2853 88.74 65.892C88.6867 65.7477 88.5909 65.6233 88.4657 65.5356C88.3404 65.448 88.1918 65.4013 88.04 65.402H76.2599C76.1264 65.4015 75.9919 65.4476 75.8729 65.5346C75.7539 65.6216 75.6556 65.7458 75.5899 65.892ZM57.0499 73.102L48.01 81.612C47.9079 81.7081 47.83 81.8455 47.783 82.0126C47.736 82.1797 47.7212 82.3715 47.7399 82.572L48.23 87.592C48.2448 87.7675 48.2841 87.9291 48.3437 88.0607C48.4034 88.1924 48.4814 88.2894 48.57 88.342C51.17 89.882 53.9299 91.0287 56.8499 91.782C56.9964 91.8185 57.1501 91.8155 57.2957 91.7734C57.4414 91.7313 57.5739 91.6515 57.6799 91.542C59.1933 89.9953 60.9833 88.892 63.0499 88.232C63.1852 88.189 63.3031 88.1035 63.386 87.9882C63.4688 87.8729 63.5123 87.734 63.51 87.592L63.2799 75.452C63.2773 75.3104 63.2302 75.1719 63.1447 75.0543C63.0591 74.9367 62.9391 74.8454 62.7999 74.792L57.9099 72.952C57.7592 72.8952 57.5985 72.8791 57.4463 72.9056C57.2942 72.9322 57.1568 73.0002 57.0499 73.102ZM79.9999 84.982C80.1466 84.0287 80.4466 83.252 80.8999 82.652C81.0486 82.4557 81.1196 82.2114 81.0993 81.966C81.079 81.7205 80.9688 81.4912 80.79 81.322L71.9599 72.902C71.8108 72.7582 71.6159 72.6707 71.4082 72.6543C71.2005 72.6379 70.9927 72.6936 70.82 72.812C69.5 73.712 67.9233 74.332 66.0899 74.672C65.9496 74.6977 65.8227 74.7718 65.7313 74.8815C65.64 74.9911 65.5899 75.1293 65.5899 75.272V87.882C65.5902 88.0372 65.6345 88.1891 65.7177 88.3201C65.8009 88.4511 65.9196 88.5558 66.0599 88.622C67.7599 89.382 69.1833 90.412 70.3299 91.712C70.4332 91.8279 70.5621 91.9155 70.7041 91.9664C70.8461 92.0172 70.9963 92.0295 71.1399 92.002C74.1466 91.4353 76.97 90.382 79.61 88.842C79.7315 88.7705 79.8286 88.6611 79.8891 88.5276C79.9497 88.3941 79.9708 88.2425 79.9499 88.092C79.8166 87.0587 79.8332 86.022 79.9999 84.982ZM44.1099 85.982C44.1099 85.2129 43.8044 84.4752 43.2606 83.9314C42.7167 83.3875 41.9791 83.082 41.2099 83.082C40.4408 83.082 39.7032 83.3875 39.1593 83.9314C38.6155 84.4752 38.3099 85.2129 38.3099 85.982C38.3099 86.7511 38.6155 87.4887 39.1593 88.0326C39.7032 88.5765 40.4408 88.882 41.2099 88.882C41.9791 88.882 42.7167 88.5765 43.2606 88.0326C43.8044 87.4887 44.1099 86.7511 44.1099 85.982ZM89.8499 86.322C89.8499 85.5369 89.5381 84.7841 88.983 84.229C88.4279 83.6738 87.675 83.362 86.8899 83.362C86.1049 83.362 85.352 83.6738 84.7969 84.229C84.2418 84.7841 83.93 85.5369 83.93 86.322C83.93 87.107 84.2418 87.8599 84.7969 88.415C85.352 88.9701 86.1049 89.282 86.8899 89.282C87.675 89.282 88.4279 88.9701 88.983 88.415C89.5381 87.8599 89.8499 87.107 89.8499 86.322ZM66.8899 95.152C66.8899 94.3855 66.5855 93.6504 66.0435 93.1085C65.5015 92.5665 64.7664 92.262 63.9999 92.262C63.2335 92.262 62.4984 92.5665 61.9564 93.1085C61.4144 93.6504 61.1099 94.3855 61.1099 95.152C61.1099 95.9185 61.4144 96.6536 61.9564 97.1955C62.4984 97.7375 63.2335 98.042 63.9999 98.042C64.7664 98.042 65.5015 97.7375 66.0435 97.1955C66.5855 96.6536 66.8899 95.9185 66.8899 95.152Z" fill="white"/>
<path d="M64.4799 36.4722C66.0539 36.4722 67.3299 35.1962 67.3299 33.6222C67.3299 32.0482 66.0539 30.7722 64.4799 30.7722C62.9059 30.7722 61.6299 32.0482 61.6299 33.6222C61.6299 35.1962 62.9059 36.4722 64.4799 36.4722Z" fill="#EC5242"/>
<path d="M48.5298 44.0921C48.5631 42.9654 48.5998 41.8387 48.6398 40.7121C48.643 40.5586 48.6851 40.4084 48.762 40.2755C48.839 40.1426 48.9483 40.0313 49.0798 39.9521C51.6598 38.4254 54.4631 37.3154 57.4898 36.6221C57.6622 36.5814 57.843 36.5962 58.0064 36.6645C58.1698 36.7327 58.3075 36.8509 58.3998 37.0021C59.3864 38.6021 60.8098 39.6721 62.6698 40.2121C62.8173 40.2553 62.9469 40.3411 63.0388 40.4566C63.1308 40.572 63.1803 40.7108 63.1798 40.8521L63.3198 53.0821C63.3201 53.2176 63.2728 53.3536 63.1838 53.4728C63.0948 53.5921 62.9681 53.6893 62.8198 53.7521L57.8298 55.8521C57.6831 55.914 57.5284 55.9385 57.3858 55.9224C57.2432 55.9064 57.1191 55.8505 57.0298 55.7621L47.7398 46.7021C47.6417 46.6065 47.5821 46.4764 47.5712 46.3342C47.5602 46.1919 47.5986 46.0462 47.6798 45.9221C48.2331 45.0621 48.5165 44.4521 48.5298 44.0921Z" fill="#3D4047"/>
<path d="M70.6998 37.1122C70.9017 36.8928 71.153 36.7348 71.4195 36.6597C71.686 36.5845 71.9549 36.5959 72.1898 36.6922L79.8298 39.8222C80.0267 39.9017 80.1858 40.0599 80.2776 40.2675C80.3695 40.4752 80.388 40.7183 80.3298 40.9522C79.8565 42.8255 80.1065 44.5855 81.0798 46.2322C81.1535 46.3606 81.1847 46.5078 81.1684 46.6508C81.1521 46.7937 81.0893 46.9243 80.9899 47.0222L71.9698 55.5822C71.8708 55.6749 71.7398 55.7345 71.5927 55.754C71.4455 55.7735 71.2883 55.7521 71.1398 55.6922L66.1398 53.7422C65.9947 53.6855 65.8697 53.5934 65.7807 53.4777C65.6917 53.362 65.6426 53.2278 65.6398 53.0922L65.5898 40.8922C65.5906 40.7441 65.6396 40.6 65.7297 40.4812C65.8197 40.3623 65.946 40.275 66.0898 40.2322C67.6965 39.7389 69.2332 38.6988 70.6998 37.1122Z" fill="#3D4047"/>
<path d="M41.5699 45.3722C43.1936 45.3722 44.5099 44.0559 44.5099 42.4322C44.5099 40.8085 43.1936 39.4922 41.5699 39.4922C39.9462 39.4922 38.6299 40.8085 38.6299 42.4322C38.6299 44.0559 39.9462 45.3722 41.5699 45.3722Z" fill="#05265B"/>
<path d="M87.2596 45.6821C88.8667 45.6821 90.1696 44.3792 90.1696 42.7721C90.1696 41.1649 88.8667 39.8621 87.2596 39.8621C85.6524 39.8621 84.3496 41.1649 84.3496 42.7721C84.3496 44.3792 85.6524 45.6821 87.2596 45.6821Z" fill="#05265B"/>
<path d="M38.9798 49.5121C39.0597 49.3815 39.1768 49.277 39.317 49.2113C39.4572 49.1456 39.6145 49.1216 39.7698 49.1421C41.6565 49.4087 43.4965 49.0987 45.2898 48.2121C45.4279 48.1423 45.5847 48.1173 45.7386 48.1405C45.8926 48.1638 46.0362 48.2342 46.1498 48.3421L55.5598 57.2421C55.674 57.3508 55.7467 57.4957 55.765 57.6512C55.7832 57.8067 55.746 57.9628 55.6598 58.0921C54.6132 59.6387 53.9398 61.2054 53.6398 62.7921C53.6051 62.9647 53.5123 63.1198 53.3773 63.2311C53.2424 63.3424 53.0736 63.4028 52.8998 63.4021H39.8498C39.702 63.4022 39.5572 63.3575 39.4342 63.2737C39.3113 63.19 39.2157 63.071 39.1598 62.9321C38.4198 61.1387 37.3331 59.5921 35.8998 58.2921C35.7853 58.1891 35.7007 58.0585 35.6549 57.914C35.6091 57.7696 35.6039 57.6168 35.6398 57.4721C36.2731 54.7521 37.3865 52.0987 38.9798 49.5121Z" fill="#3D4047"/>
<path d="M88.7098 62.892C88.6453 63.0429 88.5381 63.1717 88.4012 63.2623C88.2644 63.3529 88.1039 63.4015 87.9398 63.402H76.3699C76.1206 63.4013 75.8802 63.3093 75.6941 63.1435C75.5081 62.9777 75.3892 62.7495 75.3599 62.502C75.2065 61.1353 74.5665 59.6253 73.4398 57.972C73.3474 57.8356 73.3087 57.6689 73.3307 57.502C73.3527 57.3351 73.434 57.179 73.5598 57.062L82.3098 48.812C82.4575 48.6709 82.6387 48.5727 82.8331 48.5285C83.0274 48.4844 83.2272 48.4959 83.4098 48.562C85.5298 49.3486 87.4865 49.5986 89.2798 49.312C89.4321 49.2846 89.5875 49.2993 89.7276 49.3542C89.8676 49.4092 89.9864 49.5021 90.0698 49.622C91.7031 51.9953 92.8798 54.6053 93.5998 57.452C93.6396 57.6008 93.6252 57.7589 93.5593 57.898C93.4934 58.0372 93.3802 58.1485 93.2399 58.212C91.1532 59.1986 89.6432 60.7586 88.7098 62.892Z" fill="#3D4047"/>
<path d="M64.4581 70.7413C68.2242 70.8004 71.3229 67.9431 71.3792 64.3592C71.4355 60.7753 68.428 57.822 64.6619 57.7629C60.8958 57.7037 57.7971 60.5611 57.7408 64.145C57.6845 67.7288 60.6919 70.6821 64.4581 70.7413Z" fill="#FAFAFA"/>
<path d="M31.9 67.0722C33.5126 67.0722 34.82 65.7648 34.82 64.1522C34.82 62.5395 33.5126 61.2322 31.9 61.2322C30.2873 61.2322 28.98 62.5395 28.98 64.1522C28.98 65.7648 30.2873 67.0722 31.9 67.0722Z" fill="#EC5242"/>
<path d="M95.7298 67.502C97.359 67.502 98.6798 66.1813 98.6798 64.5521C98.6798 62.9228 97.359 61.6021 95.7298 61.6021C94.1006 61.6021 92.7798 62.9228 92.7798 64.5521C92.7798 66.1813 94.1006 67.502 95.7298 67.502Z" fill="#EC5242"/>
<path d="M38.8997 65.7921C38.938 65.6945 39.0044 65.6107 39.09 65.5518C39.1757 65.4929 39.2767 65.4616 39.3797 65.4621L53.0197 65.4521C53.1498 65.4524 53.2805 65.5003 53.3947 65.5895C53.5089 65.6787 53.6013 65.8051 53.6597 65.9521L55.5997 70.7121C55.6557 70.8533 55.6742 71.0028 55.6528 71.1417C55.6314 71.2806 55.5712 71.4026 55.4797 71.4921L46.2997 80.3121C46.1901 80.4149 46.053 80.4824 45.9065 80.5056C45.76 80.5288 45.6112 80.5067 45.4797 80.4421C43.5597 79.4821 41.6764 79.0421 39.8297 79.1221C39.6735 79.1284 39.5197 79.0979 39.3818 79.0333C39.2439 78.9688 39.1264 78.8722 39.0397 78.7521C37.2797 76.3321 36.0997 73.6521 35.4997 70.7121C35.4695 70.5685 35.4827 70.4178 35.5376 70.2779C35.5925 70.138 35.6869 70.0146 35.8097 69.9221C37.1631 68.9155 38.1931 67.5388 38.8997 65.7921Z" fill="#3D4047"/>
<path d="M75.59 65.8921C75.6557 65.7459 75.754 65.6217 75.873 65.5347C75.992 65.4477 76.1265 65.4016 76.26 65.4021H88.04C88.1919 65.4014 88.3405 65.4481 88.4657 65.5357C88.591 65.6234 88.6868 65.7478 88.74 65.8921C89.6267 68.2854 91.0733 69.9888 93.08 71.0021C93.2073 71.0667 93.3094 71.1711 93.3694 71.2983C93.4293 71.4255 93.4436 71.5679 93.41 71.7021C92.6833 74.5021 91.4866 77.0821 89.82 79.4421C89.7364 79.5577 89.618 79.6458 89.4794 79.6956C89.3408 79.7453 89.1881 79.7545 89.04 79.7221C87.2067 79.3554 85.3733 79.5354 83.54 80.2621C83.3379 80.3428 83.1158 80.3622 82.901 80.3178C82.6861 80.2734 82.4877 80.1672 82.33 80.0121L73.69 71.6421C73.5446 71.5026 73.4548 71.3019 73.4333 71.0686C73.4117 70.8352 73.4596 70.5811 73.57 70.3421L75.59 65.8921Z" fill="#3D4047"/>
<path d="M57.0498 73.1021C57.1566 73.0004 57.294 72.9323 57.4462 72.9058C57.5983 72.8792 57.759 72.8953 57.9098 72.9521L62.7998 74.7921C62.9389 74.8455 63.059 74.9368 63.1445 75.0544C63.23 75.172 63.2771 75.3105 63.2798 75.4521L63.5098 87.5921C63.5122 87.7341 63.4687 87.873 63.3858 87.9883C63.3029 88.1036 63.1851 88.1891 63.0498 88.2321C60.9831 88.8921 59.1931 89.9954 57.6798 91.5421C57.5738 91.6516 57.4413 91.7314 57.2956 91.7735C57.1499 91.8156 56.9962 91.8186 56.8498 91.7821C53.9298 91.0288 51.1698 89.8821 48.5698 88.3421C48.4813 88.2895 48.4032 88.1925 48.3436 88.0609C48.2839 87.9292 48.2447 87.7676 48.2298 87.5921L47.7398 82.5721C47.7211 82.3716 47.7359 82.1798 47.7829 82.0127C47.8299 81.8456 47.9077 81.7082 48.0098 81.6121L57.0498 73.1021Z" fill="#3D4047"/>
<path d="M79.9998 84.9821C79.8332 86.0221 79.8165 87.0588 79.9498 88.0921C79.9707 88.2426 79.9496 88.3942 79.889 88.5277C79.8285 88.6612 79.7314 88.7706 79.6099 88.8421C76.9699 90.3821 74.1465 91.4355 71.1398 92.0021C70.9962 92.0296 70.846 92.0173 70.704 91.9665C70.562 91.9157 70.4331 91.828 70.3298 91.7121C69.1832 90.4121 67.7598 89.3821 66.0598 88.6221C65.9195 88.5559 65.8008 88.4512 65.7177 88.3202C65.6345 88.1892 65.5901 88.0373 65.5898 87.8821V75.2721C65.5898 75.1294 65.6399 74.9912 65.7312 74.8816C65.8226 74.772 65.9495 74.6978 66.0898 74.6721C67.9232 74.3321 69.4999 73.7121 70.8199 72.8121C70.9926 72.6937 71.2004 72.638 71.4081 72.6544C71.6158 72.6708 71.8107 72.7583 71.9598 72.9021L80.7899 81.3221C80.9687 81.4914 81.0789 81.7207 81.0992 81.9661C81.1195 82.2115 81.0485 82.4558 80.8998 82.6521C80.4465 83.2521 80.1465 84.0288 79.9998 84.9821Z" fill="#3D4047"/>
<path d="M41.2101 88.882C42.8117 88.882 44.11 87.5837 44.11 85.982C44.11 84.3804 42.8117 83.082 41.2101 83.082C39.6084 83.082 38.3101 84.3804 38.3101 85.982C38.3101 87.5837 39.6084 88.882 41.2101 88.882Z" fill="#05265B"/>
<path d="M86.8896 89.2821C88.5244 89.2821 89.8497 87.9568 89.8497 86.3221C89.8497 84.6873 88.5244 83.3621 86.8896 83.3621C85.2549 83.3621 83.9297 84.6873 83.9297 86.3221C83.9297 87.9568 85.2549 89.2821 86.8896 89.2821Z" fill="#05265B"/>
<path d="M63.9999 98.0422C65.596 98.0422 66.8899 96.7483 66.8899 95.1522C66.8899 93.5561 65.596 92.2622 63.9999 92.2622C62.4038 92.2622 61.1099 93.5561 61.1099 95.1522C61.1099 96.7483 62.4038 98.0422 63.9999 98.0422Z" fill="#EC5242"/>
</svg>
