<svg width="128" height="128" viewBox="0 0 128 128" fill="none" xmlns="http://www.w3.org/2000/svg">
<path d="M69.7737 31.0977C69.7487 33.4845 68.7419 35.7633 66.9746 37.4327C65.2073 39.1021 62.8244 40.0254 60.35 39.9995C59.1249 39.9867 57.9142 39.7412 56.787 39.2771C55.6598 38.813 54.6383 38.1393 53.7807 37.2946C52.9231 36.4498 52.2463 35.4505 51.7889 34.3537C51.3314 33.257 51.1024 32.0842 51.1147 30.9023C51.1397 28.5155 52.1466 26.2368 53.9139 24.5673C55.6812 22.8979 58.0641 21.9746 60.5384 22.0005C61.7636 22.0134 62.9744 22.2588 64.1016 22.723C65.2287 23.1871 66.2503 23.8607 67.1078 24.7055C67.9654 25.5502 68.6422 26.5495 69.0997 27.6463C69.5571 28.7431 69.7861 29.9159 69.7737 31.0977ZM65.8743 30.99C65.8743 30.2756 65.7335 29.5682 65.4601 28.9082C65.1867 28.2482 64.7861 27.6485 64.2809 27.1434C63.7758 26.6382 63.1761 26.2375 62.516 25.9641C61.856 25.6907 61.1486 25.55 60.4343 25.55C59.7199 25.55 59.0125 25.6907 58.3525 25.9641C57.6925 26.2375 57.0927 26.6382 56.5876 27.1434C56.0824 27.6485 55.6817 28.2482 55.4083 28.9082C55.1349 29.5682 54.9943 30.2756 54.9943 30.99C54.9943 32.4328 55.5674 33.8165 56.5876 34.8367C57.6078 35.8569 58.9915 36.43 60.4343 36.43C61.877 36.43 63.2607 35.8569 64.2809 34.8367C65.3011 33.8165 65.8743 32.4328 65.8743 30.99Z" fill="white"/>
<path d="M60.4341 36.43C63.4386 36.43 65.8741 33.9945 65.8741 30.99C65.8741 27.9856 63.4386 25.55 60.4341 25.55C57.4297 25.55 54.9941 27.9856 54.9941 30.99C54.9941 33.9945 57.4297 36.43 60.4341 36.43Z" fill="#3D4047"/>
<path d="M81.8741 38.3901C86.7141 40.7634 88.7674 44.4134 88.034 49.3401C88.0025 49.5571 88.0228 49.7785 88.0932 49.9862C88.1636 50.1939 88.2822 50.382 88.4392 50.5352C88.5962 50.6883 88.7872 50.8021 88.9966 50.8672C89.206 50.9324 89.4279 50.9471 89.6441 50.9101C91.9108 50.5167 93.7741 50.6901 95.2341 51.4301C95.3707 51.4981 95.4906 51.6003 95.5843 51.7287C95.678 51.857 95.7429 52.0081 95.774 52.1701C96.3007 55.0034 96.3374 57.8434 95.8841 60.6901C95.8575 60.8649 95.7931 61.0254 95.6988 61.1517C95.6046 61.2779 95.4847 61.3643 95.3541 61.4001L93.1741 62.0101C93.0307 62.0502 92.9041 62.1248 92.8138 62.2224C92.7234 62.32 92.6743 62.4351 92.6741 62.5501C92.5541 82.0701 92.5341 93.8834 92.6141 97.9901C92.7074 102.823 90.3741 105.22 85.6141 105.18C70.9474 105.053 56.2807 104.99 41.6141 104.99C37.7807 104.99 35.8674 102.907 35.8741 98.7401C35.9007 86.6801 35.8774 74.6167 35.8041 62.5501C35.8039 62.4218 35.7504 62.2987 35.6551 62.2071C35.5597 62.1155 35.4301 62.0627 35.2941 62.0601C33.0207 62.0467 31.9241 60.9567 32.0041 58.7901C32.0441 57.4701 32.0641 56.7667 32.0641 56.6801C32.0174 55.2001 32.0774 53.9001 32.2441 52.7801C32.4507 51.4201 33.2407 50.7401 34.6141 50.7401H43.3741C43.5318 50.7405 43.6864 50.699 43.8219 50.6198C43.9574 50.5407 44.0687 50.4268 44.1441 50.2901C45.7974 47.3834 47.8674 45.0701 50.3541 43.3501C52.7674 41.6834 55.594 40.7134 58.834 40.4401C66.214 39.8134 72.1908 43.0034 76.7641 50.0101C76.9082 50.231 77.1034 50.4125 77.3321 50.5382C77.5609 50.6639 77.8159 50.7299 78.0741 50.7301L84.5541 50.6901C84.6942 50.6892 84.8299 50.6377 84.9376 50.5446C85.0454 50.4514 85.1185 50.3225 85.1441 50.1801C85.9174 45.7001 84.3307 42.4401 80.3841 40.4001C80.1051 40.2575 79.7704 40.2152 79.4341 40.2801C76.7541 40.7801 74.6641 40.1467 73.1641 38.3801C71.9974 37.0067 71.7207 35.4701 72.334 33.7701C73.2074 31.3301 75.1974 30.8401 78.3041 32.3001C80.4441 33.3067 81.4907 35.1034 81.4441 37.6901C81.4446 37.8369 81.4851 37.9801 81.561 38.1038C81.637 38.2275 81.7454 38.3266 81.8741 38.3901ZM78.451 37.2651C78.6673 36.9407 78.6749 36.4964 78.4721 36.0298C78.2693 35.5632 77.8728 35.1126 77.3697 34.7771C77.1206 34.6109 76.8528 34.4781 76.5817 34.3861C76.3105 34.294 76.0414 34.2447 75.7895 34.2408C75.5376 34.2369 75.3079 34.2785 75.1136 34.3633C74.9194 34.4481 74.7643 34.5745 74.6572 34.7351C74.4409 35.0594 74.4333 35.5038 74.636 35.9704C74.8388 36.437 75.2354 36.8876 75.7385 37.2231C75.9876 37.3892 76.2553 37.5221 76.5265 37.6141C76.7976 37.7061 77.0668 37.7555 77.3187 37.7594C77.5705 37.7633 77.8002 37.7216 77.9945 37.6368C78.1888 37.552 78.3439 37.4257 78.451 37.2651ZM48.5641 50.2501C48.3241 50.5767 48.4074 50.7401 48.8141 50.7401L72.0541 50.6801C72.3941 50.6801 72.4707 50.5367 72.284 50.2501C69.884 46.5234 66.4074 44.4734 61.8541 44.1001C56.3607 43.6467 51.9307 45.6967 48.5641 50.2501ZM91.594 55.5801C91.594 55.4899 91.5583 55.4034 91.4945 55.3397C91.4307 55.2759 91.3443 55.2401 91.2541 55.2401H36.9741C36.8839 55.2401 36.7974 55.2759 36.7336 55.3397C36.6699 55.4034 36.6341 55.4899 36.6341 55.5801V57.4001C36.6341 57.4902 36.6699 57.5767 36.7336 57.6405C36.7974 57.7043 36.8839 57.7401 36.9741 57.7401H91.2541C91.3443 57.7401 91.4307 57.7043 91.4945 57.6405C91.5583 57.5767 91.594 57.4902 91.594 57.4001V55.5801ZM88.1041 62.6501C88.1041 62.475 88.0345 62.3072 87.9108 62.1834C87.787 62.0596 87.6191 61.9901 87.4441 61.9901H41.024C40.849 61.9901 40.6811 62.0596 40.5574 62.1834C40.4336 62.3072 40.3641 62.475 40.3641 62.6501V100.07C40.3641 100.245 40.4336 100.413 40.5574 100.537C40.6811 100.661 40.849 100.73 41.024 100.73H87.4441C87.6191 100.73 87.787 100.661 87.9108 100.537C88.0345 100.413 88.1041 100.245 88.1041 100.07V62.6501Z" fill="white"/>
<path d="M75.7388 37.223C76.7864 37.9216 78.0008 37.9405 78.4512 37.265C78.9017 36.5896 78.4176 35.4757 77.37 34.777C76.3224 34.0783 75.108 34.0595 74.6575 34.7349C74.2071 35.4104 74.6912 36.5243 75.7388 37.223Z" fill="#3D4047"/>
<path d="M48.5643 50.2499C51.9309 45.6966 56.3609 43.6466 61.8542 44.0999C66.4076 44.4732 69.8842 46.5232 72.2842 50.2499C72.4709 50.5366 72.3943 50.6799 72.0543 50.6799L48.8143 50.7399C48.4076 50.7399 48.3243 50.5766 48.5643 50.2499Z" fill="#3D4047"/>
<path d="M91.2543 55.24H36.9742C36.7865 55.24 36.6343 55.3922 36.6343 55.58V57.4C36.6343 57.5878 36.7865 57.74 36.9742 57.74H91.2543C91.4421 57.74 91.5942 57.5878 91.5942 57.4V55.58C91.5942 55.3922 91.4421 55.24 91.2543 55.24Z" fill="#EC5242"/>
<path d="M88.1042 100.07C88.1042 100.245 88.0347 100.413 87.9109 100.537C87.7872 100.66 87.6193 100.73 87.4443 100.73H41.0242C40.8492 100.73 40.6813 100.66 40.5576 100.537C40.4338 100.413 40.3643 100.245 40.3643 100.07V62.65C40.3643 62.4749 40.4338 62.3071 40.5576 62.1833C40.6813 62.0595 40.8492 61.99 41.0242 61.99H87.4443C87.6193 61.99 87.7872 62.0595 87.9109 62.1833C88.0347 62.3071 88.1042 62.4749 88.1042 62.65V100.07ZM78.3582 68.4246C78.3585 68.2118 78.317 68.0011 78.2359 67.8044C78.1548 67.6077 78.0359 67.429 77.8857 67.2783C77.7355 67.1276 77.5571 67.0079 77.3607 66.9262C77.1643 66.8444 76.9537 66.8022 76.741 66.8018L51.761 66.7582C51.5483 66.7578 51.3376 66.7993 51.1409 66.8804C50.9442 66.9615 50.7654 67.0805 50.6147 67.2307C50.464 67.3808 50.3443 67.5592 50.2626 67.7556C50.1808 67.952 50.1386 68.1626 50.1382 68.3754L50.1304 72.8554C50.13 73.0681 50.1716 73.2789 50.2526 73.4755C50.3337 73.6722 50.4527 73.851 50.6028 74.0017C50.753 74.1524 50.9314 74.2721 51.1278 74.3538C51.3242 74.4356 51.5348 74.4778 51.7476 74.4782L76.7275 74.5218C76.9402 74.5222 77.151 74.4806 77.3477 74.3996C77.5444 74.3185 77.7231 74.1995 77.8738 74.0493C78.0245 73.8991 78.1442 73.7208 78.226 73.5243C78.3077 73.3279 78.35 73.1173 78.3503 72.9046L78.3582 68.4246Z" fill="#3D4047"/>
<path d="M78.3503 72.9047C78.35 73.1174 78.3077 73.328 78.226 73.5245C78.1442 73.7209 78.0245 73.8993 77.8738 74.0494C77.7231 74.1996 77.5444 74.3186 77.3477 74.3997C77.151 74.4808 76.9402 74.5223 76.7275 74.5219L51.7476 74.4783C51.5348 74.4779 51.3242 74.4357 51.1278 74.3539C50.9314 74.2722 50.753 74.1525 50.6028 74.0018C50.4527 73.8511 50.3337 73.6723 50.2526 73.4757C50.1716 73.279 50.13 73.0682 50.1304 72.8555L50.1382 68.3755C50.1386 68.1627 50.1808 67.9522 50.2626 67.7557C50.3443 67.5593 50.464 67.3809 50.6147 67.2308C50.7654 67.0806 50.9442 66.9616 51.1409 66.8805C51.3376 66.7994 51.5483 66.7579 51.761 66.7583L76.741 66.8019C76.9537 66.8023 77.1643 66.8445 77.3607 66.9263C77.5571 67.008 77.7355 67.1277 77.8857 67.2784C78.0359 67.4291 78.1548 67.6078 78.2359 67.8045C78.317 68.0012 78.3585 68.212 78.3582 68.4247L78.3503 72.9047ZM75.6014 69.8405C75.6012 69.788 75.5906 69.736 75.5704 69.6875C75.5501 69.639 75.5206 69.595 75.4833 69.558C75.446 69.521 75.4018 69.4917 75.3532 69.4717C75.3045 69.4518 75.2525 69.4416 75.2 69.4418L53.28 69.5184C53.2275 69.5186 53.1755 69.5291 53.1271 69.5494C53.0786 69.5697 53.0346 69.5993 52.9976 69.6365C52.9606 69.6738 52.9313 69.718 52.9114 69.7666C52.8914 69.8152 52.8813 69.8673 52.8815 69.9198L52.8871 71.5397C52.8873 71.5922 52.8978 71.6442 52.9181 71.6927C52.9384 71.7412 52.968 71.7852 53.0053 71.8222C53.0425 71.8592 53.0868 71.8885 53.1354 71.9085C53.184 71.9284 53.236 71.9386 53.2886 71.9384L75.2084 71.8618C75.261 71.8616 75.313 71.8511 75.3615 71.8308C75.4099 71.8105 75.4539 71.7809 75.4909 71.7437C75.5279 71.7064 75.5572 71.6622 75.5772 71.6136C75.5971 71.565 75.6072 71.5129 75.6071 71.4604L75.6014 69.8405Z" fill="white"/>
<path d="M75.1997 69.4419L53.2799 69.5184C53.059 69.5192 52.8805 69.6989 52.8813 69.9198L52.8869 71.5398C52.8877 71.7607 53.0674 71.9391 53.2883 71.9384L75.2082 71.8618C75.4291 71.8611 75.6076 71.6814 75.6068 71.4605L75.6011 69.8405C75.6004 69.6196 75.4207 69.4411 75.1997 69.4419Z" fill="#3D4047"/>
</svg>
