<svg width="100" height="100" viewBox="0 0 100 100" fill="none" xmlns="http://www.w3.org/2000/svg">
<path d="M55.7737 17.0977C55.7487 19.4845 54.7419 21.7633 52.9746 23.4327C51.2073 25.1021 48.8244 26.0254 46.35 25.9995C45.1249 25.9867 43.9142 25.7412 42.787 25.2771C41.6598 24.813 40.6383 24.1393 39.7807 23.2946C38.9231 22.4498 38.2463 21.4505 37.7889 20.3537C37.3314 19.257 37.1024 18.0842 37.1147 16.9023C37.1397 14.5155 38.1466 12.2368 39.9139 10.5673C41.6812 8.89794 44.0641 7.97463 46.5384 8.00053C47.7636 8.01335 48.9744 8.25883 50.1016 8.72295C51.2287 9.18707 52.2503 9.86073 53.1078 10.7055C53.9654 11.5502 54.6422 12.5495 55.0997 13.6463C55.5571 14.7431 55.7861 15.9159 55.7737 17.0977ZM51.8743 16.99C51.8743 16.2756 51.7335 15.5682 51.4601 14.9082C51.1867 14.2482 50.7861 13.6485 50.2809 13.1434C49.7758 12.6382 49.1761 12.2375 48.516 11.9641C47.856 11.6907 47.1486 11.55 46.4343 11.55C45.7199 11.55 45.0125 11.6907 44.3525 11.9641C43.6925 12.2375 43.0927 12.6382 42.5876 13.1434C42.0824 13.6485 41.6817 14.2482 41.4083 14.9082C41.1349 15.5682 40.9943 16.2756 40.9943 16.99C40.9943 18.4328 41.5674 19.8165 42.5876 20.8367C43.6078 21.8569 44.9915 22.43 46.4343 22.43C47.877 22.43 49.2607 21.8569 50.2809 20.8367C51.3011 19.8165 51.8743 18.4328 51.8743 16.99Z" fill="white"/>
<path d="M46.4341 22.43C49.4386 22.43 51.8741 19.9945 51.8741 16.99C51.8741 13.9856 49.4386 11.55 46.4341 11.55C43.4297 11.55 40.9941 13.9856 40.9941 16.99C40.9941 19.9945 43.4297 22.43 46.4341 22.43Z" fill="#3D4047"/>
<path d="M67.8741 24.3901C72.7141 26.7634 74.7674 30.4134 74.034 35.3401C74.0025 35.5571 74.0228 35.7785 74.0932 35.9862C74.1636 36.1939 74.2822 36.382 74.4392 36.5352C74.5962 36.6883 74.7872 36.8021 74.9966 36.8672C75.206 36.9324 75.4279 36.9471 75.6441 36.9101C77.9108 36.5167 79.7741 36.6901 81.2341 37.4301C81.3707 37.4981 81.4906 37.6003 81.5843 37.7287C81.678 37.857 81.7429 38.0081 81.774 38.1701C82.3007 41.0034 82.3374 43.8434 81.8841 46.6901C81.8575 46.8649 81.7931 47.0254 81.6988 47.1517C81.6046 47.2779 81.4847 47.3643 81.3541 47.4001L79.1741 48.0101C79.0307 48.0502 78.9041 48.1248 78.8138 48.2224C78.7234 48.32 78.6743 48.4351 78.6741 48.5501C78.5541 68.0701 78.5341 79.8834 78.6141 83.9901C78.7074 88.8234 76.3741 91.2201 71.6141 91.1801C56.9474 91.0534 42.2807 90.9901 27.6141 90.9901C23.7807 90.9901 21.8674 88.9067 21.8741 84.7401C21.9007 72.6801 21.8774 60.6167 21.8041 48.5501C21.8039 48.4218 21.7504 48.2987 21.6551 48.2071C21.5597 48.1155 21.4301 48.0627 21.2941 48.0601C19.0207 48.0467 17.9241 46.9567 18.0041 44.7901C18.0441 43.4701 18.0641 42.7667 18.0641 42.6801C18.0174 41.2001 18.0774 39.9001 18.2441 38.7801C18.4507 37.4201 19.2407 36.7401 20.6141 36.7401H29.3741C29.5318 36.7405 29.6864 36.699 29.8219 36.6198C29.9574 36.5407 30.0687 36.4268 30.1441 36.2901C31.7974 33.3834 33.8674 31.0701 36.3541 29.3501C38.7674 27.6834 41.594 26.7134 44.834 26.4401C52.214 25.8134 58.1908 29.0034 62.7641 36.0101C62.9082 36.231 63.1034 36.4125 63.3321 36.5382C63.5609 36.6639 63.8159 36.7299 64.0741 36.7301L70.5541 36.6901C70.6942 36.6892 70.8299 36.6377 70.9376 36.5446C71.0454 36.4514 71.1185 36.3225 71.1441 36.1801C71.9174 31.7001 70.3307 28.4401 66.3841 26.4001C66.1051 26.2575 65.7704 26.2152 65.4341 26.2801C62.7541 26.7801 60.6641 26.1467 59.1641 24.3801C57.9974 23.0067 57.7207 21.4701 58.334 19.7701C59.2074 17.3301 61.1974 16.8401 64.3041 18.3001C66.4441 19.3067 67.4907 21.1034 67.4441 23.6901C67.4446 23.8369 67.4851 23.9801 67.561 24.1038C67.637 24.2275 67.7454 24.3266 67.8741 24.3901ZM64.451 23.2651C64.6673 22.9407 64.6749 22.4964 64.4721 22.0298C64.2693 21.5632 63.8728 21.1126 63.3697 20.7771C63.1206 20.6109 62.8528 20.4781 62.5817 20.3861C62.3105 20.294 62.0414 20.2447 61.7895 20.2408C61.5376 20.2369 61.3079 20.2785 61.1136 20.3633C60.9194 20.4481 60.7643 20.5745 60.6572 20.7351C60.4409 21.0594 60.4333 21.5038 60.636 21.9704C60.8388 22.437 61.2354 22.8876 61.7385 23.2231C61.9876 23.3892 62.2553 23.5221 62.5265 23.6141C62.7976 23.7061 63.0668 23.7555 63.3187 23.7594C63.5705 23.7633 63.8002 23.7216 63.9945 23.6368C64.1888 23.552 64.3439 23.4257 64.451 23.2651ZM34.5641 36.2501C34.3241 36.5767 34.4074 36.7401 34.8141 36.7401L58.0541 36.6801C58.3941 36.6801 58.4707 36.5367 58.284 36.2501C55.884 32.5234 52.4074 30.4734 47.8541 30.1001C42.3607 29.6467 37.9307 31.6967 34.5641 36.2501ZM77.594 41.5801C77.594 41.4899 77.5583 41.4034 77.4945 41.3397C77.4307 41.2759 77.3443 41.2401 77.2541 41.2401H22.9741C22.8839 41.2401 22.7974 41.2759 22.7336 41.3397C22.6699 41.4034 22.6341 41.4899 22.6341 41.5801V43.4001C22.6341 43.4902 22.6699 43.5767 22.7336 43.6405C22.7974 43.7043 22.8839 43.7401 22.9741 43.7401H77.2541C77.3443 43.7401 77.4307 43.7043 77.4945 43.6405C77.5583 43.5767 77.594 43.4902 77.594 43.4001V41.5801ZM74.1041 48.6501C74.1041 48.475 74.0345 48.3072 73.9108 48.1834C73.787 48.0596 73.6191 47.9901 73.4441 47.9901H27.024C26.849 47.9901 26.6811 48.0596 26.5574 48.1834C26.4336 48.3072 26.3641 48.475 26.3641 48.6501V86.0701C26.3641 86.2451 26.4336 86.413 26.5574 86.5368C26.6811 86.6605 26.849 86.7301 27.024 86.7301H73.4441C73.6191 86.7301 73.787 86.6605 73.9108 86.5368C74.0345 86.413 74.1041 86.2451 74.1041 86.0701V48.6501Z" fill="white"/>
<path d="M61.7388 23.223C62.7864 23.9216 64.0008 23.9405 64.4512 23.265C64.9017 22.5896 64.4176 21.4757 63.37 20.777C62.3224 20.0783 61.108 20.0595 60.6575 20.7349C60.2071 21.4104 60.6912 22.5243 61.7388 23.223Z" fill="#3D4047"/>
<path d="M34.5643 36.2499C37.9309 31.6966 42.3609 29.6466 47.8542 30.0999C52.4076 30.4732 55.8842 32.5232 58.2842 36.2499C58.4709 36.5366 58.3943 36.6799 58.0543 36.6799L34.8143 36.7399C34.4076 36.7399 34.3243 36.5766 34.5643 36.2499Z" fill="#3D4047"/>
<path d="M77.2543 41.24H22.9742C22.7865 41.24 22.6343 41.3922 22.6343 41.58V43.4C22.6343 43.5878 22.7865 43.74 22.9742 43.74H77.2543C77.4421 43.74 77.5942 43.5878 77.5942 43.4V41.58C77.5942 41.3922 77.4421 41.24 77.2543 41.24Z" fill="#EC5242"/>
<path d="M74.1042 86.07C74.1042 86.245 74.0347 86.4129 73.9109 86.5367C73.7872 86.6605 73.6193 86.73 73.4443 86.73H27.0242C26.8492 86.73 26.6813 86.6605 26.5576 86.5367C26.4338 86.4129 26.3643 86.245 26.3643 86.07V48.65C26.3643 48.4749 26.4338 48.3071 26.5576 48.1833C26.6813 48.0595 26.8492 47.99 27.0242 47.99H73.4443C73.6193 47.99 73.7872 48.0595 73.9109 48.1833C74.0347 48.3071 74.1042 48.4749 74.1042 48.65V86.07ZM64.3582 54.4246C64.3585 54.2118 64.317 54.0011 64.2359 53.8044C64.1548 53.6077 64.0359 53.429 63.8857 53.2783C63.7355 53.1276 63.5571 53.0079 63.3607 52.9262C63.1643 52.8444 62.9537 52.8022 62.741 52.8018L37.761 52.7582C37.5483 52.7578 37.3376 52.7993 37.1409 52.8804C36.9442 52.9615 36.7654 53.0805 36.6147 53.2307C36.464 53.3808 36.3443 53.5592 36.2626 53.7556C36.1808 53.952 36.1386 54.1626 36.1382 54.3754L36.1304 58.8554C36.13 59.0681 36.1716 59.2789 36.2526 59.4755C36.3337 59.6722 36.4527 59.851 36.6028 60.0017C36.753 60.1524 36.9314 60.2721 37.1278 60.3538C37.3242 60.4356 37.5348 60.4778 37.7476 60.4782L62.7275 60.5218C62.9402 60.5222 63.151 60.4806 63.3477 60.3996C63.5444 60.3185 63.7231 60.1995 63.8738 60.0493C64.0245 59.8991 64.1442 59.7208 64.226 59.5243C64.3077 59.3279 64.35 59.1173 64.3503 58.9046L64.3582 54.4246Z" fill="#3D4047"/>
<path d="M64.3503 58.9047C64.35 59.1174 64.3077 59.328 64.226 59.5245C64.1442 59.7209 64.0245 59.8993 63.8738 60.0494C63.7231 60.1996 63.5444 60.3186 63.3477 60.3997C63.151 60.4808 62.9402 60.5223 62.7275 60.5219L37.7476 60.4783C37.5348 60.4779 37.3242 60.4357 37.1278 60.3539C36.9314 60.2722 36.753 60.1525 36.6028 60.0018C36.4527 59.8511 36.3337 59.6723 36.2526 59.4757C36.1716 59.279 36.13 59.0682 36.1304 58.8555L36.1382 54.3755C36.1386 54.1627 36.1808 53.9522 36.2626 53.7557C36.3443 53.5593 36.464 53.3809 36.6147 53.2308C36.7654 53.0806 36.9442 52.9616 37.1409 52.8805C37.3376 52.7994 37.5483 52.7579 37.761 52.7583L62.741 52.8019C62.9537 52.8023 63.1643 52.8445 63.3607 52.9263C63.5571 53.008 63.7355 53.1277 63.8857 53.2784C64.0359 53.4291 64.1548 53.6078 64.2359 53.8045C64.317 54.0012 64.3585 54.212 64.3582 54.4247L64.3503 58.9047ZM61.6014 55.8405C61.6012 55.788 61.5906 55.736 61.5704 55.6875C61.5501 55.639 61.5206 55.595 61.4833 55.558C61.446 55.521 61.4018 55.4917 61.3532 55.4717C61.3045 55.4518 61.2525 55.4416 61.2 55.4418L39.28 55.5184C39.2275 55.5186 39.1755 55.5291 39.1271 55.5494C39.0786 55.5697 39.0346 55.5993 38.9976 55.6365C38.9606 55.6738 38.9313 55.718 38.9114 55.7666C38.8914 55.8152 38.8813 55.8673 38.8815 55.9198L38.8871 57.5397C38.8873 57.5922 38.8978 57.6442 38.9181 57.6927C38.9384 57.7412 38.968 57.7852 39.0053 57.8222C39.0425 57.8592 39.0868 57.8885 39.1354 57.9085C39.184 57.9284 39.236 57.9386 39.2886 57.9384L61.2084 57.8618C61.261 57.8616 61.313 57.8511 61.3615 57.8308C61.4099 57.8105 61.4539 57.7809 61.4909 57.7437C61.5279 57.7064 61.5572 57.6622 61.5772 57.6136C61.5971 57.565 61.6072 57.5129 61.6071 57.4604L61.6014 55.8405Z" fill="white"/>
<path d="M61.1997 55.4419L39.2799 55.5184C39.059 55.5192 38.8805 55.6989 38.8813 55.9198L38.8869 57.5398C38.8877 57.7607 39.0674 57.9391 39.2883 57.9384L61.2082 57.8618C61.4291 57.8611 61.6076 57.6814 61.6068 57.4605L61.6011 55.8405C61.6004 55.6196 61.4207 55.4411 61.1997 55.4419Z" fill="#3D4047"/>
</svg>
