<svg width="100" height="100" viewBox="0 0 100 100" fill="none" xmlns="http://www.w3.org/2000/svg">
<path d="M56.3392 72.24L62.3092 83.3C62.4635 83.5897 62.5062 83.9243 62.4292 84.24C62.0492 85.8867 61.2226 86.38 59.9493 85.72C59.3893 85.4333 58.8626 84.8733 58.3692 84.04C57.5092 82.5933 56.6293 81.1567 55.7293 79.73C55.6495 79.6016 55.5388 79.4957 55.4076 79.4222C55.2764 79.3487 55.1289 79.3101 54.9793 79.31L30.4193 79.25C30.1998 79.2497 29.9751 79.3186 29.7666 79.45C29.5582 79.5813 29.3732 79.7707 29.2293 80L25.8592 85.38C25.7812 85.4979 25.6664 85.5974 25.5239 85.6703C25.3815 85.7433 25.2155 85.7877 25.0393 85.8C23.2593 85.9267 22.4926 85.2533 22.7392 83.78C22.8259 83.22 23.1526 82.4533 23.7193 81.48C25.4859 78.4133 27.2293 75.3833 28.9493 72.39C28.9861 72.3242 29.0049 72.2499 29.004 72.1745C29.003 72.0991 28.9823 72.0253 28.9438 71.9604C28.9053 71.8956 28.8504 71.842 28.7847 71.8051C28.7189 71.7682 28.6447 71.7492 28.5693 71.75C23.4159 71.75 18.2726 71.75 13.1392 71.75C13.0792 71.75 12.5092 71.7833 11.4292 71.85C8.84258 72.0033 7.71925 70.6267 8.05925 67.72C8.20592 66.4933 8.27925 65.2533 8.27925 64C8.27925 62.4667 9.11258 61.8833 10.7792 62.25C12.2859 62.5767 12.9826 62.0967 12.8692 60.81C12.8092 60.1433 12.7792 59.7633 12.7792 59.67C12.7792 45.2767 12.7792 30.76 12.7792 16.12C12.7792 14.7467 13.4626 14.06 14.8292 14.06L70.2992 14C71.6192 14 72.2793 14.6633 72.2793 15.99V40.59C72.2791 41.0323 72.3774 41.4786 72.5683 41.9016C72.7591 42.3246 73.0385 42.7154 73.3892 43.05L91.4693 60.3C92.6359 61.4133 92.8259 62.7267 92.0393 64.24C90.6926 66.82 88.8559 67.9433 86.5293 67.61C85.1826 67.4167 83.5826 66.47 81.7293 64.77C78.7893 62.0833 75.9326 59.3667 73.1593 56.62C72.5726 56.0467 72.2793 56.17 72.2793 56.99V61.2C72.2792 61.3558 72.3126 61.5099 72.3771 61.6517C72.4416 61.7936 72.5358 61.92 72.6534 62.0223C72.7709 62.1247 72.909 62.2006 73.0584 62.2451C73.2077 62.2895 73.3649 62.3014 73.5192 62.28C75.8126 61.98 76.9359 62.8867 76.8892 65C76.8492 66.7267 76.7992 68.26 76.7392 69.6C76.6792 71.0267 75.9292 71.7433 74.4892 71.75L56.5892 71.81C56.5392 71.8107 56.4901 71.8243 56.4469 71.8496C56.4036 71.8749 56.3677 71.9109 56.3425 71.9542C56.3173 71.9975 56.3038 72.0466 56.3032 72.0967C56.3027 72.1468 56.3151 72.1961 56.3392 72.24ZM54.0892 34.55C53.9492 32.87 54.7259 32.0167 56.4193 31.99C60.7593 31.9167 64.3559 33.6667 67.2092 37.24C67.9292 38.14 68.2793 38.02 68.2593 36.88L67.9993 18.32C67.9966 18.1838 67.9386 18.054 67.8376 17.9586C67.7366 17.8633 67.6007 17.8099 67.4592 17.81L17.4393 18C17.3526 18 17.2668 18.0171 17.1867 18.0502C17.1066 18.0834 17.0338 18.132 16.9725 18.1933C16.9113 18.2546 16.8626 18.3274 16.8295 18.4074C16.7963 18.4875 16.7793 18.5733 16.7793 18.66V61.75C16.7793 61.8826 16.8319 62.0098 16.9257 62.1036C17.0195 62.1973 17.1466 62.25 17.2793 62.25H67.6192C67.7059 62.25 67.7917 62.2329 67.8718 62.1998C67.9519 62.1666 68.0247 62.118 68.086 62.0567C68.1472 61.9954 68.1959 61.9226 68.229 61.8426C68.2622 61.7625 68.2793 61.6767 68.2793 61.59V53.3C68.2795 52.9782 68.2131 52.6594 68.084 52.3634C67.955 52.0675 67.7661 51.8008 67.5293 51.58C63.7626 48.04 60.3393 44.6867 57.2593 41.52C55.3659 39.58 54.3092 37.2567 54.0892 34.55ZM62.2992 36.72L57.5192 34.75C56.8792 34.4833 56.7193 34.6567 57.0393 35.27L59.2092 39.49C59.2479 39.5614 59.3048 39.6206 59.3758 39.663C59.4468 39.7054 59.5298 39.73 59.6186 39.7348C59.7074 39.7397 59.7996 39.7246 59.8881 39.6908C59.9766 39.6571 60.0591 39.6055 60.1293 39.54L62.3392 37.45C62.3971 37.3965 62.4436 37.3305 62.4744 37.2583C62.5052 37.186 62.5192 37.1099 62.5152 37.037C62.5112 36.9641 62.4893 36.8967 62.4516 36.8413C62.4138 36.7859 62.3614 36.7441 62.2992 36.72ZM65.4531 39.3259C65.3283 39.1958 65.1569 39.1205 64.9766 39.1168C64.7963 39.113 64.6219 39.181 64.4917 39.3058L62.1965 41.5068C62.1321 41.5686 62.0804 41.6425 62.0445 41.7243C62.0086 41.806 61.9892 41.8941 61.9873 41.9834C61.9854 42.0727 62.0011 42.1614 62.0336 42.2446C62.066 42.3278 62.1145 42.4038 62.1763 42.4683L63.5054 43.8541C63.6302 43.9842 63.8016 44.0595 63.9819 44.0632C64.1622 44.067 64.3366 43.999 64.4668 43.8742L66.7619 41.6732C66.8264 41.6114 66.8781 41.5375 66.914 41.4557C66.9499 41.374 66.9693 41.2859 66.9712 41.1966C66.9731 41.1073 66.9573 41.0186 66.9249 40.9354C66.8925 40.8522 66.844 40.7762 66.7822 40.7117L65.4531 39.3259ZM86.867 60.2104C86.9137 60.1606 86.9502 60.1021 86.9743 60.0382C86.9985 59.9743 87.0098 59.9063 87.0077 59.8381C87.0055 59.7698 86.9899 59.7026 86.9618 59.6404C86.9337 59.5781 86.8936 59.522 86.8439 59.4753L69.8151 43.4843C69.7654 43.4375 69.7069 43.4011 69.643 43.3769C69.5791 43.3528 69.5111 43.3414 69.4428 43.3436C69.3746 43.3457 69.3074 43.3613 69.2451 43.3894C69.1829 43.4175 69.1268 43.4576 69.0801 43.5074L66.7116 46.0296C66.6648 46.0794 66.6283 46.1379 66.6042 46.2018C66.58 46.2657 66.5687 46.3337 66.5708 46.4019C66.573 46.4702 66.5885 46.5374 66.6167 46.5996C66.6448 46.6619 66.6849 46.718 66.7347 46.7647L83.7634 62.7557C83.8131 62.8025 83.8716 62.8389 83.9355 62.8631C83.9994 62.8872 84.0674 62.8986 84.1357 62.8964C84.204 62.8943 84.2711 62.8787 84.3334 62.8506C84.3956 62.8225 84.4517 62.7824 84.4985 62.7326L86.867 60.2104ZM87.9793 63.47C87.7859 63.6633 87.5726 63.8233 87.3392 63.95C87.1459 64.05 87.0059 64.16 86.9193 64.28C86.5459 64.78 86.7193 64.9533 87.4393 64.8C88.3993 64.6 88.9859 64.0733 89.1993 63.22C89.2191 63.1458 89.2262 63.0689 89.2204 62.9939C89.2145 62.9188 89.1956 62.8471 89.1649 62.7829C89.1342 62.7187 89.0922 62.6633 89.0415 62.6199C88.9907 62.5765 88.9322 62.5459 88.8692 62.53C88.6426 62.47 88.4659 62.5667 88.3392 62.82C88.1526 63.1933 88.0326 63.41 87.9793 63.47ZM72.7692 66.98C72.7692 66.7201 72.666 66.4708 72.4822 66.287C72.2984 66.1032 72.0492 66 71.7893 66H13.2893C13.0293 66 12.7801 66.1032 12.5963 66.287C12.4125 66.4708 12.3092 66.7201 12.3092 66.98V67.02C12.3092 67.2799 12.4125 67.5292 12.5963 67.713C12.7801 67.8968 13.0293 68 13.2893 68H71.7893C72.0492 68 72.2984 67.8968 72.4822 67.713C72.666 67.5292 72.7692 67.2799 72.7692 67.02V66.98ZM33.8392 72.24L32.4493 74.6C32.4108 74.6654 32.3911 74.7398 32.3923 74.8156C32.3935 74.8915 32.4155 74.9662 32.456 75.0321C32.4966 75.0981 32.5543 75.1529 32.6234 75.1912C32.6924 75.2294 32.7703 75.2497 32.8493 75.25L52.7293 75.42C52.7875 75.4222 52.8455 75.4106 52.8984 75.3861C52.9514 75.3616 52.9978 75.325 53.0338 75.2791C53.0699 75.2333 53.0946 75.1796 53.106 75.1224C53.1174 75.0652 53.1151 75.0061 53.0993 74.95C52.4593 72.5233 50.9193 71.3967 48.4793 71.57C46.9259 71.6833 46.1226 71.74 46.0693 71.74C42.2426 71.72 38.4193 71.7433 34.5993 71.81C34.4437 71.813 34.2923 71.854 34.1593 71.9293C34.0264 72.0045 33.9162 72.1114 33.8392 72.24Z" fill="white"/>
<path d="M54.0893 34.5501C54.3093 37.2567 55.366 39.5801 57.2593 41.5201C60.3393 44.6867 63.7626 48.0401 67.5293 51.5801C67.7662 51.8009 67.955 52.0676 68.0841 52.3635C68.2131 52.6594 68.2796 52.9782 68.2793 53.3001V61.5901C68.2793 61.6767 68.2622 61.7626 68.2291 61.8426C68.1959 61.9227 68.1473 61.9955 68.086 62.0568C68.0247 62.118 67.9519 62.1666 67.8719 62.1998C67.7918 62.233 67.706 62.2501 67.6193 62.2501H17.2793C17.1467 62.2501 17.0195 62.1974 16.9258 62.1036C16.832 62.0098 16.7793 61.8827 16.7793 61.7501V18.6601C16.7793 18.5734 16.7964 18.4876 16.8295 18.4075C16.8627 18.3274 16.9113 18.2547 16.9726 18.1934C17.0339 18.1321 17.1067 18.0835 17.1867 18.0503C17.2668 18.0171 17.3526 18.0001 17.4393 18.0001L67.4593 17.8101C67.6008 17.8099 67.7367 17.8633 67.8376 17.9587C67.9386 18.0541 67.9967 18.1838 67.9993 18.3201L68.2593 36.8801C68.2793 38.0201 67.9293 38.1401 67.2093 37.2401C64.356 33.6667 60.7593 31.9167 56.4193 31.9901C54.726 32.0167 53.9493 32.8701 54.0893 34.5501ZM34.6393 41.5301C34.6393 41.1624 34.5669 40.7983 34.4261 40.4585C34.2854 40.1188 34.0792 39.8102 33.8192 39.5502C33.5592 39.2902 33.2505 39.0839 32.9108 38.9432C32.5711 38.8025 32.207 38.7301 31.8393 38.7301C31.0967 38.7301 30.3845 39.0251 29.8594 39.5502C29.3343 40.0753 29.0393 40.7874 29.0393 41.5301C29.0393 42.2727 29.3343 42.9849 29.8594 43.51C30.3845 44.0351 31.0967 44.3301 31.8393 44.3301C32.207 44.3301 32.5711 44.2576 32.9108 44.1169C33.2505 43.9762 33.5592 43.77 33.8192 43.51C34.0792 43.25 34.2854 42.9413 34.4261 42.6016C34.5669 42.2619 34.6393 41.8978 34.6393 41.5301ZM44.0093 41.5201C44.0093 41.1537 43.9371 40.7909 43.7969 40.4524C43.6567 40.1139 43.4512 39.8063 43.1921 39.5472C42.9331 39.2882 42.6255 39.0826 42.287 38.9424C41.9485 38.8022 41.5857 38.7301 41.2193 38.7301C40.4793 38.7301 39.7697 39.024 39.2465 39.5472C38.7232 40.0705 38.4293 40.7801 38.4293 41.5201C38.4293 42.26 38.7232 42.9697 39.2465 43.4929C39.7697 44.0161 40.4793 44.3101 41.2193 44.3101C41.5857 44.3101 41.9485 44.2379 42.287 44.0977C42.6255 43.9575 42.9331 43.752 43.1921 43.4929C43.4512 43.2338 43.6567 42.9262 43.7969 42.5877C43.9371 42.2492 44.0093 41.8864 44.0093 41.5201ZM53.4293 41.5101C53.4293 40.7674 53.1343 40.0553 52.6092 39.5302C52.0841 39.0051 51.3719 38.7101 50.6293 38.7101C49.8867 38.7101 49.1745 39.0051 48.6494 39.5302C48.1243 40.0553 47.8293 40.7674 47.8293 41.5101C47.8293 41.8778 47.9017 42.2419 48.0424 42.5816C48.1831 42.9213 48.3894 43.23 48.6494 43.49C48.9094 43.75 49.2181 43.9562 49.5578 44.0969C49.8975 44.2376 50.2616 44.3101 50.6293 44.3101C50.997 44.3101 51.3611 44.2376 51.7008 44.0969C52.0405 43.9562 52.3492 43.75 52.6092 43.49C52.8692 43.23 53.0754 42.9213 53.2162 42.5816C53.3569 42.2419 53.4293 41.8778 53.4293 41.5101Z" fill="#3D4047"/>
<path d="M62.2994 36.7201C62.3615 36.7443 62.4139 36.786 62.4517 36.8414C62.4895 36.8969 62.5114 36.9642 62.5154 37.0371C62.5194 37.11 62.5053 37.1862 62.4745 37.2584C62.4438 37.3306 62.3973 37.3966 62.3394 37.4501L60.1294 39.5401C60.0593 39.6056 59.9768 39.6572 59.8883 39.691C59.7998 39.7247 59.7076 39.7398 59.6188 39.735C59.53 39.7301 59.4469 39.7056 59.3759 39.6631C59.305 39.6207 59.248 39.5615 59.2094 39.4901L57.0394 35.2701C56.7194 34.6568 56.8794 34.4835 57.5194 34.7501L62.2994 36.7201Z" fill="#EC5242"/>
<path d="M31.8391 44.33C33.3854 44.33 34.639 43.0764 34.639 41.53C34.639 39.9836 33.3854 38.73 31.8391 38.73C30.2927 38.73 29.0391 39.9836 29.0391 41.53C29.0391 43.0764 30.2927 44.33 31.8391 44.33Z" fill="#EC5242"/>
<path d="M41.2192 44.31C42.7601 44.31 44.0092 43.0609 44.0092 41.52C44.0092 39.9791 42.7601 38.73 41.2192 38.73C39.6783 38.73 38.4292 39.9791 38.4292 41.52C38.4292 43.0609 39.6783 44.31 41.2192 44.31Z" fill="#7C7C7C"/>
<path d="M50.6291 44.31C52.1755 44.31 53.4291 43.0564 53.4291 41.51C53.4291 39.9636 52.1755 38.71 50.6291 38.71C49.0827 38.71 47.8291 39.9636 47.8291 41.51C47.8291 43.0564 49.0827 44.31 50.6291 44.31Z" fill="#EC5242"/>
<path d="M64.4916 39.3059L62.1964 41.5069C61.9253 41.7668 61.9163 42.1973 62.1762 42.4683L63.5051 43.8541C63.7651 44.1252 64.1955 44.1342 64.4666 43.8743L66.7618 41.6732C67.0329 41.4133 67.0419 40.9828 66.7819 40.7118L65.453 39.326C65.1931 39.0549 64.7626 39.0459 64.4916 39.3059Z" fill="#3D4047"/>
<path d="M86.8438 59.4754L69.8151 43.4844C69.6057 43.2878 69.2767 43.2981 69.0801 43.5075L66.7115 46.0297C66.5149 46.2391 66.5253 46.5681 66.7346 46.7647L83.7633 62.7558C83.9727 62.9524 84.3018 62.942 84.4984 62.7327L86.8669 60.2104C87.0635 60.0011 87.0532 59.672 86.8438 59.4754Z" fill="#3D4047"/>
<path d="M88.3392 62.8199C88.4659 62.5666 88.6426 62.4699 88.8692 62.5299C88.9322 62.5458 88.9907 62.5764 89.0415 62.6198C89.0922 62.6632 89.1342 62.7186 89.1649 62.7828C89.1956 62.847 89.2144 62.9187 89.2203 62.9938C89.2262 63.0688 89.2191 63.1457 89.1992 63.2199C88.9859 64.0733 88.3992 64.5999 87.4392 64.7999C86.7192 64.9533 86.5459 64.7799 86.9192 64.2799C87.0059 64.1599 87.1459 64.0499 87.3392 63.9499C87.5726 63.8233 87.7859 63.6633 87.9792 63.4699C88.0326 63.4099 88.1526 63.1933 88.3392 62.8199Z" fill="#FDFDFD"/>
<path d="M71.7891 66H13.2891C12.7479 66 12.3091 66.4388 12.3091 66.98V67.02C12.3091 67.5612 12.7479 68 13.2891 68H71.7891C72.3303 68 72.7691 67.5612 72.7691 67.02V66.98C72.7691 66.4388 72.3303 66 71.7891 66Z" fill="#EC5242"/>
<path d="M33.8391 72.2401C33.9161 72.1115 34.0262 72.0046 34.1592 71.9293C34.2921 71.8541 34.4435 71.8131 34.5991 71.8101C38.4191 71.7434 42.2424 71.7201 46.0691 71.7401C46.1224 71.7401 46.9258 71.6834 48.4791 71.5701C50.9191 71.3967 52.4591 72.5234 53.0991 74.9501C53.1149 75.0062 53.1172 75.0653 53.1059 75.1225C53.0945 75.1797 53.0698 75.2334 53.0337 75.2792C52.9976 75.325 52.9512 75.3617 52.8983 75.3861C52.8453 75.4106 52.7874 75.4222 52.7291 75.4201L32.8491 75.2501C32.7702 75.2498 32.6923 75.2295 32.6232 75.1912C32.5542 75.153 32.4965 75.0981 32.4559 75.0322C32.4153 74.9663 32.3933 74.8916 32.3921 74.8157C32.3909 74.7398 32.4106 74.6655 32.4491 74.6001L33.8391 72.2401Z" fill="#3D4047"/>
</svg>
