<svg width="128" height="128" viewBox="0 0 128 128" fill="none" xmlns="http://www.w3.org/2000/svg">
<path d="M70.3392 86.24L76.3092 97.3C76.4635 97.5897 76.5062 97.9243 76.4292 98.24C76.0492 99.8867 75.2226 100.38 73.9493 99.72C73.3893 99.4333 72.8626 98.8733 72.3692 98.04C71.5092 96.5933 70.6293 95.1567 69.7293 93.73C69.6495 93.6016 69.5388 93.4957 69.4076 93.4222C69.2764 93.3487 69.1289 93.3101 68.9793 93.31L44.4193 93.25C44.1998 93.2497 43.9751 93.3186 43.7666 93.45C43.5582 93.5813 43.3732 93.7707 43.2293 94L39.8592 99.38C39.7812 99.4979 39.6664 99.5974 39.5239 99.6703C39.3815 99.7433 39.2155 99.7877 39.0393 99.8C37.2593 99.9267 36.4926 99.2533 36.7392 97.78C36.8259 97.22 37.1526 96.4533 37.7193 95.48C39.4859 92.4133 41.2293 89.3833 42.9493 86.39C42.9861 86.3242 43.0049 86.2499 43.004 86.1745C43.003 86.0991 42.9823 86.0253 42.9438 85.9604C42.9053 85.8956 42.8504 85.842 42.7847 85.8051C42.7189 85.7682 42.6447 85.7492 42.5693 85.75C37.4159 85.75 32.2726 85.75 27.1392 85.75C27.0792 85.75 26.5092 85.7833 25.4292 85.85C22.8426 86.0033 21.7192 84.6267 22.0592 81.72C22.2059 80.4933 22.2792 79.2533 22.2792 78C22.2792 76.4667 23.1126 75.8833 24.7792 76.25C26.2859 76.5767 26.9826 76.0967 26.8692 74.81C26.8092 74.1433 26.7792 73.7633 26.7792 73.67C26.7792 59.2767 26.7792 44.76 26.7792 30.12C26.7792 28.7467 27.4626 28.06 28.8292 28.06L84.2992 28C85.6192 28 86.2793 28.6633 86.2793 29.99V54.59C86.279 55.0323 86.3774 55.4787 86.5683 55.9016C86.7591 56.3246 87.0385 56.7154 87.3892 57.05L105.469 74.3C106.636 75.4133 106.826 76.7267 106.039 78.24C104.693 80.82 102.856 81.9433 100.529 81.61C99.1826 81.4167 97.5826 80.47 95.7293 78.77C92.7893 76.0833 89.9326 73.3667 87.1593 70.62C86.5726 70.0467 86.2793 70.17 86.2793 70.99V75.2C86.2792 75.3558 86.3126 75.5099 86.3771 75.6517C86.4416 75.7936 86.5358 75.92 86.6534 76.0223C86.7709 76.1247 86.909 76.2006 87.0584 76.2451C87.2077 76.2895 87.3649 76.3014 87.5192 76.28C89.8126 75.98 90.9359 76.8867 90.8892 79C90.8492 80.7267 90.7992 82.26 90.7392 83.6C90.6792 85.0267 89.9292 85.7433 88.4892 85.75L70.5892 85.81C70.5392 85.8107 70.4901 85.8243 70.4469 85.8496C70.4036 85.8749 70.3677 85.9109 70.3425 85.9542C70.3173 85.9975 70.3038 86.0466 70.3032 86.0967C70.3027 86.1468 70.3151 86.1961 70.3392 86.24ZM68.0892 48.55C67.9492 46.87 68.7259 46.0167 70.4193 45.99C74.7593 45.9167 78.3559 47.6667 81.2092 51.24C81.9292 52.14 82.2793 52.02 82.2593 50.88L81.9993 32.32C81.9966 32.1838 81.9386 32.054 81.8376 31.9586C81.7366 31.8633 81.6007 31.8099 81.4592 31.81L31.4393 32C31.3526 32 31.2668 32.0171 31.1867 32.0502C31.1066 32.0834 31.0338 32.132 30.9725 32.1933C30.9113 32.2546 30.8627 32.3274 30.8295 32.4074C30.7963 32.4875 30.7793 32.5733 30.7793 32.66V75.75C30.7793 75.8826 30.8319 76.0098 30.9257 76.1036C31.0195 76.1973 31.1466 76.25 31.2793 76.25H81.6192C81.7059 76.25 81.7917 76.2329 81.8718 76.1998C81.9519 76.1666 82.0247 76.118 82.086 76.0567C82.1472 75.9954 82.1959 75.9226 82.229 75.8426C82.2622 75.7625 82.2793 75.6767 82.2793 75.59V67.3C82.2795 66.9782 82.2131 66.6594 82.084 66.3634C81.955 66.0675 81.7661 65.8008 81.5293 65.58C77.7626 62.04 74.3393 58.6867 71.2593 55.52C69.3659 53.58 68.3092 51.2567 68.0892 48.55ZM76.2992 50.72L71.5192 48.75C70.8792 48.4833 70.7193 48.6567 71.0393 49.27L73.2092 53.49C73.2479 53.5614 73.3048 53.6206 73.3758 53.663C73.4468 53.7054 73.5298 53.73 73.6186 53.7348C73.7074 53.7397 73.7996 53.7246 73.8881 53.6908C73.9766 53.6571 74.0591 53.6055 74.1293 53.54L76.3392 51.45C76.3971 51.3965 76.4436 51.3305 76.4744 51.2583C76.5052 51.186 76.5192 51.1099 76.5152 51.037C76.5112 50.9641 76.4893 50.8967 76.4516 50.8413C76.4138 50.7859 76.3614 50.7441 76.2992 50.72ZM79.4531 53.3259C79.3283 53.1958 79.1569 53.1205 78.9766 53.1168C78.7963 53.113 78.6219 53.181 78.4917 53.3058L76.1965 55.5068C76.1321 55.5686 76.0804 55.6425 76.0445 55.7243C76.0086 55.806 75.9892 55.8941 75.9873 55.9834C75.9854 56.0727 76.0011 56.1614 76.0336 56.2446C76.066 56.3278 76.1145 56.4038 76.1763 56.4683L77.5054 57.8541C77.6302 57.9842 77.8016 58.0595 77.9819 58.0632C78.1622 58.067 78.3366 57.999 78.4668 57.8742L80.7619 55.6732C80.8264 55.6114 80.8781 55.5375 80.914 55.4557C80.9499 55.374 80.9693 55.2859 80.9712 55.1966C80.9731 55.1073 80.9573 55.0186 80.9249 54.9354C80.8925 54.8522 80.844 54.7762 80.7822 54.7117L79.4531 53.3259ZM100.867 74.2104C100.914 74.1606 100.95 74.1021 100.974 74.0382C100.998 73.9743 101.01 73.9063 101.008 73.8381C101.006 73.7698 100.99 73.7026 100.962 73.6404C100.934 73.5781 100.894 73.5221 100.844 73.4753L83.8151 57.4843C83.7654 57.4375 83.7069 57.4011 83.643 57.3769C83.5791 57.3528 83.5111 57.3414 83.4428 57.3436C83.3746 57.3457 83.3074 57.3613 83.2451 57.3894C83.1829 57.4175 83.1268 57.4576 83.0801 57.5074L80.7116 60.0296C80.6648 60.0794 80.6283 60.1379 80.6042 60.2018C80.58 60.2657 80.5687 60.3337 80.5708 60.4019C80.573 60.4702 80.5885 60.5374 80.6167 60.5996C80.6448 60.6619 80.6849 60.718 80.7347 60.7647L97.7634 76.7557C97.8131 76.8025 97.8716 76.8389 97.9355 76.8631C97.9994 76.8872 98.0674 76.8986 98.1357 76.8964C98.204 76.8943 98.2711 76.8787 98.3334 76.8506C98.3956 76.8225 98.4517 76.7824 98.4985 76.7326L100.867 74.2104ZM101.979 77.47C101.786 77.6633 101.573 77.8233 101.339 77.95C101.146 78.05 101.006 78.16 100.919 78.28C100.546 78.78 100.719 78.9533 101.439 78.8C102.399 78.6 102.986 78.0733 103.199 77.22C103.219 77.1458 103.226 77.0689 103.22 76.9939C103.214 76.9188 103.196 76.8471 103.165 76.7829C103.134 76.7187 103.092 76.6633 103.041 76.6199C102.991 76.5765 102.932 76.5459 102.869 76.53C102.643 76.47 102.466 76.5667 102.339 76.82C102.153 77.1933 102.033 77.41 101.979 77.47ZM86.7692 80.98C86.7692 80.7201 86.666 80.4708 86.4822 80.287C86.2984 80.1032 86.0492 80 85.7893 80H27.2893C27.0293 80 26.7801 80.1032 26.5963 80.287C26.4125 80.4708 26.3092 80.7201 26.3092 80.98V81.02C26.3092 81.2799 26.4125 81.5292 26.5963 81.713C26.7801 81.8968 27.0293 82 27.2893 82H85.7893C86.0492 82 86.2984 81.8968 86.4822 81.713C86.666 81.5292 86.7692 81.2799 86.7692 81.02V80.98ZM47.8392 86.24L46.4493 88.6C46.4108 88.6654 46.3911 88.7398 46.3923 88.8156C46.3935 88.8915 46.4155 88.9662 46.456 89.0321C46.4966 89.0981 46.5543 89.1529 46.6234 89.1912C46.6924 89.2294 46.7703 89.2497 46.8493 89.25L66.7293 89.42C66.7875 89.4222 66.8455 89.4106 66.8984 89.3861C66.9514 89.3616 66.9978 89.325 67.0338 89.2791C67.0699 89.2333 67.0946 89.1796 67.106 89.1224C67.1174 89.0652 67.1151 89.0061 67.0993 88.95C66.4593 86.5233 64.9193 85.3967 62.4793 85.57C60.9259 85.6833 60.1226 85.74 60.0693 85.74C56.2426 85.72 52.4193 85.7433 48.5993 85.81C48.4437 85.813 48.2923 85.8541 48.1593 85.9293C48.0264 86.0045 47.9162 86.1114 47.8392 86.24Z" fill="white"/>
<path d="M68.0893 48.5501C68.3093 51.2567 69.366 53.5801 71.2593 55.5201C74.3393 58.6867 77.7626 62.0401 81.5293 65.5801C81.7662 65.8009 81.955 66.0676 82.0841 66.3635C82.2131 66.6594 82.2796 66.9782 82.2793 67.3001V75.5901C82.2793 75.6767 82.2622 75.7625 82.2291 75.8426C82.1959 75.9227 82.1473 75.9955 82.086 76.0568C82.0247 76.118 81.9519 76.1666 81.8719 76.1998C81.7918 76.233 81.706 76.2501 81.6193 76.2501H31.2793C31.1467 76.2501 31.0195 76.1974 30.9258 76.1036C30.832 76.0098 30.7793 75.8827 30.7793 75.7501V32.6601C30.7793 32.5734 30.7964 32.4876 30.8295 32.4075C30.8627 32.3274 30.9113 32.2547 30.9726 32.1934C31.0339 32.1321 31.1067 32.0835 31.1867 32.0503C31.2668 32.0171 31.3526 32.0001 31.4393 32.0001L81.4593 31.8101C81.6008 31.8099 81.7367 31.8633 81.8376 31.9587C81.9386 32.0541 81.9967 32.1838 81.9993 32.3201L82.2593 50.8801C82.2793 52.0201 81.9293 52.1401 81.2093 51.2401C78.356 47.6667 74.7593 45.9167 70.4193 45.9901C68.726 46.0167 67.9493 46.8701 68.0893 48.5501ZM48.6393 55.5301C48.6393 55.1624 48.5669 54.7983 48.4261 54.4585C48.2854 54.1188 48.0792 53.8102 47.8192 53.5502C47.5592 53.2902 47.2505 53.0839 46.9108 52.9432C46.5711 52.8025 46.207 52.7301 45.8393 52.7301C45.0967 52.7301 44.3845 53.0251 43.8594 53.5502C43.3343 54.0753 43.0393 54.7874 43.0393 55.5301C43.0393 56.2727 43.3343 56.9849 43.8594 57.51C44.3845 58.0351 45.0967 58.3301 45.8393 58.3301C46.207 58.3301 46.5711 58.2576 46.9108 58.1169C47.2505 57.9762 47.5592 57.77 47.8192 57.51C48.0792 57.25 48.2854 56.9413 48.4261 56.6016C48.5669 56.2619 48.6393 55.8978 48.6393 55.5301ZM58.0093 55.5201C58.0093 55.1537 57.9371 54.7909 57.7969 54.4524C57.6567 54.1139 57.4512 53.8063 57.1921 53.5472C56.9331 53.2882 56.6255 53.0826 56.287 52.9424C55.9485 52.8022 55.5857 52.7301 55.2193 52.7301C54.4793 52.7301 53.7697 53.024 53.2465 53.5472C52.7232 54.0705 52.4293 54.7801 52.4293 55.5201C52.4293 56.26 52.7232 56.9697 53.2465 57.4929C53.7697 58.0161 54.4793 58.3101 55.2193 58.3101C55.5857 58.3101 55.9485 58.2379 56.287 58.0977C56.6255 57.9575 56.9331 57.752 57.1921 57.4929C57.4512 57.2338 57.6567 56.9262 57.7969 56.5877C57.9371 56.2492 58.0093 55.8864 58.0093 55.5201ZM67.4293 55.5101C67.4293 54.7674 67.1343 54.0553 66.6092 53.5302C66.0841 53.0051 65.3719 52.7101 64.6293 52.7101C63.8867 52.7101 63.1745 53.0051 62.6494 53.5302C62.1243 54.0553 61.8293 54.7674 61.8293 55.5101C61.8293 55.8778 61.9017 56.2419 62.0424 56.5816C62.1831 56.9213 62.3894 57.23 62.6494 57.49C62.9094 57.75 63.2181 57.9562 63.5578 58.0969C63.8975 58.2376 64.2616 58.3101 64.6293 58.3101C64.997 58.3101 65.3611 58.2376 65.7008 58.0969C66.0405 57.9562 66.3492 57.75 66.6092 57.49C66.8692 57.23 67.0754 56.9213 67.2162 56.5816C67.3569 56.2419 67.4293 55.8778 67.4293 55.5101Z" fill="#3D4047"/>
<path d="M76.2994 50.7201C76.3615 50.7443 76.4139 50.786 76.4517 50.8414C76.4895 50.8969 76.5114 50.9642 76.5154 51.0371C76.5194 51.11 76.5053 51.1862 76.4745 51.2584C76.4438 51.3306 76.3973 51.3966 76.3394 51.4501L74.1294 53.5401C74.0593 53.6056 73.9768 53.6572 73.8883 53.691C73.7998 53.7247 73.7076 53.7398 73.6188 53.735C73.53 53.7301 73.4469 53.7056 73.3759 53.6631C73.305 53.6207 73.248 53.5615 73.2094 53.4901L71.0394 49.2701C70.7194 48.6568 70.8794 48.4835 71.5194 48.7501L76.2994 50.7201Z" fill="#EC5242"/>
<path d="M45.8391 58.33C47.3854 58.33 48.639 57.0764 48.639 55.53C48.639 53.9836 47.3854 52.73 45.8391 52.73C44.2927 52.73 43.0391 53.9836 43.0391 55.53C43.0391 57.0764 44.2927 58.33 45.8391 58.33Z" fill="#EC5242"/>
<path d="M55.2192 58.31C56.7601 58.31 58.0092 57.0609 58.0092 55.52C58.0092 53.9791 56.7601 52.73 55.2192 52.73C53.6783 52.73 52.4292 53.9791 52.4292 55.52C52.4292 57.0609 53.6783 58.31 55.2192 58.31Z" fill="#7C7C7C"/>
<path d="M64.6291 58.31C66.1755 58.31 67.4291 57.0564 67.4291 55.51C67.4291 53.9636 66.1755 52.71 64.6291 52.71C63.0827 52.71 61.8291 53.9636 61.8291 55.51C61.8291 57.0564 63.0827 58.31 64.6291 58.31Z" fill="#EC5242"/>
<path d="M78.4916 53.3059L76.1964 55.5069C75.9253 55.7668 75.9163 56.1973 76.1762 56.4683L77.5051 57.8541C77.7651 58.1252 78.1955 58.1342 78.4666 57.8743L80.7618 55.6732C81.0329 55.4133 81.0419 54.9828 80.7819 54.7118L79.453 53.326C79.1931 53.0549 78.7626 53.0459 78.4916 53.3059Z" fill="#3D4047"/>
<path d="M100.844 73.4754L83.8151 57.4844C83.6057 57.2878 83.2767 57.2981 83.0801 57.5075L80.7115 60.0297C80.5149 60.2391 80.5253 60.5681 80.7346 60.7647L97.7633 76.7558C97.9727 76.9524 98.3018 76.942 98.4984 76.7327L100.867 74.2104C101.063 74.0011 101.053 73.672 100.844 73.4754Z" fill="#3D4047"/>
<path d="M102.339 76.8199C102.466 76.5666 102.643 76.4699 102.869 76.5299C102.932 76.5458 102.991 76.5764 103.041 76.6198C103.092 76.6632 103.134 76.7186 103.165 76.7828C103.196 76.847 103.214 76.9187 103.22 76.9938C103.226 77.0688 103.219 77.1457 103.199 77.2199C102.986 78.0733 102.399 78.5999 101.439 78.7999C100.719 78.9533 100.546 78.7799 100.919 78.2799C101.006 78.1599 101.146 78.0499 101.339 77.9499C101.573 77.8233 101.786 77.6633 101.979 77.4699C102.033 77.4099 102.153 77.1933 102.339 76.8199Z" fill="#FDFDFD"/>
<path d="M85.7891 80H27.2891C26.7479 80 26.3091 80.4388 26.3091 80.98V81.02C26.3091 81.5612 26.7479 82 27.2891 82H85.7891C86.3303 82 86.7691 81.5612 86.7691 81.02V80.98C86.7691 80.4388 86.3303 80 85.7891 80Z" fill="#EC5242"/>
<path d="M47.8391 86.2401C47.9161 86.1115 48.0262 86.0046 48.1592 85.9293C48.2921 85.8541 48.4435 85.8131 48.5991 85.8101C52.4191 85.7434 56.2424 85.7201 60.0691 85.7401C60.1224 85.7401 60.9258 85.6834 62.4791 85.5701C64.9191 85.3967 66.4591 86.5234 67.0991 88.9501C67.1149 89.0062 67.1172 89.0653 67.1059 89.1225C67.0945 89.1797 67.0698 89.2334 67.0337 89.2792C66.9976 89.325 66.9512 89.3617 66.8983 89.3861C66.8453 89.4106 66.7874 89.4222 66.7291 89.4201L46.8491 89.2501C46.7702 89.2498 46.6923 89.2295 46.6232 89.1912C46.5542 89.153 46.4965 89.0981 46.4559 89.0322C46.4153 88.9663 46.3933 88.8916 46.3921 88.8157C46.3909 88.7398 46.4106 88.6655 46.4491 88.6001L47.8391 86.2401Z" fill="#3D4047"/>
</svg>
