<svg width="342" height="86" viewBox="0 0 342 86" fill="none" xmlns="http://www.w3.org/2000/svg">
<path d="M105.837 77C104.079 77 102.397 76.736 100.792 76.208C99.1874 75.6579 97.9233 74.9539 97 74.0959L98.2201 71.5217C99.0994 72.2918 100.221 72.9298 101.584 73.4358C102.947 73.9418 104.365 74.1949 105.837 74.1949C107.178 74.1949 108.267 74.0408 109.102 73.7328C109.937 73.4248 110.553 73.0068 110.949 72.4788C111.344 71.9287 111.542 71.3127 111.542 70.6307C111.542 69.8386 111.278 69.2006 110.751 68.7166C110.245 68.2325 109.575 67.8475 108.739 67.5615C107.926 67.2535 107.025 66.9895 106.035 66.7695C105.046 66.5495 104.046 66.2965 103.035 66.0104C102.045 65.7024 101.133 65.3174 100.298 64.8554C99.4841 64.3933 98.8246 63.7773 98.319 63.0073C97.8134 62.2152 97.5606 61.2032 97.5606 59.9711C97.5606 58.7831 97.8684 57.694 98.4839 56.704C99.1214 55.6919 100.089 54.8889 101.386 54.2948C102.705 53.6788 104.376 53.3708 106.398 53.3708C107.739 53.3708 109.069 53.5468 110.388 53.8988C111.707 54.2508 112.85 54.7569 113.817 55.4169L112.729 58.057C111.74 57.397 110.696 56.924 109.597 56.638C108.497 56.3299 107.431 56.1759 106.398 56.1759C105.101 56.1759 104.035 56.3409 103.199 56.671C102.364 57.001 101.748 57.441 101.353 57.991C100.979 58.541 100.792 59.1571 100.792 59.8391C100.792 60.6532 101.045 61.3022 101.551 61.7862C102.078 62.2702 102.749 62.6553 103.562 62.9413C104.397 63.2273 105.31 63.4913 106.299 63.7333C107.288 63.9533 108.278 64.2063 109.267 64.4924C110.278 64.7784 111.19 65.1524 112.004 65.6144C112.839 66.0764 113.51 66.6925 114.015 67.4625C114.521 68.2325 114.774 69.2226 114.774 70.4327C114.774 71.5987 114.455 72.6878 113.817 73.6998C113.18 74.6899 112.191 75.4929 110.85 76.109C109.531 76.703 107.86 77 105.837 77Z" fill="#272A31"/>
<path d="M125.494 76.934C123.999 76.934 122.68 76.659 121.537 76.109C120.416 75.5589 119.536 74.7229 118.899 73.6008C118.283 72.4568 117.975 71.0267 117.975 69.3106V59.2451H121.141V68.9476C121.141 70.6637 121.548 71.9507 122.361 72.8088C123.197 73.6668 124.362 74.0959 125.857 74.0959C126.956 74.0959 127.912 73.8758 128.725 73.4358C129.539 72.9738 130.165 72.3138 130.605 71.4557C131.045 70.5757 131.265 69.5196 131.265 68.2876V59.2451H134.43V76.736H131.429V72.0167L131.924 73.2708C131.352 74.4369 130.495 75.3389 129.352 75.9769C128.209 76.615 126.923 76.934 125.494 76.934Z" fill="#272A31"/>
<path d="M161.33 59.0801C162.737 59.0801 163.979 59.3551 165.056 59.9051C166.134 60.4551 166.969 61.2912 167.562 62.4132C168.178 63.5353 168.486 64.9544 168.486 66.6705V76.736H165.32V67.0335C165.32 65.3394 164.924 64.0633 164.133 63.2053C163.342 62.3472 162.231 61.9182 160.803 61.9182C159.747 61.9182 158.824 62.1382 158.033 62.5783C157.241 63.0183 156.626 63.6673 156.186 64.5254C155.768 65.3834 155.559 66.4505 155.559 67.7265V76.736H152.394V67.0335C152.394 65.3394 151.998 64.0633 151.207 63.2053C150.437 62.3472 149.327 61.9182 147.876 61.9182C146.843 61.9182 145.931 62.1382 145.139 62.5783C144.348 63.0183 143.732 63.6673 143.293 64.5254C142.853 65.3834 142.633 66.4505 142.633 67.7265V76.736H139.467V59.2451H142.501V63.8983L142.007 62.7103C142.556 61.5662 143.403 60.6752 144.546 60.0371C145.689 59.3991 147.019 59.0801 148.536 59.0801C150.206 59.0801 151.646 59.4981 152.855 60.3341C154.065 61.1482 154.856 62.3912 155.23 64.0633L153.944 63.5353C154.471 62.1932 155.395 61.1152 156.714 60.3011C158.033 59.4871 159.571 59.0801 161.33 59.0801Z" fill="#272A31"/>
<path d="M195.184 59.0801C196.591 59.0801 197.833 59.3551 198.91 59.9051C199.987 60.4551 200.823 61.2912 201.416 62.4132C202.032 63.5353 202.34 64.9544 202.34 66.6705V76.736H199.174V67.0335C199.174 65.3394 198.778 64.0633 197.987 63.2053C197.196 62.3472 196.085 61.9182 194.656 61.9182C193.601 61.9182 192.678 62.1382 191.886 62.5783C191.095 63.0183 190.48 63.6673 190.04 64.5254C189.622 65.3834 189.413 66.4505 189.413 67.7265V76.736H186.248V67.0335C186.248 65.3394 185.852 64.0633 185.061 63.2053C184.291 62.3472 183.181 61.9182 181.73 61.9182C180.697 61.9182 179.785 62.1382 178.993 62.5783C178.202 63.0183 177.586 63.6673 177.146 64.5254C176.707 65.3834 176.487 66.4505 176.487 67.7265V76.736H173.321V59.2451H176.355V63.8983L175.86 62.7103C176.41 61.5662 177.256 60.6752 178.4 60.0371C179.543 59.3991 180.873 59.0801 182.39 59.0801C184.06 59.0801 185.5 59.4981 186.709 60.3341C187.918 61.1482 188.71 62.3912 189.084 64.0633L187.798 63.5353C188.325 62.1932 189.248 61.1152 190.567 60.3011C191.886 59.4871 193.425 59.0801 195.184 59.0801Z" fill="#272A31"/>
<path d="M207.175 76.736V59.2451H210.341V76.736H207.175ZM208.758 55.8789C208.143 55.8789 207.626 55.6809 207.208 55.2849C206.813 54.8889 206.615 54.4048 206.615 53.8328C206.615 53.2388 206.813 52.7438 207.208 52.3477C207.626 51.9517 208.143 51.7537 208.758 51.7537C209.374 51.7537 209.879 51.9517 210.275 52.3477C210.693 52.7217 210.901 53.1948 210.901 53.7668C210.901 54.3608 210.704 54.8669 210.308 55.2849C209.912 55.6809 209.396 55.8789 208.758 55.8789Z" fill="#272A31"/>
<path d="M221.397 76.934C219.639 76.934 218.276 76.461 217.308 75.5149C216.341 74.5689 215.858 73.2158 215.858 71.4557V55.4169H219.023V71.3237C219.023 72.2698 219.254 72.9958 219.716 73.5018C220.199 74.0078 220.881 74.2609 221.76 74.2609C222.749 74.2609 223.574 73.9858 224.233 73.4358L225.223 75.7129C224.739 76.131 224.156 76.439 223.475 76.637C222.815 76.835 222.123 76.934 221.397 76.934ZM212.89 61.8522V59.2451H224.035V61.8522H212.89Z" fill="#272A31"/>
<path d="M234.146 76.736V74.4919L243.544 65.4164C244.38 64.6244 244.995 63.9313 245.391 63.3373C245.809 62.7213 246.083 62.1602 246.215 61.6542C246.369 61.1262 246.446 60.6202 246.446 60.1361C246.446 58.9481 246.028 58.013 245.193 57.331C244.358 56.649 243.138 56.3079 241.533 56.3079C240.302 56.3079 239.192 56.5169 238.202 56.935C237.213 57.331 236.356 57.958 235.63 58.8161L233.388 56.869C234.267 55.7469 235.443 54.8889 236.916 54.2948C238.411 53.6788 240.049 53.3708 241.83 53.3708C243.434 53.3708 244.83 53.6348 246.017 54.1628C247.205 54.6688 248.117 55.4059 248.754 56.3739C249.414 57.342 249.744 58.486 249.744 59.8061C249.744 60.5542 249.645 61.2912 249.447 62.0172C249.249 62.7433 248.875 63.5133 248.326 64.3273C247.776 65.1414 246.985 66.0544 245.951 67.0665L237.576 75.1519L236.784 73.8648H250.733V76.736H234.146Z" fill="#272A31"/>
<path d="M261.854 77C260.051 77 258.435 76.538 257.006 75.6139C255.599 74.6899 254.478 73.3478 253.643 71.5877C252.829 69.8276 252.423 67.6935 252.423 65.1854C252.423 62.6773 252.829 60.5432 253.643 58.7831C254.478 57.023 255.599 55.6809 257.006 54.7569C258.435 53.8328 260.051 53.3708 261.854 53.3708C263.634 53.3708 265.239 53.8328 266.668 54.7569C268.097 55.6809 269.218 57.023 270.032 58.7831C270.845 60.5432 271.252 62.6773 271.252 65.1854C271.252 67.6935 270.845 69.8276 270.032 71.5877C269.218 73.3478 268.097 74.6899 266.668 75.6139C265.239 76.538 263.634 77 261.854 77ZM261.854 74.0628C263.063 74.0628 264.118 73.7328 265.019 73.0728C265.943 72.4128 266.657 71.4227 267.163 70.1026C267.69 68.7826 267.954 67.1435 267.954 65.1854C267.954 63.2273 267.69 61.5882 267.163 60.2681C266.657 58.9481 265.943 57.958 265.019 57.298C264.118 56.638 263.063 56.3079 261.854 56.3079C260.645 56.3079 259.578 56.638 258.655 57.298C257.732 57.958 257.006 58.9481 256.479 60.2681C255.973 61.5882 255.72 63.2273 255.72 65.1854C255.72 67.1435 255.973 68.7826 256.479 70.1026C257.006 71.4227 257.732 72.4128 258.655 73.0728C259.578 73.7328 260.645 74.0628 261.854 74.0628Z" fill="#272A31"/>
<path d="M273.065 76.736V74.4919L282.463 65.4164C283.298 64.6244 283.914 63.9313 284.31 63.3373C284.727 62.7213 285.002 62.1602 285.134 61.6542C285.288 61.1262 285.365 60.6202 285.365 60.1361C285.365 58.9481 284.947 58.013 284.112 57.331C283.276 56.649 282.056 56.3079 280.451 56.3079C279.22 56.3079 278.11 56.5169 277.121 56.935C276.132 57.331 275.274 57.958 274.549 58.8161L272.307 56.869C273.186 55.7469 274.362 54.8889 275.835 54.2948C277.33 53.6788 278.968 53.3708 280.748 53.3708C282.353 53.3708 283.749 53.6348 284.936 54.1628C286.123 54.6688 287.036 55.4059 287.673 56.3739C288.333 57.342 288.662 58.486 288.662 59.8061C288.662 60.5542 288.563 61.2912 288.366 62.0172C288.168 62.7433 287.794 63.5133 287.244 64.3273C286.695 65.1414 285.903 66.0544 284.87 67.0665L276.494 75.1519L275.703 73.8648H289.652V76.736H273.065Z" fill="#272A31"/>
<path d="M298.43 77C296.804 77 295.221 76.747 293.682 76.241C292.165 75.7349 290.923 75.0529 289.956 74.1949L291.472 71.5877C292.242 72.3138 293.242 72.9078 294.473 73.3698C295.704 73.8318 297.023 74.0628 298.43 74.0628C300.145 74.0628 301.475 73.6998 302.42 72.9738C303.388 72.2258 303.871 71.2247 303.871 69.9706C303.871 68.7606 303.41 67.7925 302.486 67.0665C301.585 66.3184 300.145 65.9444 298.166 65.9444H296.32V63.6343L303.179 55.1859L303.64 56.5059H291.011V53.6348H306.245V55.8789L299.42 64.2943L297.705 63.2713H298.793C301.585 63.2713 303.673 63.8983 305.058 65.1524C306.465 66.4065 307.169 68.0015 307.169 69.9376C307.169 71.2357 306.85 72.4238 306.212 73.5018C305.575 74.5799 304.608 75.4379 303.311 76.076C302.036 76.692 300.409 77 298.43 77Z" fill="#272A31"/>
<path d="M119.802 10.7326H125.161V39.6091H119.802V10.7326ZM104.881 39.6091H99.5226V10.7326H104.881V39.6091ZM120.215 27.2334H104.428V22.6545H120.215V27.2334Z" fill="#272A31"/>
<path d="M139.446 39.8978C137.001 39.8978 134.857 39.4166 133.016 38.454C131.203 37.464 129.787 36.1164 128.771 34.4113C127.781 32.7062 127.287 30.7674 127.287 28.5948C127.287 26.3946 127.768 24.4558 128.729 22.7782C129.719 21.0731 131.065 19.7393 132.769 18.7768C134.5 17.8142 136.465 17.3329 138.663 17.3329C140.807 17.3329 142.716 17.8005 144.393 18.7355C146.069 19.6705 147.388 20.9906 148.35 22.6957C149.312 24.4008 149.792 26.4084 149.792 28.7185C149.792 28.9385 149.779 29.186 149.751 29.4611C149.751 29.7361 149.737 29.9973 149.71 30.2448H131.367V26.8209H146.99L144.97 27.8935C144.997 26.6284 144.736 25.5146 144.187 24.5521C143.637 23.5895 142.881 22.8332 141.92 22.2832C140.985 21.7332 139.9 21.4581 138.663 21.4581C137.399 21.4581 136.286 21.7332 135.324 22.2832C134.39 22.8332 133.648 23.6033 133.099 24.5933C132.576 25.5559 132.315 26.6972 132.315 28.0172V28.8423C132.315 30.1623 132.618 31.3311 133.222 32.3487C133.827 33.3663 134.679 34.15 135.778 34.7001C136.877 35.2501 138.141 35.5251 139.57 35.5251C140.807 35.5251 141.92 35.3326 142.909 34.9476C143.898 34.5626 144.777 33.9575 145.547 33.1325L148.309 36.3089C147.319 37.464 146.069 38.3578 144.558 38.9903C143.074 39.5953 141.37 39.8978 139.446 39.8978Z" fill="#272A31"/>
<path d="M164.401 39.6091V35.1538L164.113 34.205V26.4084C164.113 24.8958 163.659 23.727 162.753 22.902C161.846 22.0494 160.472 21.6232 158.631 21.6232C157.394 21.6232 156.171 21.8157 154.962 22.2007C153.781 22.5857 152.778 23.122 151.953 23.8095L149.933 20.0556C151.115 19.148 152.517 18.4742 154.138 18.0342C155.787 17.5667 157.49 17.3329 159.249 17.3329C162.437 17.3329 164.896 18.103 166.627 19.643C168.386 21.1556 169.265 23.507 169.265 26.6972V39.6091H164.401ZM157.477 39.8978C155.828 39.8978 154.385 39.6228 153.149 39.0728C151.912 38.4953 150.95 37.7115 150.263 36.7214C149.604 35.7039 149.274 34.5626 149.274 33.2975C149.274 32.0599 149.562 30.9461 150.14 29.9561C150.744 28.966 151.72 28.1822 153.066 27.6047C154.413 27.0272 156.199 26.7384 158.425 26.7384H164.814V30.1623H158.796C157.037 30.1623 155.855 30.4511 155.251 31.0286C154.646 31.5787 154.344 32.2662 154.344 33.0912C154.344 34.0263 154.715 34.7688 155.457 35.3189C156.199 35.8689 157.229 36.1439 158.548 36.1439C159.812 36.1439 160.939 35.8551 161.928 35.2776C162.945 34.7001 163.673 33.8475 164.113 32.72L164.978 35.8139C164.484 37.1064 163.591 38.1102 162.299 38.8253C161.035 39.5403 159.428 39.8978 157.477 39.8978Z" fill="#272A31"/>
<path d="M172.58 39.6091V9H177.733V39.6091H172.58Z" fill="#272A31"/>
<path d="M190.57 39.8978C188.151 39.8978 186.283 39.2791 184.964 38.0415C183.645 36.7764 182.985 34.9201 182.985 32.4725V12.7127H188.138V32.3487C188.138 33.3938 188.399 34.205 188.921 34.7826C189.47 35.3601 190.226 35.6489 191.188 35.6489C192.342 35.6489 193.304 35.3464 194.073 34.7413L195.516 38.4128C194.911 38.9078 194.169 39.2791 193.29 39.5266C192.411 39.7741 191.504 39.8978 190.57 39.8978ZM179.358 21.8707V17.7455H194.032V21.8707H179.358Z" fill="#272A31"/>
<path d="M208.946 17.3329C210.705 17.3329 212.271 17.6767 213.645 18.3642C215.047 19.0518 216.146 20.1106 216.943 21.5406C217.74 22.9432 218.138 24.7583 218.138 26.9859V39.6091H212.986V27.646C212.986 25.6934 212.519 24.2358 211.584 23.2732C210.677 22.3107 209.4 21.8294 207.751 21.8294C206.542 21.8294 205.47 22.0769 204.536 22.5719C203.601 23.067 202.873 23.8095 202.351 24.7996C201.857 25.7621 201.609 26.9859 201.609 28.471V39.6091H196.457V9H201.609V23.5207L200.496 21.7057C201.266 20.3031 202.379 19.2305 203.835 18.488C205.319 17.7179 207.023 17.3329 208.946 17.3329Z" fill="#272A31"/>
<path d="M222.788 47.9008C221.716 47.9008 220.644 47.722 219.573 47.3645C218.501 47.007 217.608 46.5119 216.894 45.8794L218.954 42.0842C219.477 42.5517 220.067 42.923 220.727 43.198C221.386 43.473 222.06 43.6105 222.747 43.6105C223.681 43.6105 224.437 43.3768 225.014 42.9092C225.591 42.4417 226.127 41.6579 226.621 40.5579L227.899 37.6702L228.311 37.0514L236.638 17.5804H241.584L231.279 41.3829C230.592 43.033 229.823 44.3393 228.971 45.3019C228.146 46.2644 227.212 46.9382 226.168 47.3232C225.151 47.7082 224.024 47.9008 222.788 47.9008ZM227.322 40.3929L217.388 17.5804H222.747L230.826 36.5977L227.322 40.3929Z" fill="#272A31"/>
<path d="M255 24.0158H269.386V28.5535H255V24.0158ZM255.454 39.6091H250.095V10.7326H271.158V15.2291H255.454V39.6091Z" fill="#272A31"/>
<path d="M281.837 39.8978C279.584 39.8978 277.578 39.4166 275.819 38.454C274.06 37.464 272.673 36.1164 271.656 34.4113C270.639 32.7062 270.131 30.7674 270.131 28.5948C270.131 26.3946 270.639 24.4558 271.656 22.7782C272.673 21.0731 274.06 19.7393 275.819 18.7768C277.578 17.8142 279.584 17.3329 281.837 17.3329C284.118 17.3329 286.138 17.8142 287.896 18.7768C289.682 19.7393 291.07 21.0594 292.059 22.737C293.076 24.4145 293.585 26.3671 293.585 28.5948C293.585 30.7674 293.076 32.7062 292.059 34.4113C291.07 36.1164 289.682 37.464 287.896 38.454C286.138 39.4166 284.118 39.8978 281.837 39.8978ZM281.837 35.4839C283.101 35.4839 284.228 35.2088 285.217 34.6588C286.206 34.1088 286.976 33.3113 287.525 32.2662C288.102 31.2211 288.391 29.9973 288.391 28.5948C288.391 27.1647 288.102 25.9409 287.525 24.9233C286.976 23.8783 286.206 23.0807 285.217 22.5307C284.228 21.9807 283.115 21.7057 281.878 21.7057C280.614 21.7057 279.488 21.9807 278.498 22.5307C277.536 23.0807 276.767 23.8783 276.19 24.9233C275.613 25.9409 275.324 27.1647 275.324 28.5948C275.324 29.9973 275.613 31.2211 276.19 32.2662C276.767 33.3113 277.536 34.1088 278.498 34.6588C279.488 35.2088 280.6 35.4839 281.837 35.4839Z" fill="#272A31"/>
<path d="M305.107 39.8978C302.853 39.8978 300.847 39.4166 299.089 38.454C297.33 37.464 295.942 36.1164 294.925 34.4113C293.909 32.7062 293.4 30.7674 293.4 28.5948C293.4 26.3946 293.909 24.4558 294.925 22.7782C295.942 21.0731 297.33 19.7393 299.089 18.7768C300.847 17.8142 302.853 17.3329 305.107 17.3329C307.387 17.3329 309.407 17.8142 311.166 18.7768C312.952 19.7393 314.34 21.0594 315.329 22.737C316.346 24.4145 316.854 26.3671 316.854 28.5948C316.854 30.7674 316.346 32.7062 315.329 34.4113C314.34 36.1164 312.952 37.464 311.166 38.454C309.407 39.4166 307.387 39.8978 305.107 39.8978ZM305.107 35.4839C306.371 35.4839 307.497 35.2088 308.487 34.6588C309.476 34.1088 310.245 33.3113 310.795 32.2662C311.372 31.2211 311.66 29.9973 311.66 28.5948C311.66 27.1647 311.372 25.9409 310.795 24.9233C310.245 23.8783 309.476 23.0807 308.487 22.5307C307.497 21.9807 306.384 21.7057 305.148 21.7057C303.884 21.7057 302.757 21.9807 301.768 22.5307C300.806 23.0807 300.037 23.8783 299.46 24.9233C298.882 25.9409 298.594 27.1647 298.594 28.5948C298.594 29.9973 298.882 31.2211 299.46 32.2662C300.037 33.3113 300.806 34.1088 301.768 34.6588C302.757 35.2088 303.87 35.4839 305.107 35.4839Z" fill="#272A31"/>
<path d="M327.799 39.8978C325.683 39.8978 323.773 39.4303 322.07 38.4953C320.393 37.5327 319.074 36.2127 318.113 34.5351C317.151 32.8575 316.67 30.8774 316.67 28.5948C316.67 26.3121 317.151 24.332 318.113 22.6545C319.074 20.9769 320.393 19.6705 322.07 18.7355C323.773 17.8005 325.683 17.3329 327.799 17.3329C329.64 17.3329 331.289 17.7455 332.745 18.5705C334.202 19.368 335.356 20.5918 336.208 22.2419C337.06 23.892 337.486 26.0096 337.486 28.5948C337.486 31.1524 337.073 33.27 336.249 34.9476C335.425 36.5977 334.284 37.8352 332.828 38.6603C331.371 39.4853 329.695 39.8978 327.799 39.8978ZM328.417 35.4839C329.654 35.4839 330.753 35.2088 331.715 34.6588C332.704 34.1088 333.487 33.3113 334.064 32.2662C334.669 31.2211 334.971 29.9973 334.971 28.5948C334.971 27.1647 334.669 25.9409 334.064 24.9233C333.487 23.8783 332.704 23.0807 331.715 22.5307C330.753 21.9807 329.654 21.7057 328.417 21.7057C327.181 21.7057 326.068 21.9807 325.079 22.5307C324.117 23.0807 323.334 23.8783 322.729 24.9233C322.152 25.9409 321.864 27.1647 321.864 28.5948C321.864 29.9973 322.152 31.2211 322.729 32.2662C323.334 33.3113 324.117 34.1088 325.079 34.6588C326.068 35.2088 327.181 35.4839 328.417 35.4839ZM335.095 39.6091V34.4113L335.301 28.5535L334.889 22.6957V9H340V39.6091H335.095Z" fill="#272A31"/>
<path d="M79.8682 34.8095H6.14366C5.05738 34.8095 4.0156 35.241 3.24749 36.009C2.47937 36.777 2.04785 37.8186 2.04785 38.9048C2.04803 46.0932 3.94064 53.155 7.53545 59.3804C11.1303 65.6057 16.3006 70.7753 22.5269 74.3695V79.8571C22.5269 80.9433 22.9584 81.9849 23.7265 82.7529C24.4946 83.5209 25.5364 83.9524 26.6227 83.9524H59.3892C60.4754 83.9524 61.5172 83.5209 62.2853 82.7529C63.0535 81.9849 63.485 80.9433 63.485 79.8571V74.3695C69.7112 70.7753 74.8816 65.6057 78.4764 59.3804C82.0712 53.155 83.9638 46.0932 83.964 38.9048C83.964 37.8186 83.5325 36.777 82.7644 36.009C81.9963 35.241 80.9545 34.8095 79.8682 34.8095ZM57.5461 68.2267C56.8644 68.5701 56.2922 69.0972 55.8942 69.7484C55.4962 70.3997 55.288 71.1492 55.2934 71.9124V75.7619H30.7185V71.9124C30.7238 71.1492 30.5157 70.3997 30.1177 69.7484C29.7196 69.0972 29.1475 68.5701 28.4658 68.2267C23.6201 65.831 19.4425 62.2739 16.3052 57.8724C13.1679 53.4708 11.1685 48.3616 10.4852 43H75.5267C74.8433 48.3616 72.8439 53.4708 69.7067 57.8724C66.5694 62.2739 62.3918 65.831 57.5461 68.2267ZM30.7185 30.7143V26.3324C30.7125 21.5149 28.8323 16.8886 25.4759 13.4324C24.5263 12.473 23.7766 11.3346 23.2704 10.0833C22.7642 8.83193 22.5114 7.49257 22.5269 6.14285V2.04761H14.3353V6.14285C14.32 10.9887 16.2017 15.6482 19.5779 19.1248C21.4758 21.0426 22.5363 23.6344 22.5269 26.3324V30.7143H30.7185ZM47.1017 30.7143V26.3324C47.0957 21.5149 45.2156 16.8886 41.8591 13.4324C40.9095 12.473 40.1598 11.3346 39.6536 10.0833C39.1474 8.83193 38.8947 7.49257 38.9101 6.14285V2.04761H30.7185V6.14285C30.7246 10.9604 32.6047 15.5866 35.9611 19.0428C36.9108 20.0023 37.6604 21.1406 38.1666 22.392C38.6729 23.6433 38.9256 24.9826 38.9101 26.3324V30.7143H47.1017ZM63.485 30.7143V26.3324C63.4789 21.5149 61.5988 16.8886 58.2423 13.4324C57.2927 12.473 56.5431 11.3346 56.0369 10.0833C55.5306 8.83193 55.2779 7.49257 55.2934 6.14285V2.04761H47.1017V6.14285C47.1078 10.9604 48.9879 15.5866 52.3444 19.0428C53.294 20.0023 54.0437 21.1406 54.5499 22.392C55.0561 23.6433 55.3088 24.9826 55.2934 26.3324V30.7143H63.485Z" fill="#EC5242"/>
</svg>
